<?xml version="1.0" encoding="utf-8"?>
<!-- Generator: Adobe Illustrator 27.5.0, SVG Export Plug-In . SVG Version: 6.00 Build 0)  -->
<svg version="1.1" id="Default" xmlns="http://www.w3.org/2000/svg" xmlns:xlink="http://www.w3.org/1999/xlink" x="0px" y="0px"
	 viewBox="0 0 500 500" style="enable-background:new 0 0 500 500;" xml:space="preserve">
<rect style="fill:#FFFFFF;" width="500" height="500"/>
<g>
	<g id="XMLID_1_">
		<g>
			<path style="fill:#E5D7D6;" d="M441.937,131.243l-49.678,26.092c-2.51,1.322-6.54,1.308-9.027,0l-51.936-27.282
				c-0.776-0.408-1.62-1.107-1.825-1.903c-0.153-0.659,0.099-1.358,0.54-1.875c0.79-0.943-1.581,0.623,50.963-27.06L441.937,131.243
				z"/>
			<path style="fill:#847A8D;" d="M335.167,287.648c-0.358,0.025-0.681-0.131-0.821-0.429L335.167,287.648z"/>
			<path style="fill:#847A8D;" d="M335.167,256.809c-0.198,0.014-0.357-0.021-0.494-0.097c0,0-0.008,0-0.008-0.007
				c-0.145-0.069-0.251-0.18-0.327-0.325L335.167,256.809z"/>
			<path style="fill:#A39EA1;" d="M334.665,256.706c0,0.007,0.008,0.007,0.008,0.007c0.137,0.076,0.297,0.111,0.494,0.097v-26.825
				c-0.563,0.553-0.973,1.356-0.973,2.062c0,24.616-0.069,24.14,0.145,24.334C334.414,256.526,334.52,256.636,334.665,256.706z
				 M335.805,228.822v28.472c-0.593,0.311-1.171,0.36-1.59,0.138c-0.038-0.021-0.084-0.042-0.122-0.069
				c-0.335-0.228-0.54-0.65-0.54-1.259v-23.718C333.554,231.05,334.581,229.472,335.805,228.822z"/>
			<path style="fill:#F2E2E0;" d="M329.425,254.99c0.008,0.221,0.061,0.443,0.167,0.664c0.35,0.761,0.905,1.218,1.704,1.64
				c-0.783,0.408-1.468,1.176-1.871,2.02C329.425,257.996,329.425,257.031,329.425,254.99z"/>
			<path style="fill:#878184;" d="M335.167,260.823v26.825l-0.821-0.429c-0.223-0.362-0.152,0.948-0.152-24.334
				C334.193,262.172,334.604,261.369,335.167,260.823z"/>
			<path style="fill:#878184;" d="M335.167,229.984v26.825l-0.829-0.429c-0.213-0.194-0.145,0.438-0.145-24.334
				C334.193,231.341,334.604,230.538,335.167,229.984z"/>
			<path style="fill:#A39EA1;" d="M334.345,287.219c0.14,0.298,0.463,0.454,0.821,0.429v-26.825
				c-0.563,0.547-0.973,1.349-0.973,2.062C334.193,288.06,334.113,286.841,334.345,287.219z M335.805,259.66v28.465
				c-1.132,0.594-2.251,0.234-2.251-1.183v-23.718C333.554,261.902,334.558,260.317,335.805,259.66z"/>
			<path style="fill:#E3D5D8;" d="M469.035,339.125v7.12L234.199,469.597v-7.12C480.134,333.299,468.642,339.328,469.035,339.125z"
				/>
			<path style="fill:#E3D5D8;" d="M469.035,339.125c-0.355,0.183,0.162-0.088-6.776,3.556V141.836l6.776-3.556V339.125z"/>
			<path style="fill:#EAE8E8;" d="M469.035,138.28l-6.776,3.556C263.12,37.242,265.806,38.715,265.806,38.646
				c0.991-0.52-0.056,0.029,6.776-3.556C273.432,35.535,467.852,137.654,469.035,138.28z"/>
			<path style="fill:#F2E2E3;" d="M462.258,342.682c0,0.07,0.179,0.101-24.839-13.042v-2.373l4.517-2.373
				c0-6.879,0-181.431,0-193.65l-60.964-32.028l-2.259,1.19v-2.373c-112.908-59.386-113.141-59.501,83.544,43.804V342.682z"/>
			<path style="fill:#F9EBD2;" d="M462.258,342.688l-228.06,119.789L37.754,359.294l9.02-4.746l51.936,27.282
				c14.292-7.507,140.586-73.845,144.516-75.909c15.058,0,30.109,0,45.16,0l38.392,20.162l4.518-2.373l1.323,0.692
				c0,1.356,0,2.705,0,4.055c0,0.36,0.243,0.823,0.935,1.183l51.929,27.282c1.262,0.657,3.278,0.65,4.517,0l47.419-24.909v-2.373
				L462.258,342.688z"/>
			<path style="fill:#EAD0D7;" d="M441.937,258.477v66.416c-5.833,3.064-40.811,21.44-49.678,26.099v-66.423
				C395.802,282.713,439.346,259.838,441.937,258.477z"/>
			<path style="fill:#847A8D;" d="M441.937,258.477c-2.576,1.353-46.138,24.238-49.678,26.092v-2.373
				c3.874-2.037-14.222,7.474,49.678-26.092V258.477z"/>
			<path style="fill:#EAD0D7;" d="M392.259,282.195V157.335l49.678-26.092v124.861C371.718,292.989,399.993,278.13,392.259,282.195z
				"/>
			<path style="fill:#847A8D;" d="M437.42,332.012l-47.419,24.909c-1.24,0.65-3.255,0.657-4.517,0l-51.929-27.282
				c-0.692-0.36-0.935-0.823-0.935-1.183c0-1.349,0-2.698,0-4.055l50.613,26.59c2.487,1.308,6.518,1.315,9.027,0l45.16-23.725
				C437.42,328.926,437.42,330.352,437.42,332.012z"/>
			<path style="fill:#F2E2E0;" d="M392.259,284.569v66.423c-2.51,1.315-6.54,1.308-9.027,0c-1.92-1.009-49.876-26.204-51.936-27.282
				c-1.317-0.674-1.871-1.622-1.871-2.373c0-7.612,0-28.039,0-35.654c0.172,0.204-0.029,0.051,4.662,2.519
				c0.046,0.021,0.084,0.048,0.129,0.069v-0.007c0.418,0.221,0.996,0.173,1.59-0.138V259.66l47.427,24.909
				C385.719,285.876,389.75,285.89,392.259,284.569z"/>
			<path style="fill:#847A8D;" d="M383.232,282.195c2.487,1.315,6.518,1.322,9.027,0v2.373c-2.51,1.322-6.54,1.308-9.027,0
				c-53.453-28.074-45.592-23.946-51.936-27.275c-0.799-0.422-1.354-0.879-1.704-1.64c-0.124-0.258-0.167-0.491-0.167-0.733
				c0.082-0.075-0.027-0.021,0.274,0.138c4.938,2.607,3.695,1.924,4.518,2.373c0.418,0.221,0.996,0.173,1.59-0.138
				C337.561,258.211,381.507,281.29,383.232,282.195z"/>
			<path style="fill:#F2E2E0;" d="M329.47,128.15c0.205,0.796,1.049,1.494,1.825,1.903l51.936,27.282
				c2.487,1.308,6.518,1.322,9.027,0v124.861c-2.51,1.322-6.54,1.315-9.027,0c-1.724-0.906-45.67-23.984-47.427-24.901v-28.472
				l-4.51-2.366c-0.783,0.408-1.468,1.176-1.871,2.027C329.425,117.01,329.393,127.817,329.47,128.15z M371.847,194.684v-17.858
				l-26.915-14.143v17.858L371.847,194.684z"/>
			<polygon style="fill:#B8834A;" points="378.714,98.032 378.714,100.405 349.358,115.82 349.358,113.447 			"/>
			<polygon style="fill:#FDDF9E;" points="378.714,98.032 349.358,113.447 299.68,87.356 329.037,71.94 			"/>
			<path style="fill:#E8D0C8;" d="M371.847,176.826v17.858l-26.915-14.143v-17.858L371.847,176.826z M370.12,191.964
				c0-5.083,0-8.857,0-14.232c-24.272-12.752-20.367-10.699-23.462-12.33v14.232L370.12,191.964z"/>
			<polygon style="fill:#EAD0D7;" points="370.12,189.591 370.12,191.964 346.658,179.635 348.917,178.451 			"/>
			<polygon style="fill:#6F7BA6;" points="370.12,177.732 370.12,189.591 348.917,178.451 348.917,166.592 			"/>
			<path style="fill:#E6A45D;" d="M349.358,113.447v2.373l-1.445,0.761c-16.078-8.448-32.155-16.896-48.233-25.338v-3.888
				L349.358,113.447z"/>
			<polygon style="fill:#EAD0D7;" points="348.917,166.592 348.917,178.451 346.658,179.635 346.658,165.402 			"/>
			<path style="fill:#F3E948;" d="M347.913,116.582l-16.617,8.732c-0.479,0.249-0.943,0.553-1.285,0.962
				c-0.35,0.411-0.586,0.948-0.586,1.474c0,3.21,0,6.414,0,9.624l-4.343-2.276c0.312-0.166,0.631-0.325,0.943-0.491
				c0.373-0.194,0.707-0.65,0.707-1.425c0-0.055,0-0.118-0.008-0.173c0.152-0.076,0.297-0.152,0.449-0.228
				c1.086-0.587,0.096-2.899-1.171-3.48c-0.342-0.159-0.776-0.249-1.088-0.083c-0.152,0.083-0.289,0.159-0.441,0.235h-0.008
				c-0.068-0.048-0.137-0.083-0.213-0.118c-0.525-0.242-1.179-0.374-1.65-0.125c-0.441,0.228-0.882,0.464-1.323,0.692l0.008,0.007
				c-0.19,0.097-0.357,0.256-0.494,0.477c-0.38,0.602-0.266,1.598,0.182,2.553L299.68,121.75V91.244
				C315.758,99.685,331.835,108.133,347.913,116.582z"/>
			<path style="fill:#CCC9CB;" d="M329.037,230.012c0-1.258,0.96-2.88,2.259-3.556l4.51,2.366c-1.224,0.65-2.251,2.228-2.251,3.563
				v23.718c0,0.609,0.205,1.031,0.54,1.259c-1.468-0.761-2.928-1.529-4.396-2.304c-0.486-0.258-0.662-0.787-0.662-1.328
				C329.037,246.472,329.037,237.277,329.037,230.012z"/>
			<path style="fill:#CCC9CB;" d="M331.296,257.294l4.51,2.366c-1.247,0.657-2.251,2.242-2.251,3.563v23.718
				c0,0.519,0.171,1.098,0.662,1.322v0.007c-0.046-0.021-0.084-0.048-0.129-0.069c-4.198-2.208-4.599-2.369-4.7-2.553
				c-0.221-0.263-0.35-0.567-0.35-1.079V260.85C329.037,259.561,330.018,257.96,331.296,257.294z"/>
			<path style="fill:#C9B9C2;" d="M331.296,323.71l-4.518,2.373c0-4.148,0-2.954,0-7.12l2.647-1.384c0,1.252,0,2.505,0,3.757
				C329.425,322.081,329.971,323.032,331.296,323.71z"/>
			<path style="fill:#E6A45D;" d="M329.387,254.81c0.023,0.028,0.046,0.055,0.076,0.076l-0.038,0.035c0,0.806,0,2.588,0,3.356
				l-4.905,2.574v-4.746l4.518-2.373C329.037,254.243,329.166,254.547,329.387,254.81z"/>
			<path style="fill:#DCCC5B;" d="M329.425,317.579l-2.647,1.384v0.007l-2.259,1.183V260.85l4.905-2.574c0,0.346,0,0.692,0,1.038
				c-0.243,0.505-0.388,1.045-0.388,1.536v23.719c0,0.512,0.129,0.816,0.35,1.079C329.446,285.756,329.425,283.757,329.425,317.579z
				"/>
			<path style="fill:#E8E8E8;" d="M329.425,215.593c0,4.297,0,8.593,0,12.89c-0.243,0.505-0.388,1.031-0.388,1.529
				c0,0.71,0,1.055,0,2.221c-0.115,0.035-0.405,0.227-1.262,0.422c-0.082-0.139-0.19-0.289-0.19-0.311
				c0.152-0.201,0.297-0.408,0.418-0.623c0-0.007,0-0.007,0-0.007c1.376-2.157,1.452-5.307,1.034-7.777
				c-0.413-2.465-1.256-4.672-2.396-6.884C326.719,217.017,327.907,216.375,329.425,215.593z"/>
			<path style="fill:#DBD9DA;" d="M329.425,214.887c0,0.235,0,0.471,0,0.706c-0.913,0.471-1.825,0.955-2.738,1.432
				c0.278-0.168,0.274-0.595,0.099-0.865c-0.167-0.27-0.525-0.443-0.791-0.38c-0.015,0.007-0.038,0.007-0.053,0.021h-0.008v-0.007
				c1.164-0.616,2.327-1.225,3.491-1.833c0,0.007,0,0.014,0,0.021C329.181,214.188,329.189,214.59,329.425,214.887z"/>
			<path style="fill:#A39EA1;" d="M329.425,213.981c0,0.305,0,0.602,0,0.906C329.189,214.59,329.181,214.188,329.425,213.981z"/>
			<path style="fill:#E8E8E8;" d="M329.425,213.192c0,0.256,0,0.512,0,0.768c-1.164,0.609-2.327,1.218-3.491,1.833
				c-2.242-3.885-6.478-8.279-10.807-9.991c-1.921-0.804-3.713-1.031-4.974-0.92c-0.069-0.104-0.129-0.208-0.198-0.311v-0.007
				c1.962-1.785,4.438-2.039,7.103-1.411C322.159,204.43,326.885,209.097,329.425,213.192z"/>
			<path style="fill:#DBD9DA;" d="M329.425,212.106c0,0.36,0,0.727,0,1.086c-1.065-1.717-2.757-3.865-4.662-5.598l0.008-0.007
				c-0.277-0.44-6.257-9.861-6.677-10.524c0.299-0.181,1.046-0.551,1.194-0.637h0.008l0.281,0.152
				C319.62,196.649,328.978,211.4,329.425,212.106z"/>
			<path style="fill:#FADCA2;" d="M329.425,207.207c0,1.633,0,3.266,0,4.899c-0.639-1.01-1.285-2.027-1.924-3.037l0.844-0.443
				l-1.696-0.893c-2.358-3.716-4.715-7.438-7.073-11.153l4.647,2.442h0.008C325.956,201.748,327.69,204.474,329.425,207.207z"/>
			<path style="fill:#DBD9DA;" d="M329.425,204.391c0,0.941,0,1.882,0,2.816c-1.734-2.733-3.468-5.459-5.194-8.185h-0.008
				c-0.821-1.301-1.643-2.588-2.457-3.882c0.194-0.128,1.093-0.583,1.331-0.713c1.27,2,2.54,4.006,3.81,6.006h0.008
				C327.751,201.755,328.588,203.069,329.425,204.391z"/>
			<path style="fill:#FADCA2;" d="M329.425,201.748c0,0.886,0,1.764,0,2.643c-0.837-1.322-1.673-2.636-2.51-3.958L329.425,201.748z"
				/>
			<linearGradient id="SVGID_1_" gradientUnits="userSpaceOnUse" x1="295.5447" y1="129.0504" x2="297.9316" y2="176.3112">
				<stop  offset="0" style="stop-color:#D1C6C4"/>
				<stop  offset="1" style="stop-color:#F2E2E3"/>
			</linearGradient>
			<path style="fill:url(#SVGID_1_);" d="M323.097,194.428c-0.29,0.158-1.128,0.578-1.331,0.713
				c0.814,1.294,1.635,2.581,2.457,3.882l-4.647-2.442c-0.023-0.035-0.068-0.125-0.122-0.221l-0.145,0.055c0,0,0,0-0.008,0.007
				c-0.107,0,1.499,0.803-24.998-13.118c0-4.933,0-9.853,0-14.786c0-4.899-4.442-7.217-9.088-4.774
				c-0.631,0.332-1.262,0.664-1.901,1.003h-0.008c-3.369,1.771-6.084,5.604-6.7,9.258c-0.076,0,0.125,0.07-10.799-5.667v-10.974
				c1.113-0.009,2.163-0.389,2.844-1.225c0.076,0.035-0.683,0.007,31.03,0.007l20.899,10.98c0.129,1.37,1.247,3.155,2.738,3.729
				c0.46,0.181,0.952,0.248,1.377,0l0.008,0.014c1.374-0.733,1.282-0.665,1.483-0.796l3.24,1.695c0,9.998,0,19.989,0,29.98
				l-2.51-1.315h-0.008C325.637,198.434,324.367,196.427,323.097,194.428z"/>
			<path style="fill:#F3E948;" d="M329.425,164.655c0,2.373,0,4.746,0,7.113l-3.24-1.695c0.297-0.235,0.548-0.664,0.548-1.329
				c0-0.055,0-0.111-0.008-0.166c0.152-0.076,0.297-0.159,0.449-0.235c1.095-0.592,0.09-2.895-1.171-3.473
				c-0.342-0.159-0.776-0.249-1.088-0.083c-0.145,0.076-0.289,0.152-0.434,0.228c-0.487-0.295-1.34-0.528-1.878-0.235
				c-0.434,0.228-0.875,0.45-1.308,0.685v0.007c0,0-0.008-0.007-0.008,0h-0.008c-0.457,0.266-0.787,0.776-0.7,1.654l-20.899-10.98
				V121.75l21.295,11.188c0.479,1.003,1.323,1.965,2.342,2.352c0.475,0.177,0.947,0.244,1.377-0.007l0.008,0.014
				c0.129-0.069,0.251-0.132,0.38-0.201l4.343,2.276c0,2.062,0,4.117,0,6.172l-24.55-12.897v21.11L329.425,164.655z"/>
			<path style="fill:#564D3C;" d="M329.425,143.545c0,7.037,0,14.073,0,21.11l-24.55-12.897v-21.11L329.425,143.545z"/>
			<path style="fill:#F2F2F2;" d="M327.576,232.351c-0.266,0.333-0.465,0.579-0.837,0.906c-0.039,0.044-0.182,0.162-0.236,0.201
				h-0.008v0.007c-0.718,0.566-1.555,0.966-2.365,1.162c-2.578-4.061-5.156-8.13-7.735-12.198c9.886-5.18,10.168-5.376,10.244-5.376
				c2.389,4.637,4.026,11.01,0.943,15.291c0,0.007,0,0.007,0,0.007H327.576z"/>
			<path style="fill:#FADCA2;" d="M221.232,236.267l1.506-0.789l-10.229-5.376c-1.614-0.843-4.346-1.002-6.396,0.035v0.104
				c14.429,7.573,13.393,6.999,13.393,7.085c0,0.062,0.023,0.104,0.068,0.132h0.008c2.502,1.322,5.012,2.636,7.522,3.958
				c0.008,0,0.008,0.007,0.015,0.007c0.087,0.047,0.2-0.035,0.517-0.201c0.213-0.118,0.373-0.284,0.373-0.478
				c0-0.214,0-0.429,0-0.643c0-0.166-0.114-0.339-0.373-0.47C227.463,239.539,221.374,236.343,221.232,236.267z M329.037,237.249
				v16.481l-4.518,2.373l-36.133-18.979c-15.051,0-30.102,0-45.16,0l-47.419,24.908l-54.188-28.465
				c9.912-5.208,9.469-5.023,9.469-4.954c3.761,1.971,15.739,8.271,17.758,9.334l17.439-9.161v-1.557l-6.647-3.487v-4.74
				l1.392,0.727c0.971,0.522,2.325,0.596,3.422,0.381c0.809-0.156-0.407,0.404,16.313-8.372c0.453-0.232,0.7-0.494,0.852-0.816
				c0.114-0.267,0.084-0.109,0.084-2.262h1.498l44.179,23.206h36.855l21.173-11.153c0.149,0.374,0.964,2.079,1.232,2.498
				c0.402,0.768,0.847,1.425,1.255,2.062c-0.791,0.415-1.582,0.83-2.373,1.245v-0.007c-1.331,0.706-0.646,2.906,0.799,3.667
				c5.757,3.024,11.507,6.047,17.256,9.064c1.574,0.83,3.073-0.664,1.856-2.567c-0.099-0.159-0.198-0.311-0.297-0.471
				c0.707,0.374,1.407,0.74,2.114,1.114v-0.007C327.934,237.678,328.611,237.588,329.037,237.249z M215.764,241.428
				c0-0.346,0-0.699,0-1.045h-0.008c0.008-0.554-0.487-1.121-1.582-1.453l-11.066-3.356c-1.019-0.311-2.221-0.318-3.4,0.069
				c-0.373,0.118-0.7,0.305-0.966,0.547l-12.769,11.617v1.052l16.595,5.03l12.769-11.624
				C215.649,241.989,215.764,241.684,215.764,241.428z"/>
			<path style="fill:#CCC9CB;" d="M329.037,234.634v2.615c-0.426,0.339-1.103,0.429-1.787,0.062v0.007
				c-0.707-0.374-1.407-0.74-2.114-1.114c-0.335-0.526-0.669-1.052-1.004-1.578c0.232-0.056,0.462-0.134,0.685-0.214
				c1.065,0.554,2.114,1.107,3.179,1.661c0,0.069-0.008,0.125-0.023,0.152c0,0,0.008-0.007,0.015-0.014
				c0.023-0.028,0.068-0.055,0.114-0.069c0.068-0.01,0.041,0.015-0.076-0.048c-0.008-0.007-0.023-0.014-0.03-0.021
				c-0.019-0.381-0.177-0.548-1.498-2.608c0.008,0,0.008-0.007,0.008-0.007c0.288-0.21,0.855-0.8,1.08-1.107
				C327.707,232.56,328.702,234.103,329.037,234.634z"/>
			<path style="fill:#FADCA2;" d="M329.037,232.766v1.868c-0.418-0.664-0.844-1.315-1.262-1.979
				c0.208-0.047,0.485-0.116,0.684-0.194C328.649,232.565,328.839,232.669,329.037,232.766z"/>
			<path style="fill:#CCC9CB;" d="M329.037,232.233v0.533c-0.198-0.097-0.388-0.201-0.578-0.304c0.039-0.009,0.311-0.105,0.51-0.201
				C328.991,232.254,329.014,232.24,329.037,232.233z"/>
			<path style="fill:#FDDF9E;" d="M329.037,71.94L299.68,87.356c-22.58,0-45.16,0-67.74,0l-28.231-16.011l62.097-32.616
				L329.037,71.94z"/>
			<path style="fill:#F3E1E0;" d="M328.345,208.625l-0.844,0.443c-0.281-0.443-0.57-0.893-0.852-1.335L328.345,208.625z"/>
			<path style="fill:#FADCA2;" d="M327.767,235.45c0.152,0.242,0.221,0.471,0.228,0.623c-1.065-0.553-2.114-1.107-3.179-1.661
				c0.091-0.038,0.525-0.184,1.004-0.484c0.223-0.122,0.5-0.324,0.677-0.464C326.922,234.129,327.341,234.786,327.767,235.45z"/>
			<path style="fill:#A6512C;" d="M327.173,132.779c-0.152,0.076-0.297,0.152-0.449,0.228c-0.073-1.266-1.153-2.96-2.251-3.556
				c0.152-0.076,0.289-0.152,0.441-0.235c0.312-0.166,0.745-0.076,1.088,0.083C327.284,129.887,328.25,132.197,327.173,132.779z"/>
			<path style="fill:#A6512C;" d="M327.173,168.343c-0.152,0.076-0.297,0.159-0.449,0.235c-0.075-1.312-1.186-2.968-2.244-3.563
				c0.145-0.076,0.289-0.152,0.434-0.228c0.312-0.166,0.745-0.076,1.088,0.083C327.285,165.458,328.25,167.761,327.173,168.343z"/>
			<path style="fill:#A39EA1;" d="M326.785,216.16c0.175,0.269,0.179,0.696-0.099,0.865c-0.018,0.017-0.058,0.035-0.061,0.035
				c-0.737,0.319-1.472-0.756-0.783-1.218c0-0.008,0.078-0.042,0.091-0.042h0.008c0.015-0.014,0.038-0.014,0.053-0.021
				C326.261,215.717,326.618,215.89,326.785,216.16z"/>
			<polygon style="fill:#E5D2DB;" points="326.778,318.97 326.778,326.083 288.386,305.921 288.386,301.174 324.519,320.153 			"/>
			<path style="fill:#A6512C;" d="M324.702,135.298l-0.008-0.014c0.427-0.23,0.739-0.672,0.723-1.411
				c-0.076-2.415-2.7-4.74-4.13-3.965l-0.008-0.007c0.441-0.228,0.882-0.464,1.323-0.692c0.471-0.249,1.126-0.118,1.65,0.125
				c0.076,0.035,0.145,0.069,0.213,0.118h0.008c1.115,0.606,2.259,2.381,2.259,3.729c0,0.775-0.335,1.232-0.707,1.425
				C325.766,134.743,325.213,135.024,324.702,135.298z"/>
			<path style="fill:#A6512C;" d="M324.481,165.015c1.609,0.905,3.087,3.96,1.704,5.058c-0.187,0.121-0.666,0.36-1.483,0.796
				l-0.008-0.014c0.549-0.296,0.736-0.835,0.723-1.418c-0.076-2.422-2.7-4.74-4.122-3.965v-0.007
				c0.434-0.235,0.875-0.457,1.308-0.685C323.143,164.486,323.997,164.721,324.481,165.015z"/>
			<path style="fill:#DBD9DA;" d="M316.397,222.429c13.171,20.785,7.655,12.025,9.035,14.246c1.217,1.903-0.281,3.397-1.856,2.567
				c-5.75-3.017-11.499-6.04-17.256-9.064c-1.445-0.761-2.13-2.961-0.799-3.667v0.007c5.112-2.683,4.49-2.363,8.754-4.601
				c0-0.07-9.611-15.116-10.868-17.139c0.039-0.023,0.122-0.069,0.16-0.09v-0.007c0.024,0,1.066-0.558,1.087-0.567
				c0.184,0-0.991-1.722,10.967,17.097c3.415-1.792,6.814-3.577,10.221-5.369c-0.491,0.329-0.257,1.042,0.251,1.225
				c0.167,0.062,0.373,0.062,0.532-0.007C323.219,218.852,319.804,220.644,316.397,222.429z M315.051,223.135
				c-6.059,3.196-7.526,3.947-8.685,4.567c0-0.014,0.008-0.021,0.008-0.028c0,0-0.008,0.007-0.015,0.021
				c-0.015,0.014-0.038,0.028-0.061,0.042c0.023-0.014,0.046-0.021,0.068-0.035c-0.099,0.298,0.281,1.024,0.73,1.259
				c5.734,3.01,11.484,6.027,17.218,9.043c0.015,0.069,0.008,0.118-0.008,0.152c0,0,0-0.007,0.008-0.014
				c0.03-0.035,0.076-0.062,0.122-0.069c0.008,0,0.008,0,0.015-0.007c-0.082-0.025-0.082-0.037-0.137-0.062
				C324.292,237.558,324.867,238.612,315.051,223.135z"/>
			<path style="fill:#F2F2F2;" d="M325.934,215.793c-0.008,0-0.015,0.007-0.023,0.014c-0.076,0.023,0.374-0.192-10.29,5.404
				c-3.126-4.919-6.244-9.839-9.362-14.758c1.389-1.218,3.115-1.679,5.08-1.577c5.56,0.421,10.457,4.972,13.515,9.244
				C325.104,214.461,325.632,215.27,325.934,215.793z"/>
			<path style="fill:#B7674B;" d="M325.417,169.436c0.013,0.583-0.173,1.122-0.723,1.418c-0.425,0.248-0.917,0.181-1.377,0
				c-2.077-0.8-3.276-3.749-2.525-4.906c0.137-0.221,0.297-0.367,0.487-0.477h0.008c0-0.007,0.008,0,0.008,0
				C322.717,164.696,325.34,167.014,325.417,169.436z"/>
			<path style="fill:#B7674B;" d="M325.417,133.872c0.017,0.74-0.296,1.181-0.723,1.411c-0.43,0.251-0.902,0.184-1.377,0.007
				c-2.002-0.761-3.304-3.672-2.525-4.906C321.95,128.513,325.33,131.124,325.417,133.872z"/>
			<path style="fill:#F3E1E0;" d="M323.972,206.321c0.266,0.422,0.532,0.844,0.798,1.266l-0.008,0.007
				c-1.511-1.408-2.751-2.204-4.213-3.065L323.972,206.321z"/>
			<path style="fill:#F3E948;" d="M324.519,260.85v59.303l-36.133-18.979c0-7.247,0-52.08,0-59.303L324.519,260.85z M301.711,256.18
				c0.396-0.208,0.494-0.727,0.456-1.176c-0.068-0.761-0.685-1.723-1.361-2.152c-0.411-0.256-0.951-0.436-1.346-0.228
				c-0.152,0.076-0.304,0.152-0.449,0.235c-0.593-0.332-1.323-0.533-1.871-0.242c-0.441,0.228-0.875,0.457-1.316,0.692l0.008,0.007
				c-0.399,0.204-0.748,0.695-0.715,1.418c0.068,2.436,2.7,4.747,4.122,3.958l0.008,0.007c0.441-0.228,0.882-0.457,1.316-0.692
				c0.548-0.284,0.723-0.962,0.7-1.591h0.008C301.414,256.339,301.566,256.256,301.711,256.18z"/>
			<polygon style="fill:#E6A45D;" points="324.519,256.104 324.519,260.85 288.386,241.871 288.386,237.125 			"/>
			<path style="fill:#FADCA2;" d="M324.093,237.381c0.152,0.235,0.213,0.47,0.221,0.623c-5.734-3.017-11.484-6.033-17.218-9.043
				c-0.449-0.235-0.829-0.962-0.73-1.259c0.738-0.394,1.483-0.782,2.221-1.169c0.213,0.678,0.738,1.37,1.407,1.723
				c0.145,0.076,0.281,0.145,0.426,0.221c2.153,2.315,4.676,4.371,7.75,5.57c0.076,0.023,0.748,0.29,1.308,0.429
				c1.214,0.33,2.355,0.423,3.012,0.381C323.029,235.7,323.561,236.537,324.093,237.381z"/>
			<path style="fill:#FADCA2;" d="M318.093,197.064c1.962,3.093,3.917,6.179,5.879,9.258c-4.164-2.18-2.833-1.483-4.662-2.442
				c-1.186-1.868-2.373-3.736-3.552-5.597c-0.957,0.49-1.034,0.564-1.354,0.692l0.008,0.014c0.738,1.162,1.468,2.318,2.206,3.473
				c-10.696-5.611-18.054-9.451-18.131-9.521c0.57-0.477,1.042-1.252,1.065-2.034c0.015-0.553-0.297-0.858-0.631-0.941h-0.008
				c0-0.014,0.008-0.021,0.008-0.035c0.21-0.93,0.145-2.061-0.753-2.546v-0.007c-1.293-0.678-2.578-1.356-3.863-2.027
				c0-0.685,0-1.363,0-2.048l24.983,13.125C319.08,196.547,318.404,196.875,318.093,197.064z"/>
			<path style="fill:#F2F2F2;" d="M315.051,223.135c2.479,3.909,4.959,7.812,7.438,11.721c-0.106,0.007-0.213,0.007-0.312,0.007
				c-5.216,0-10.515-4.487-13.439-8.407C310.845,225.349,312.951,224.242,315.051,223.135z"/>
			<path style="fill:#DBD9DA;" d="M319.34,203.927c-0.753-0.332-1.513-0.602-2.289-0.789c-0.039-0.062-2.611-4.101-2.647-4.165
				c0.33-0.131,0.951-0.486,1.354-0.692C319.879,204.788,319.286,203.829,319.34,203.927z"/>
			<path style="fill:#F3E1E0;" d="M316.617,202.461c0.145,0.228,0.289,0.45,0.434,0.678c-0.991-0.251-2.22-0.358-3.27-0.256
				c-0.167-0.274,0.389,0.623-1.65-2.609h0.319L316.617,202.461z"/>
			<path style="fill:#F2F2F2;" d="M314.275,221.917c-2.122,1.114-4.251,2.235-6.381,3.356c-0.434-0.677-0.851-1.289-1.255-2.062
				c-0.344-0.536-1.125-2.223-1.506-3.176c-0.959-2.559-1.677-5.497-1.331-8.358c0.151-1.42,0.574-2.84,1.414-4.048
				C314.401,222.109,314.275,221.847,314.275,221.917z"/>
			<path style="fill:#DBD9DA;" d="M313.78,202.883c-0.444,0.04-1.096,0.17-1.574,0.339c-0.487-0.768-0.973-1.529-1.46-2.297
				c0.263-0.16,0.098-0.057,1.217-0.65c0.024,0,0.104,0,0.167,0C313.838,202.98,313.763,202.853,313.78,202.883z"/>
			<path style="fill:#F3E1E0;" d="M310.746,200.924c0.487,0.768,0.973,1.529,1.46,2.297c-0.884,0.3-1.592,0.742-2.251,1.342
				c-0.509-0.803-1.027-1.605-1.529-2.408c-0.209,0.078-0.043,0.008-0.555,0.27c-0.038,0.014-0.068,0.035-0.091,0.048
				c-0.122,0.069-0.333,0.169-0.707,0.374c0.297,0.47,0.593,0.934,0.89,1.405l-18.199-9.562l0.799-1.259
				c0.753,0.367,1.962,0.374,2.761,0.083c0.236,0.125,0.471,0.249,0.707,0.374c0.365,0.194,0.829,0.235,1.376,0.104
				c0.555-0.138,1.019-0.443,1.437-0.782c0.061,0.035,0.122,0.062,0.182,0.097c0.008,0,0.008,0.007,0.015,0.007
				c0.403,0.228,0.958,0.041,1.445-0.374c0.076,0.069-0.153-0.077,13.484,7.085c0.176,0.288,0.141,0.218,0.152,0.249
				c-0.047,0-0.114,0-0.16,0C310.938,200.818,310.977,200.784,310.746,200.924z"/>
			<path style="fill:#DBD9DA;" d="M310.419,228.476c-0.145-0.076-0.281-0.145-0.426-0.221c-0.669-0.353-1.194-1.045-1.407-1.723
				c0.053-0.028,0.107-0.055,0.152-0.076C309.521,227.505,310.229,228.256,310.419,228.476z"/>
			<path style="fill:#DBD9DA;" d="M309.955,204.571c0.069,0.104,0.129,0.207,0.198,0.311c-0.408,0.032-0.493,0.062-0.57,0.062
				C309.775,204.744,309.764,204.745,309.955,204.571z"/>
			<path style="fill:#DBD9DA;" d="M309.955,204.571c-0.191,0.174-0.18,0.173-0.373,0.374c-0.077,0.018-0.592,0.093-1.034,0.235
				c-0.143-0.234-1.17-1.848-1.475-2.332c0.34-0.186,0.551-0.285,0.707-0.374c0.023-0.014,0.053-0.035,0.091-0.048
				c0.517-0.265,0.349-0.193,0.555-0.27C310.209,205.006,309.955,204.498,309.955,204.571z"/>
			<path style="fill:#D8CCBE;" d="M304.745,204.073c-0.209,0.095-0.299,0.16-0.685,0.353c-0.016,0.008-0.476,0.256-0.494,0.256
				v0.007c-0.038,0.021-0.12,0.067-0.16,0.09c0.593,0.955,1.209,1.896,1.81,2.851c-0.725,1.042-0.909,1.841-0.966,1.944
				c-0.257,0.763-0.415,1.621-0.449,2.103c-0.149,1.229-0.066,2.76,0.046,3.39c0,0.042,0,0.076,0.008,0.118h-0.008l-3.012,1.591
				c-0.076,0,0.113,0.063-35.03-18.405c0-6.347,0-13.441,0-16.26c28.757,15.099,19.255,10.109,42.156,22.141
				c0.198,0.311,0.395,0.616,0.586,0.927c-0.784,0.267-1.499,0.58-2.289,1.273C305.749,205.657,305.247,204.868,304.745,204.073z"/>
			<path style="fill:#EDE4DB;" d="M305.407,220.713l-21.173,11.153h-36.855L203.2,208.66l62.607-32.886l10.663,5.597
				c0,0.719,0,1.446,0,2.166c0,0.325,0.297,0.623,0.616,0.809c1.103,0.657,3.546,0.389,3.841-0.63l4.578,2.401
				c0,0.077-0.302,0.522-0.38,1.377c-0.076,0.823,0.107,1.771,0.829,2.152c1.285,0.678,2.578,1.356,3.863,2.027
				c0,0.291,0,0.588,0,0.879c0,0.376,0.381,0.689,0.745,0.879l-0.799,1.259l-23.957-12.579l-50.545,26.548
				c18.837,9.903-14.138-7.427,35.646,18.73h29.782c23.716-12.499,23.088-12.205,23.166-12.205
				C304.056,216.783,304.615,218.884,305.407,220.713z"/>
			<path style="fill:#A6512C;" d="M302.167,255.004c0.038,0.45-0.061,0.969-0.456,1.176c-0.144,0.076-0.297,0.159-0.441,0.235
				h-0.008c0-1.137-0.97-2.828-2.251-3.556c0.145-0.083,0.297-0.159,0.449-0.235c0.396-0.208,0.936-0.028,1.346,0.228
				C301.483,253.281,302.099,254.243,302.167,255.004z"/>
			<path style="fill:#A6512C;" d="M301.262,256.415c0.023,0.63-0.152,1.308-0.7,1.591c-0.434,0.235-0.875,0.464-1.316,0.692
				l-0.008-0.007c0.19-0.097,0.357-0.249,0.494-0.47c0.243-0.38,0.251-0.844,0.198-1.28c-0.304-2.332-2.753-4.373-4.099-3.626
				l-0.008-0.007c0.441-0.235,0.875-0.464,1.316-0.692c0.615-0.327,1.477-0.024,2.046,0.346
				C300.299,253.668,301.262,255.278,301.262,256.415z"/>
			<path style="fill:#EDE4DB;" d="M300.829,216.776L280.69,227.39h-29.782l-20.162-10.593l35.06-18.425L300.829,216.776z
				 M282.013,215.288c0.274-0.415,0.38-0.955,0.236-1.418c-0.137-0.457-0.532-0.844-0.958-1.142
				c-2.654-1.82-7.727-1.073-8.845,0.699c-1.772,2.775,4.426,4.788,8.396,2.83C281.321,216.015,281.747,215.71,282.013,215.288z"/>
			<path style="fill:#B7674B;" d="M299.931,256.941c0.053,0.436,0.046,0.9-0.198,1.28c-1.143,1.849-4.538-0.692-4.616-3.487
				c-0.033-0.717,0.31-1.212,0.715-1.418C297.178,252.568,299.627,254.609,299.931,256.941z"/>
			<path style="fill:#DCCF3D;" d="M299.68,121.75v34.395c-31.715,0-30.953,0.028-31.03-0.007c0.63-0.778,0.525-1.291,0.525-2.304
				c0-0.72-0.487-1.439-1.141-1.896c-1.232-0.865-3.331-0.865-4.563,0c-0.654,0.457-1.141,1.176-1.141,1.896
				c0,0.332,0,0.657,0,0.982c0,0.464,0.205,0.927,0.525,1.322c-0.076,0.035,0.679,0.007-30.915,0.007V121.75H299.68z
				 M291.056,149.744v-21.587h-50.499v21.587H291.056z"/>
			<path style="fill:#DCCF3D;" d="M299.68,91.244v30.506h-67.74V91.244C254.52,91.244,277.1,91.244,299.68,91.244z M269.176,119.1
				v-0.976c0-0.719-0.487-1.439-1.141-1.896c-1.232-0.865-3.331-0.865-4.563,0c-0.654,0.457-1.141,1.176-1.141,1.896
				c0,0.325,0,0.65,0,0.976c0,0.72,0.487,1.439,1.141,1.896c1.232,0.865,3.331,0.865,4.563,0
				C268.689,120.539,269.176,119.82,269.176,119.1z"/>
			<path style="fill:#E6A45D;" d="M299.68,87.356v3.888c-22.58,0-45.16,0-67.74,0v-3.888C254.52,87.356,277.1,87.356,299.68,87.356z
				"/>
			<path style="fill:#CCC9CB;" d="M298.92,189.965c0.335,0.083,0.646,0.388,0.631,0.941c-0.023,0.782-0.494,1.557-1.065,2.034
				c-0.487,0.415-1.042,0.602-1.445,0.374c-0.008,0-0.008-0.007-0.015-0.007c-0.385-0.25-0.457-0.633-0.395-1.059
				c0.19-1.446,1.567-2.442,2.282-2.283H298.92z"/>
			<path style="fill:#CCC9CB;" d="M298.92,189.93c-0.593-0.311-1.194-0.623-1.787-0.934c-0.487-0.256-1.126,0.076-1.536,0.443
				c-0.965-0.693-0.878-0.633-0.973-0.685c0.798-0.906,2.205-1.882,3.361-1.46C299.04,187.774,299.158,188.874,298.92,189.93z"/>
			<path style="fill:#A39EA1;" d="M298.912,189.965c-0.715-0.159-2.092,0.837-2.282,2.283c-0.052,0.36-0.015,0.667,0.243,0.941
				c-0.008,0.007-0.023,0.014-0.03,0.021c-0.593-0.311-1.194-0.623-1.787-0.941c-0.167-0.083-0.289-0.249-0.358-0.422
				c-0.182-0.464,0.008-1.128,0.251-1.578c0.195,0.142,0.718,0.522,0.913,0.664l0.023-0.021c0.408,0.093,0.846-0.499,0.639-0.782
				l0.015-0.021c-0.312-0.214-0.631-0.45-0.943-0.671c0.411-0.367,1.049-0.699,1.536-0.443
				C299.152,190.056,298.912,189.896,298.912,189.965z"/>
			<path style="fill:#DBD9DA;" d="M285.953,185.308c0.418-0.657,0.913-1.273,1.673-1.751c0.647-0.415,1.498-0.72,2.19-0.526
				c0,0.879,0,1.764,0,2.643c0,0.519,0.312,0.996,0.875,1.183c0.852,0.277,2.175-0.173,2.951-0.581
				c0.777-0.411,0.662-0.546,0.662-0.927c1.285,0.671,2.57,1.349,3.863,2.027v0.007c-0.053-0.035-0.122-0.062-0.182-0.09
				c-1.156-0.422-2.563,0.553-3.361,1.46c-0.695-0.211-1.008,0.494-0.616,0.83c-0.563,0.9-1.072,2.318-0.753,3.314
				c0.152,0.464,0.418,0.803,0.776,0.989c-1.452-0.767-6.299-3.304-8.077-4.241c-0.723-0.38-0.905-1.328-0.829-2.152
				C285.182,186.855,285.398,186.18,285.953,185.308z"/>
			<path style="fill:#CCC9CB;" d="M295.056,192.269c0.593,0.318,1.194,0.63,1.787,0.941c-0.418,0.339-0.882,0.643-1.437,0.782
				c-1.074,0.258-1.843-0.15-2.152-1.093c-0.319-0.996,0.19-2.415,0.753-3.314c0.056,0.051,0.881,0.641,0.943,0.685
				c-0.243,0.45-0.434,1.114-0.251,1.578C294.767,192.02,294.889,192.186,295.056,192.269z"/>
			<path style="fill:#CCC9CB;" d="M296.524,190.131c0.207,0.282-0.23,0.875-0.639,0.782l-0.023,0.021
				c-0.025-0.018-1.833-1.329-1.856-1.349c-0.388-0.332-0.076-0.955,0.479-0.865c0.271,0.041,0.227,0.135,2.053,1.391
				L296.524,190.131z"/>
			<path style="fill:#CCC9CB;" d="M294.303,185.668c0,0.071,0.007,0.256-0.662,0.609c-0.776,0.408-2.099,0.858-2.951,0.581
				c-0.563-0.187-0.875-0.664-0.875-1.183c0-6.191,0-11.332,0-17.159c0-0.547-0.129-1.522-0.684-1.654
				c-0.479-0.111-1.217,0.173-1.673,0.415c-0.631,0.332-1.27,0.664-1.909,1.003c-2.456,1.287-4.594,4.656-4.594,7.244
				c0,8.326,0.018,8.074-0.03,8.192c-0.293,1.014-2.732,1.289-3.841,0.63c-0.319-0.187-0.616-0.484-0.616-0.809
				c0-8.675-0.049-8.49,0.137-9.534c0.616-3.653,3.331-7.486,6.7-9.258h0.008c0.639-0.339,1.27-0.671,1.901-1.003
				c4.647-2.442,9.088-0.125,9.088,4.774C294.303,172.396,294.303,181.655,294.303,185.668z"/>
			<path style="fill:#A39EA1;" d="M289.816,191.674c1.171,0.616,2.335,1.232,3.506,1.84c-0.799,0.291-2.008,0.284-2.761-0.083
				c-0.365-0.19-0.745-0.503-0.745-0.879C289.816,192.262,289.816,191.964,289.816,191.674z"/>
			<rect x="240.557" y="128.157" style="fill:#564D3C;" width="50.499" height="21.587"/>
			<path style="fill:#FADCA2;" d="M289.816,180.942c0,0.699,0,1.391,0,2.09c-0.692-0.194-1.544,0.111-2.19,0.526
				c-0.76,0.477-1.255,1.093-1.673,1.751c-0.167,0.263-0.319,0.526-0.449,0.809l-4.578-2.401c0.047-0.115,0.03,0.285,0.03-7.424
				L289.816,180.942z"/>
			<path style="fill:#F2E2E3;" d="M289.816,168.516c0,4.145,0,8.282,0,12.427l-8.86-4.65c0-0.256,0-0.512,0-0.768
				c0-2.588,2.137-5.957,4.594-7.244c0.639-0.339,1.278-0.671,1.909-1.003c0.456-0.242,1.194-0.526,1.673-0.415
				C289.687,166.994,289.816,167.969,289.816,168.516z"/>
			<path style="fill:#E5D2DB;" d="M288.386,301.174v4.747c-15.051,0-30.102,0-45.16,0v-4.747
				C258.285,301.174,273.336,301.174,288.386,301.174z"/>
			<path style="fill:#DCCF3D;" d="M288.386,301.174c-15.051,0-30.102,0-45.16,0c0-4.913,0-34.267,0-39.141l1.726-0.906v-7.113
				l-1.726-0.913v-11.23c15.058,0,30.109,0,45.16,0C288.386,249.094,288.386,293.927,288.386,301.174z"/>
			<path style="fill:#E6A45D;" d="M288.386,237.125v4.746c-15.051,0-30.102,0-45.16,0v-4.746
				C258.285,237.125,273.336,237.125,288.386,237.125z"/>
			<path style="fill:#A38B82;" d="M282.249,213.87c0.145,0.464,0.038,1.003-0.236,1.418c-0.266,0.422-0.692,0.727-1.171,0.969
				c-3.97,1.958-10.168-0.055-8.396-2.83c1.118-1.771,6.191-2.518,8.845-0.699C281.717,213.026,282.112,213.413,282.249,213.87z"/>
			<path style="fill:#FADCA2;" d="M276.606,174.003c-0.181,1.016-0.137,0.985-0.137,7.369l-10.663-5.597L203.2,208.66h-1.498
				c0-6.089,0.006-5.513-0.015-5.826c-0.032-0.532-0.122-0.691-0.122-0.761c0.076,0-0.766,0.406,64.242-33.737
				C277.156,174.296,276.525,174.003,276.606,174.003z"/>
			<path style="fill:#EAE8E8;" d="M272.583,35.089c-22.198,11.649-25.865,13.6-234.836,123.352l-6.776-3.556
				c1.187-0.628,233.824-122.821,234.836-123.352L272.583,35.089z"/>
			<path style="fill:#B7674B;" d="M269.176,153.834v0.982c0-0.719-0.487-1.439-1.141-1.896c-1.232-0.865-3.331-0.865-4.563,0
				c-0.654,0.457-1.141,1.176-1.141,1.896c0-0.325,0-0.65,0-0.982c0-0.72,0.487-1.439,1.141-1.896c1.232-0.865,3.331-0.865,4.563,0
				C268.689,152.394,269.176,153.114,269.176,153.834z"/>
			<path style="fill:#B7674B;" d="M269.176,118.124v0.976c0-0.72-0.487-1.439-1.141-1.896c-1.232-0.865-3.331-0.865-4.563,0
				c-0.654,0.457-1.141,1.176-1.141,1.896c0-0.325,0-0.65,0-0.976c0-0.719,0.487-1.439,1.141-1.896c1.232-0.865,3.331-0.865,4.563,0
				C268.689,116.685,269.176,117.405,269.176,118.124z"/>
			<path style="fill:#A6512C;" d="M265.806,157.362c-2.217,0.018-3.476-1.403-3.476-2.546c0-0.719,0.487-1.439,1.141-1.896
				c1.232-0.865,3.331-0.865,4.563,0c0.654,0.457,1.141,1.176,1.141,1.896c0,0.742-0.545,1.494-1.141,1.896
				C267.434,157.134,266.62,157.355,265.806,157.362z"/>
			<path style="fill:#A6512C;" d="M268.035,117.204c0.654,0.457,1.141,1.176,1.141,1.896c0,0.72-0.487,1.439-1.141,1.896
				c-1.232,0.865-3.331,0.865-4.563,0c-0.654-0.457-1.141-1.176-1.141-1.896c0-0.72,0.487-1.439,1.141-1.896
				C264.704,116.339,266.803,116.339,268.035,117.204z"/>
			<path style="fill:#D8CCBE;" d="M265.806,198.371l-35.06,18.425c-0.076,0,0.276,0.149-15.484-8.137l50.545-26.548
				C265.806,184.968,265.806,191.996,265.806,198.371z"/>
			
				<linearGradient id="SVGID_00000052093142410011888300000012817372166243519883_" gradientUnits="userSpaceOnUse" x1="198.041" y1="239.126" x2="168.9207" y2="175.6344">
				<stop  offset="0" style="stop-color:#D1C6C4"/>
				<stop  offset="1" style="stop-color:#F2E2E3"/>
			</linearGradient>
			<path style="fill:url(#SVGID_00000052093142410011888300000012817372166243519883_);" d="M202.264,172.64
				c0.008,0.028,0.023,0.048,0.038,0.069c1.171,1.854,4.487-0.685,4.617-3.425c0.076,0-0.273,0.147,25.021-13.139
				c31.598,0,30.839,0.028,30.915-0.007c0.701,0.86,1.788,1.234,2.951,1.225v10.974c-65.023,34.151-64.166,33.737-64.242,33.737
				c-0.263-1.226-1.119-2.24-2.122-2.747c-6.416-3.383-5.899-3.141-6.434-3.28v-1.536c0-0.363-0.153-0.569-0.327-0.664
				c-0.021-0.013-0.663-0.352-0.92-0.491c-0.169-0.077-0.388-0.09-0.608-0.007c-0.117,0.036,0.455-0.256-8.404,4.394
				c-0.506,0.272-0.86,0.763-1.034,1.259c-0.125,0.316-0.099,0.34-0.099,2.173c-1.295,0.683-2.369,1.192-3.08,1.785
				c-1.134-2.423-3.139-4.889-5.673-6.206l-4.335-2.283l-17.439,9.161c0,3.721,0,15.311,0,24.964
				c-55.288,29.048-31.678,16.642-38.825,20.397v-4.746c-6.026-3.166-1.409-0.741-22.58-11.859v-1.515l22.322-11.728
				c0.125,0.137,0.089,0.119,1.597,0.9l0.008-0.007c1.422,0.768,4.008-1.494,4.115-3.902c0.076,0,83.399-43.777,83.476-43.846
				C201.468,172.58,201.877,172.679,202.264,172.64z"/>
			<path style="fill:#F2E2E3;" d="M141.612,103.961c0,16.601,0,40.78,0,57.4l-5.871-4.414v-37.951l-11.446-6.013
				C265.806,38.646,265.806,38.646,141.612,103.961z"/>
			<path style="fill:#CCC9CB;" d="M244.953,254.014v7.113c-2.677,1.405-42.237,22.188-44.096,23.165v-7.12L244.953,254.014z"/>
			<path style="fill:#A39EA1;" d="M244.953,254.014l-44.096,23.158l-3.392-1.778l1.84-0.962l2.259,1.183
				c0.145-0.076,40.301-21.171,40.422-21.234l-2.259-1.183l1.84-0.969C243.656,253.327,242.881,252.918,244.953,254.014z"/>
			<path style="fill:#C9B9C2;" d="M243.226,301.174v4.747l-103.865,54.556v-4.746C172.113,338.517,78.906,387.489,243.226,301.174z"
				/>
			<path style="fill:#DCCC5B;" d="M243.226,301.064c0,0.172,2.338-1.117-47.419,25.019v-39.141l2.221-1.169v-2.968l2.829,1.488
				l42.369-22.259V301.064z"/>
			<path style="fill:#DCCC5B;" d="M243.226,241.871v11.23l-1.658-0.872l-1.84,0.969v2.366c0,0.07,0.337-0.17-38.163,20.051
				l-2.259-1.183l-1.84,0.962v2.968l-1.658-0.872V266.78L243.226,241.871z M224.631,259.466v-6.075l-10.739,5.639v6.075
				L224.631,259.466z"/>
			<path style="fill:#E6A45D;" d="M243.226,237.125v4.746l-47.419,24.909c0-1.862,0-3.972,0-4.746L243.226,237.125z"/>
			<polygon style="fill:#878184;" points="241.987,254.381 239.728,255.564 239.728,253.198 			"/>
			<path style="fill:#F5F1F2;" d="M234.199,462.478v7.12L30.97,362.85v-7.12C31.457,355.987,219.481,454.747,234.199,462.478z"/>
			<path style="fill:#DCCC5B;" d="M202.492,137.221c0.091,0.097,0.198,0.173,0.304,0.235c1.103,0.609,2.92-0.637,3.727-2.359
				l25.417-13.347v34.395c-27.029,14.198-25.014,13.203-25.014,13.077c0.027-1.18-0.794-1.425-0.715-1.425c0-0.007,0-0.007-0.008,0
				v-0.007c-0.434-0.228-0.875-0.45-1.308-0.685c-0.548-0.284-1.27-0.076-1.863,0.249l-0.008-0.007
				c-0.145-0.076-0.297-0.152-0.441-0.235c-0.395-0.208-0.943-0.021-1.346,0.235c-0.684,0.429-1.3,1.384-1.369,2.152
				c-0.038,0.45,0.061,0.969,0.456,1.176c0.152,0.076,0.297,0.152,0.449,0.228h0.008c-0.023,0.505,0.084,1.045,0.418,1.384
				c-0.076,0.069,0.112-0.056-30.231,15.886c0-7.384,0-27.206,0-34.395C171.045,153.738,202.416,137.221,202.492,137.221z
				 M225.612,152.83v-21.117l-48.316,25.386v21.11L225.612,152.83z"/>
			<path style="fill:#DCCC5B;" d="M231.94,91.244v30.506l-25.417,13.347c0.464-0.994,0.715-2.494-0.312-3.024l0.008-0.007
				c-0.014-0.007-1.309-0.685-1.323-0.692c-0.548-0.291-1.278-0.083-1.871,0.249v-0.007c-0.145-0.076-0.297-0.159-0.441-0.235
				c-0.395-0.208-0.943-0.028-1.346,0.228c-0.684,0.429-1.3,1.391-1.369,2.152c-0.038,0.45,0.061,0.969,0.456,1.176
				c0.152,0.083,0.297,0.159,0.449,0.235h0.008c-0.023,0.63,0.145,1.308,0.692,1.598c0.312,0.159,0.624,0.325,0.935,0.491
				l-31.44,16.516v-30.513C191.29,112.589,211.619,101.92,231.94,91.244z"/>
			<path style="fill:#E6A45D;" d="M231.94,87.356v3.888c-20.321,10.676-40.65,21.345-60.972,32.021v-3.888L231.94,87.356z"/>
			<polygon style="fill:#FDDF9E;" points="231.94,87.356 170.968,119.377 141.612,103.961 203.709,71.345 			"/>
			<path style="fill:#201600;" d="M228.008,240.1c0,0.215,0,0.429,0,0.643c0,0.194-0.16,0.36-0.373,0.478
				c-0.358,0.187-0.435,0.245-0.517,0.201c-0.008,0-0.008-0.007-0.015-0.007c-0.038-0.028-0.053-0.069-0.053-0.125v-0.166
				c0-0.131,0.107-0.291,0.228-0.36l0.357-0.187C227.879,240.453,228.008,240.28,228.008,240.1z"/>
			<path style="fill:#4D4A45;" d="M219.581,237.457h-0.008c-0.046-0.028-0.068-0.069-0.068-0.132c0-0.086,1.045,0.493-13.393-7.085
				v-0.104l13.385,7.03l0.008-0.007c0-0.132,0.099-0.291,0.228-0.36l1.255-0.664c0.358,0.193-0.491-0.254,6.647,3.494
				c0.51,0.259,0.484,0.7,0,0.948l-0.357,0.187c-0.122,0.069-0.228,0.228-0.228,0.36v0.166c0,0.055,0.015,0.097,0.053,0.125
				C224.593,240.093,222.084,238.778,219.581,237.457z"/>
			<polygon style="fill:#564D3C;" points="225.612,131.713 225.612,152.83 177.296,178.209 177.296,157.099 			"/>
			<polygon style="fill:#202740;" points="224.631,253.391 224.631,259.466 213.893,265.105 213.893,259.03 			"/>
			<path style="fill:#E7E6E7;" d="M222.738,235.478l-1.506,0.789l-0.243-0.131l-1.255,0.664c-0.129,0.069-0.228,0.228-0.228,0.36
				l-0.008,0.007l-13.385-7.03c2.032-1.027,4.767-0.885,6.396-0.035L222.738,235.478z"/>
			<path style="fill:#91765C;" d="M215.764,240.384c0,0.346,0,0.699,0,1.045c0,0.256-0.114,0.561-0.426,0.837l-12.769,11.624v-1.045
				l12.769-11.624c0.274-0.249,0.418-0.54,0.418-0.837H215.764z"/>
			<path style="fill:#C4A485;" d="M214.174,238.931c1.741,0.528,1.908,1.613,1.164,2.29l-12.769,11.624l-16.595-5.037l12.769-11.617
				c0.777-0.706,2.679-1.131,4.365-0.616L214.174,238.931z"/>
			<path style="fill:#A6512C;" d="M206.926,169.222c0,2.57-3.398,5.428-4.624,3.487c-0.015-0.021-0.03-0.042-0.038-0.069
				c-0.198-0.36-0.213-0.796-0.152-1.204c0.297-2.332,2.738-4.373,4.092-3.639c0.008-0.007,0.008-0.007,0.008,0c0,0,0,0,0.008,0
				C206.753,168.127,206.94,168.638,206.926,169.222z"/>
			<path style="fill:#A6512C;" d="M206.523,135.097c-0.806,1.723-2.624,2.968-3.727,2.359c-0.663-0.388-0.781-1.055-0.685-1.757
				c0.145-1.1,0.73-2.117,1.551-2.878C205.808,130.854,207.816,132.328,206.523,135.097z"/>
			<path style="fill:#B7674B;" d="M206.219,132.066l-0.008,0.007c-0.031-0.021-0.068-0.035-0.099-0.048
				c-0.616-0.256-1.521-0.055-2.449,0.796c-0.821,0.761-1.407,1.778-1.551,2.878c-0.17,1.236,0.458,1.522,0.373,1.522
				c-0.119,0.065,0.081,0.108-1.011-0.45c-0.548-0.291-0.715-0.969-0.692-1.598c0-1.145,0.964-2.753,2.076-3.453
				c0.562-0.365,1.428-0.67,2.038-0.346C204.91,131.382,206.205,132.06,206.219,132.066z"/>
			<path style="fill:#B7674B;" d="M206.204,167.789v0.007c-1.354-0.733-3.795,1.308-4.092,3.639
				c-0.061,0.408-0.046,0.844,0.152,1.204c-1.067,0.108-1.528-0.748-1.483-1.737c0-1.139,0.958-2.742,2.076-3.446
				c0.553-0.359,1.422-0.672,2.038-0.353C205.329,167.34,205.77,167.561,206.204,167.789z"/>
			<path style="fill:#B7674B;" d="M203.032,167.353c0,0.016,0.025-0.026-0.175,0.104c-1.118,0.703-2.076,2.306-2.076,3.446h-0.008
				c-0.152-0.076-0.297-0.152-0.449-0.228c-0.395-0.207-0.494-0.727-0.456-1.176c0.068-0.768,0.684-1.723,1.369-2.152
				c0.403-0.256,0.951-0.443,1.346-0.235c0.145,0.083,0.297,0.159,0.441,0.235L203.032,167.353z"/>
			<path style="fill:#B7674B;" d="M203.025,131.617v0.007c-0.979,0.445-2.243,2.228-2.243,3.549h-0.008
				c-0.152-0.076-0.297-0.152-0.449-0.235c-0.395-0.208-0.494-0.727-0.456-1.176c0.068-0.761,0.684-1.723,1.369-2.152
				c0.403-0.256,0.951-0.436,1.346-0.228C202.728,131.457,202.88,131.54,203.025,131.617z"/>
			<polygon style="fill:#B29374;" points="202.568,252.845 202.568,253.89 185.974,248.86 185.974,247.808 			"/>
			
				<linearGradient id="SVGID_00000078018971477904069800000013915143217820324270_" gradientUnits="userSpaceOnUse" x1="159.304" y1="203.2466" x2="195.585" y2="209.4526">
				<stop  offset="0.0247" style="stop-color:#A19D96"/>
				<stop  offset="0.7654" style="stop-color:#F2E2E3"/>
				<stop  offset="1" style="stop-color:#E7E6E7"/>
			</linearGradient>
			<path style="fill:url(#SVGID_00000078018971477904069800000013915143217820324270_);" d="M199.443,199.326
				c1.199,0.606,2.148,1.894,2.243,3.508c0.022,0.316,0.015-0.26,0.015,5.826c0,2.08,0.028,2.001-0.084,2.262
				c-0.152,0.323-0.399,0.585-0.852,0.816c-16.65,8.739-15.496,8.215-16.313,8.372c-1.098,0.215-2.452,0.141-3.422-0.381
				l-1.392-0.727c0-1.178,0-10.084,0-11.576c0-1.354-0.293-2.779-1.103-4.47c0.72-0.6,1.753-1.085,3.08-1.785v2
				c0.443,0.231,0.242,0.126,0.913,0.477h0.015v-0.007c0.083-0.044,10.59-5.565,10.693-5.618l-0.228-0.111v-1.868
				C193.546,196.186,192.839,195.844,199.443,199.326z M201.587,206.826c0-0.173-0.068-0.298-0.175-0.374
				c-0.107-0.054,0.115,0.061-1.323-0.692c-0.152-0.097-0.388-0.083-0.654,0.055c-0.603,0.316-1.097,1.233-0.654,1.55
				c0.136,0.074,1.306,0.686,1.399,0.733C200.68,208.291,201.587,207.503,201.587,206.826z M198.849,208.349
				c0-0.173-0.068-0.298-0.175-0.374c-0.107-0.054,0.115,0.061-1.323-0.692c-0.152-0.097-0.388-0.083-0.654,0.055
				c-0.603,0.316-1.097,1.233-0.654,1.55c0.136,0.074,1.306,0.686,1.399,0.733C197.942,209.813,198.849,209.026,198.849,208.349z
				 M195.61,199.278l-1.103-0.581l-10.708,5.618l1.11,0.581C195.733,199.215,194.043,200.103,195.61,199.278z"/>
			<path style="fill:#E2C986;" d="M201.412,206.453c0.106,0.076,0.175,0.201,0.175,0.374c0,0.691-0.916,1.461-1.407,1.273
				C199.413,207.712,200.633,206.059,201.412,206.453z"/>
			<path style="fill:#637A78;" d="M200.089,205.761l1.255,0.657c-0.715-0.26-1.854,1.202-1.232,1.647
				c-1.45-0.759-1.227-0.642-1.331-0.699c-0.107-0.076-0.167-0.201-0.167-0.367C198.614,206.283,199.61,205.456,200.089,205.761z"/>
			<polygon style="fill:#878184;" points="200.857,277.172 200.857,284.292 198.028,282.804 198.028,278.66 197.465,278.362 
				197.465,275.394 			"/>
			<path style="fill:#E2C986;" d="M198.674,207.975c0.107,0.076,0.175,0.201,0.175,0.374c0,0.691-0.916,1.461-1.407,1.273
				C196.675,209.234,197.896,207.581,198.674,207.975z"/>
			<path style="fill:#637A78;" d="M197.351,207.283l1.255,0.657c-0.715-0.26-1.854,1.202-1.232,1.647
				c-1.45-0.759-1.227-0.642-1.331-0.699c-0.106-0.076-0.167-0.201-0.167-0.367C195.876,207.805,196.872,206.978,197.351,207.283z"
				/>
			<path style="fill:#CCC9CB;" d="M198.028,285.773c-3.023,1.592,1.298-0.679-30.459,16.004c0-7.021,0.06-6.513-0.167-7.03
				c0.947-0.498,29.748-15.622,30.626-16.087C198.028,281.016,198.028,283.137,198.028,285.773z"/>
			<path style="fill:#A39EA1;" d="M198.028,278.66c-0.879,0.465-29.674,15.586-30.626,16.087c-0.145-0.318-0.373-0.623-0.646-0.844
				c28.747-15.098,24.999-13.129,27.987-14.703l-2.259-1.183l2.16-1.135C195.265,277.207,196.435,277.818,198.028,278.66z"/>
			<path style="fill:#616380;" d="M148.845,328.242v14.917l39.738-20.875v-27.517l-21.013,11.036v-4.027l28.238-14.834v39.141
				l-54.195,28.465c0-10.171,0-33.838,0-43.313h1.171l3.384,1.778l0.958-0.498v7.521l0.829,0.436l0.92-0.491
				C148.875,328.695,148.921,328.242,148.845,328.242z"/>
			<path style="fill:#616380;" d="M190.202,274.225c-0.723-0.38-1.437-0.761-2.16-1.142c-0.677-0.353-1.605-0.042-2.297,0.394
				c-1.183,0.752-2.207,2.373-2.335,3.674c-0.068,0.768,0.099,1.654,0.776,2.007c0.753,0.401,1.506,0.796,2.259,1.19l0.015-0.014
				c0.867,0.526,2.118-0.162,2.86-0.837c1.521-1.405,2.19-3.639,1.529-4.684c-0.152-0.242-0.38-0.45-0.654-0.574L190.202,274.225z
				 M155.4,292.505c-0.723-0.381-1.445-0.754-2.167-1.135c-0.609-0.325-1.437-0.09-2.107,0.284l-0.669-1.052l45.35-23.822v10.711
				l-1.164-0.609l-2.16,1.135v2.373l-25.729,13.513c-0.119-0.108-0.143-0.125-0.639-0.387c-0.342-0.18-0.624-0.159-0.798-0.069
				c-3.742,1.965-7.491,3.93-11.233,5.902l-0.555-0.872c2.255-1.214,3.272-4.179,2.517-5.376c-0.152-0.235-0.388-0.45-0.654-0.581
				L155.4,292.505z M175.486,284.105v-3.812l-13.545,7.113v3.812L175.486,284.105z"/>
			<path style="fill:#E6A45D;" d="M195.807,266.78c-52.514,27.585-42.52,22.337-54.195,28.465c0-1.862,0-3.972,0-4.746
				l54.195-28.465C195.807,262.808,195.807,264.918,195.807,266.78z"/>
			<path style="fill:#54514C;" d="M195.807,262.033l-54.195,28.465l-27.09-14.232v-7.113l-2.259-1.19l0.213-0.111
				c6.259,1.847,13.636,1.086,18.215-1.322c1.247-0.65,2.441-1.46,3.278-2.56c0.829-1.093,1.316-2.484,1.126-3.771
				c-0.19-1.294-1.05-2.484-2.099-3.418c-1.407-1.259-3.149-2.069-4.974-2.657c-4.875-1.571-10.754-1.681-15.758-0.145v-4.989
				c29.625-15.568,29.28-15.423,29.356-15.423L195.807,262.033z M176.11,267.499c4.183-2.186,4.829-5.757,1.057-8.351
				c-4.327-2.982-12.861-3.418-18.177-0.643c-4.16,2.173-4.86,5.75-1.065,8.358C162.123,269.755,170.535,270.35,176.11,267.499z
				 M151.438,252.326c3.324-1.737,3.841-4.574,0.844-6.635c-3.453-2.38-10.237-2.698-14.442-0.512
				c-3.301,1.723-3.871,4.567-0.852,6.642C140.197,254.028,146.67,254.665,151.438,252.326z M149.658,277.255
				c3.293-1.723,3.787-4.525,0.829-6.566c-3.415-2.352-10.123-2.671-14.275-0.498c-3.278,1.709-3.818,4.518-0.844,6.566
				C138.654,279.013,145.24,279.504,149.658,277.255z"/>
			<polygon style="fill:#919090;" points="195.61,199.278 194.507,199.859 194.507,198.697 			"/>
			<polygon style="fill:#878184;" points="194.743,279.199 192.484,280.389 192.484,278.016 			"/>
			<polygon style="fill:#202740;" points="194.507,198.697 194.507,199.859 184.909,204.896 183.799,204.315 			"/>
			<path style="fill:#EDDC98;" d="M193.009,198.143l-0.73,0.388c-0.122-0.367-0.319-0.713-0.319-1.356
				c0-0.747,0.222-1.305-0.312-2.09c-0.053-0.014-0.099-0.028-0.145-0.048c-0.091,0.111-0.213,0.152-0.357,0.208
				c-0.852,1.495-7.986,2.297-7.986,5.335c0,0.87,0.365,1.55,0.289,2.588l-0.905,0.477v-3.639c0-0.512,0.295-1.062,0.677-1.439
				c0.275-0.294-0.192-0.002,8.662-4.649c0.204-0.111,0.531-0.198,0.738-0.104c0.478,0.29,0.388,0.422,0.388,2.235
				C193.009,196.868,193.009,197.79,193.009,198.143z"/>
			<path style="fill:#D6BF75;" d="M191.761,193.355c0.281,0.152,0.57,0.305,0.859,0.457c-0.208-0.095-0.534-0.008-0.738,0.104
				l-8.214,4.31c-0.473,0.254-0.855,0.75-1.034,1.259c-0.141,0.402-0.091,0.419-0.091,4.158l-0.015,0.007
				c-0.668-0.35-0.465-0.243-0.913-0.477c0-3.775-0.045-3.809,0.099-4.172c0.175-0.496,0.529-0.988,1.034-1.259
				c8.816-4.627,8.286-4.358,8.404-4.394C191.373,193.266,191.592,193.278,191.761,193.355z"/>
			<path style="fill:#EFC651;" d="M192.278,198.531l-8.83,4.636c0.078-1.064-0.289-1.688-0.289-2.588
				c0-3.038,7.134-3.84,7.986-5.335c0.145-0.055,0.266-0.097,0.357-0.208c0.046,0.021,0.091,0.035,0.145,0.048
				c0.534,0.785,0.312,1.343,0.312,2.09C191.959,197.818,192.157,198.164,192.278,198.531z"/>
			<path style="fill:#CCC9CB;" d="M190.849,274.813c0.662,1.045-0.008,3.28-1.529,4.684c-0.616,0.56-1.643,1.183-2.495,0.982
				c-0.34-0.073-0.73-0.35-0.928-0.678c-0.274-0.422-0.281-0.941-0.221-1.439c0.16-1.238,0.821-2.387,1.749-3.238
				c0.701-0.646,1.896-1.318,2.768-0.886C190.468,274.363,190.697,274.571,190.849,274.813z"/>
			<path style="fill:#A39EA1;" d="M184.186,279.158c-0.677-0.353-0.844-1.238-0.776-2.007c0.127-1.298,1.149-2.92,2.335-3.674
				c0.692-0.436,1.62-0.747,2.297-0.394c0.723,0.38,1.437,0.761,2.16,1.142l-0.008,0.014c-0.872-0.433-2.067,0.24-2.768,0.886
				c-0.928,0.851-1.59,2-1.749,3.238c-0.099,0.811,0.025,1.535,0.783,1.972l-0.015,0.014
				C185.692,279.954,184.939,279.559,184.186,279.158z"/>
			<path style="fill:#202740;" d="M188.582,294.767v27.517l-39.738,20.875c0-15.635-0.046-14.917,0.03-14.917l0.829,0.436
				l17.865-9.382v-13.492L188.582,294.767z"/>
			<polygon style="fill:#4D4A45;" points="186.285,227.231 186.285,228.787 168.847,237.948 168.847,236.391 			"/>
			<path style="fill:#919090;" d="M186.285,227.231l-17.439,9.161c-0.498-0.259,0.197,0.105-6.647-3.487l7.035-3.695
				c0.084,0.588,0.175,1.169,0.266,1.751h-0.015l-3.019,1.584c-0.422,0.244-0.037,0.578,0.38,0.623
				c0.53,0.057,0.666-0.101,1.673-0.65c0.502-0.277,1.042-0.533,1.551-0.803c0.381,0.199,0.957,0.333,1.658,0.284v0.007
				l-3.156,1.654c-0.091,0.048-0.19,0.152-0.183,0.249c0,0.165,0.458,0.475,0.996,0.353c0.182-0.042,0.35-0.145,0.517-0.235
				c0.403-0.228,0.806-0.415,1.217-0.623c1.09-0.556,2.497-1.347,2.631-1.418c1.957-1.071,4.054-2.084,6.031-3.141
				c2.046-1.117,2.282-1.128,2.342-1.322c0.023-0.062,0-0.145-0.038-0.201c-0.053-0.076-0.152-0.118-0.243-0.152
				c-0.602-0.274-1,0.023-1.498,0.325c-0.745,0.463-0.819,0.323-2.875,1.481c0.048-0.132-0.062,0.32,0.198-1.245
				c0.486-0.263,2.009-1.059,2.038-1.072c0.084-0.035,0.167-0.069,0.236-0.138c0.204-0.185,0.011-0.4-0.266-0.484
				c-0.245-0.103-0.509-0.097-0.76-0.021c-0.175,0.062-0.335,0.159-0.494,0.256c-0.19,0.104-0.388,0.201-0.578,0.304
				c0.099-0.685,0.205-1.363,0.304-2.048l1.491-0.782L186.285,227.231z"/>
			<path style="fill:#4D4A45;" d="M182.087,227.321c0.038,0.055,0.061,0.138,0.038,0.201c-0.06,0.192-0.28,0.196-2.342,1.322
				c-1.974,1.055-4.075,2.071-6.031,3.141c-0.239,0.127-1.5,0.841-2.631,1.418c-0.411,0.208-0.814,0.394-1.217,0.623
				c-0.167,0.09-0.335,0.194-0.517,0.235c-0.54,0.123-0.996-0.188-0.996-0.353c-0.008-0.097,0.091-0.201,0.183-0.249l3.156-1.654
				v-0.007c0.618-0.042,1.465-0.306,1.62-0.851c1.013-0.53,0.473-0.247,2.495-1.308c0.631-0.043,1.476-0.312,1.628-0.865
				c1.964-1.106,2.159-1.035,2.875-1.481c0.498-0.302,0.89-0.602,1.498-0.325C181.935,227.203,182.034,227.244,182.087,227.321z"/>
			<path style="fill:#4D4A45;" d="M179.943,226.518c-0.068,0.069-0.152,0.104-0.236,0.138c-0.029,0.013-1.553,0.809-2.038,1.072
				c0.053-0.387,0.114-0.768,0.175-1.155c0.19-0.104,0.388-0.201,0.578-0.304c0.16-0.097,0.319-0.194,0.494-0.256
				c0.251-0.076,0.516-0.082,0.76,0.021C179.952,226.117,180.146,226.333,179.943,226.518z"/>
			<path style="fill:#CCC9CB;" d="M176.878,220.637c-0.171-0.544-0.437-0.949-0.662-1.176c0.219-0.116,0.143-0.075,0.335-0.18
				c0-1.816,0-3.695,0-5.369c-0.312-0.17-1.546-0.815-2.107-1.114c-3.111,1.634-1.509,0.794-7.514,3.944v5.376l2.114,1.107
				l2.487-1.308c0.187,0.141,0.425,0.47,0.51,0.727c0.079,0.239,0.061,0.212,0.061,1.37c0,0.118,0.106,0.221,0.22,0.291
				c0.196,0.116,0.486,0.142,0.7,0.118c0.008,0.09,0.023,0.187,0.038,0.277c-1.11-0.431-2.607-0.355-3.536,0.132
				c-0.502,0.263-0.791,0.637-0.791,1.01c0,0.097,0.444,2.996,0.502,3.37l-7.035,3.695c0-7.137,0-11.775,0-16.315
				c0-3.62-2.514-7.699-5.407-9.825c-0.833-0.612-0.995-0.654-5.704-3.134l17.439-9.161l4.335,2.283
				c3.746,1.947,6.776,6.746,6.776,10.676c0,5.915,0,10.423,0,16.315l-1.491,0.782c0.013-0.079,0.122-0.757,0.122-0.851
				c0-0.595-0.673-1.012-1.301-1.218C176.969,221.066,176.995,221.084,176.878,220.637z M175.623,203.277
				c0.1-0.712-0.442-1.548-1.202-1.827c-0.388-0.145-0.859-0.166-1.217,0.021c-0.077,0.047-1.003,0.591-1.057,0.623
				c-0.996,0.618-0.627,2.099,0.479,2.664c0.501,0.262,1.058,0.235,1.43,0.014c0.453-0.271,0.347-0.201,0.996-0.595
				C175.372,203.983,175.57,203.623,175.623,203.277z M173.204,207.774c-0.634-2.104-2.049-4.424-3.917-6.151
				c-1.848,0.969-3.689,1.93-5.529,2.899c0.682,0.62,1.151,1.203,1.475,1.591l-0.038,0.028c-0.213,0-0.434,0.042-0.616,0.138
				c-0.008,0-0.008,0.007-0.015,0.007c-0.342,0.187-0.684,0.367-1.019,0.553c-1.01,0.559-0.736,2.085,0.388,2.698
				c0.457,0.227,0.967,0.275,1.407,0.042c0.762-0.419,1-0.536,1.019-0.553c0.19-0.104,0.342-0.263,0.449-0.457
				c0.081,0.074,0.594,1.232,0.867,2.11c1.316-0.692,2.639-1.384,3.955-2.076v-0.007
				C172.633,208.076,172.988,207.885,173.204,207.774z"/>
			<path style="fill:#C4A485;" d="M176.68,222.616c0.091-0.042,0.175-0.097,0.243-0.173c0.015,0.007,0.03,0.007,0.046,0.014
				c0.691,0.226,1.406,0.7,1.285,1.356c-0.259,1.384-3.737,1.755-5.027,0.581c0.114-0.028,0.221-0.069,0.312-0.132
				c0.571,0.519,1.857,0.832,3.149,0.47C178.189,224.313,178.329,223.116,176.68,222.616z"/>
			<path style="fill:#BDD6CE;" d="M178.254,223.813c-0.02,0.156-0.639,4.292-0.76,5.023c0,0.618-0.948,0.955-1.65,1.003
				c-0.389,0.029-0.795,0.009-1.224-0.125c-0.363-0.079-0.811-0.334-0.943-0.657c0.022-0.142,0.479-3.066,0.479-3.217
				c0-0.533-0.551-0.929-1.095-1.142c-0.015-0.09-0.03-0.187-0.038-0.277c0.076-0.007,0.145-0.014,0.205-0.028
				C174.514,225.565,177.995,225.199,178.254,223.813z"/>
			<path style="fill:#91765C;" d="M177.851,223.515c0.318,1.303-3.024,1.92-4.312,0.747c0.061-0.042,0.114-0.09,0.16-0.152
				c0-0.357,0-0.799,0-1.156c0.116-0.07,0.007-0.029,0.297-0.173c0.406-0.202,1.016-0.318,1.445-0.318
				c0.231,0.294,0.895,0.309,1.24,0.152C177.192,222.771,177.721,223.041,177.851,223.515z"/>
			<path style="fill:#474441;" d="M177.167,259.148c3.772,2.595,3.126,6.165-1.057,8.351c-5.575,2.851-13.986,2.256-18.184-0.636
				c-3.795-2.609-3.095-6.186,1.065-8.358C164.306,255.73,172.839,256.166,177.167,259.148z"/>
			<path style="fill:#E5D7D6;" d="M176.969,222.394c-0.379,0.517-1.597,0.353-1.597-0.097c0-0.036,0.005-1.073-0.008-1.107
				c0-0.266-0.223-0.648-0.418-0.851c-0.049-0.052-0.106-0.104-0.16-0.152c-0.038-0.017-0.097-0.068-0.145-0.09
				c-0.073-0.041-0.545-0.284-0.57-0.298c-0.432-0.252,0.048-1.269,0.707-1.308c0,0,0.008,0,0.008,0.007
				c0.221,0.104,0.426,0.221,0.646,0.339c0.304,0.154,0.53,0.342,0.753,0.588c0.008,0.014,0.023,0.021,0.03,0.035
				c0.353,0.357,0.684,1.008,0.745,1.598C176.961,221.213,176.969,220.757,176.969,222.394z"/>
			<path style="fill:#E7E6E7;" d="M171.516,220.208c-0.678,0.04-1.138,1.072-0.707,1.308c0.131,0.07,0.64,0.327,0.723,0.401
				l-2.487,1.308v-5.369c6.977-3.665,5.021-2.639,7.354-3.861l0.152-0.083c0,1.674,0,3.553,0,5.369
				c-0.191,0.105-0.115,0.064-0.335,0.18c-0.008-0.014-0.023-0.021-0.03-0.035c-0.223-0.246-0.449-0.434-0.753-0.588
				c-0.221-0.118-0.426-0.235-0.646-0.339c0-0.007-0.008-0.007-0.008-0.007c-0.667,0.04-1.135,1.058-0.707,1.308
				c0.27,0.144,0.642,0.321,0.73,0.401c-0.146,0.067,0.511-0.268-1.848,0.976h-0.008c-0.008-0.014-0.023-0.021-0.031-0.035
				C172.503,220.686,172.27,220.61,171.516,220.208z"/>
			<path style="fill:#A39EA1;" d="M176.551,213.912c-0.212,0.115,0.1-0.049-1.764,0.927c-2.653,1.394-1.366,0.718-5.742,3.017
				l-2.114-1.114c6.058-3.178,4.334-2.273,7.514-3.944C175.116,213.156,176.217,213.729,176.551,213.912z"/>
			<path style="fill:#919090;" d="M173.379,231.001c0.061-0.367,0.114-0.74,0.167-1.107h0.008l0.639-0.339
				c0.33,0.176,0.946,0.337,1.65,0.284c-2.025,1.062-1.487,0.78-2.495,1.308c0.015-0.048,0.023-0.097,0.023-0.145H173.379z"/>
			<path style="fill:#E9D6A7;" d="M175.334,202.191c0.812,1.198-0.142,2.579-1.559,2.048c-0.733-0.27-1.305-1.091-1.202-1.827
				c0.054-0.393,0.29-0.736,0.57-0.906c0.015-0.014,0.038-0.021,0.061-0.035C173.794,201.163,174.793,201.364,175.334,202.191z"/>
			<polygon style="fill:#202740;" points="175.486,280.293 175.486,284.105 161.941,291.218 161.941,287.405 			"/>
			<path style="fill:#C4A485;" d="M175.44,222.463c-0.321,0-0.854,0.084-1.179,0.208c-0.777,0.295-0.499,0.451-0.586-0.021
				c0.327-0.166,0.753-0.291,1.202-0.346v-0.007c0.16-0.021,0.327-0.035,0.494-0.042C175.372,222.329,175.371,222.39,175.44,222.463
				z"/>
			<path style="fill:#CCC9CB;" d="M175.372,221.246c0,0.339,0,0.671,0,1.01c-0.167,0.007-0.335,0.021-0.494,0.042v0.007
				c-0.449,0.055-0.875,0.18-1.202,0.346c-0.067-0.459-0.34-1.064-0.73-1.474h0.008c1.977-1.042,1.832-0.968,1.848-0.976
				C175.214,220.576,175.372,220.982,175.372,221.246z"/>
			<path style="fill:#B68F59;" d="M174.984,204.218c-0.304,0.187-0.616,0.367-0.928,0.553c-0.175,0.104-0.388,0.159-0.608,0.173
				c-1.523,0.075-2.6-2.044-1.301-2.851c0.304-0.18,0.624-0.367,0.935-0.547c-0.523,0.373-0.742,1.16-0.228,1.944
				C173.424,204.331,174.392,204.522,174.984,204.218z"/>
			<path style="fill:#4D4A45;" d="M174.193,229.555l-0.639,0.339c0.038-0.277,0.084-0.553,0.122-0.837
				C173.752,229.244,173.934,229.417,174.193,229.555z"/>
			<path style="fill:#C4A485;" d="M173.752,225.854c0-1.167-2.908-1.742-4.297-0.637c-0.197,0.179-0.351,0.424-0.319,0.678
				c0,0.055,0.008,0.095,0.008,0.097c0.12,0.328,0.337,0.581,0.89,0.809c0.812,0.308,1.72,0.324,2.533,0.097
				C173.103,226.748,173.752,226.357,173.752,225.854z M173.356,226.843c-0.502,0.263-1.209,0.422-1.916,0.422
				c-1.095,0-2.708-0.46-2.708-1.425c0-0.374,0.289-0.747,0.791-1.01c1.068-0.559,2.811-0.542,3.833,0
				C174.398,225.375,174.439,226.283,173.356,226.843z"/>
			<path style="fill:#BDD6CE;" d="M174.14,225.978c-0.213,1.442-0.533,3.531-0.586,3.916h-0.008
				c-0.053,0.367-0.106,0.74-0.167,1.107h-0.008c0,0.935-2.135,1.322-3.301,0.713c-0.315-0.164-0.57-0.419-0.57-0.754
				c-0.178-1.136-0.525-3.44-0.753-4.982c0.061,0.325,0.335,0.637,0.776,0.865C171.117,227.678,173.915,227.182,174.14,225.978z"/>
			<path style="fill:#91765C;" d="M173.729,225.681c0.018,0.067,0.032,0.186,0.015,0.249c0,0.014-0.008,0.021-0.008,0.035
				c0,0.144-0.217,0.486-0.593,0.692c-0.709,0.43-2.198,0.605-3.362,0.028c-0.973-0.531-0.855-1.421,0.365-1.847
				C171.321,224.392,173.452,224.671,173.729,225.681z"/>
			<path style="fill:#E5D7D6;" d="M173.699,224.11c-0.27,0.368-1.028,0.4-1.377,0.194c-0.114-0.069-0.22-0.173-0.22-0.291
				c0-1.049,0.053-1.198-0.152-1.571c-0.041-0.093-0.152-0.261-0.274-0.387c-0.15-0.19-0.462-0.325-0.867-0.54
				c-0.436-0.238,0.035-1.268,0.707-1.308c0.697,0.372,0.814,0.415,1.049,0.602c0.315,0.251,0.657,0.643,0.882,1.121
				C173.782,222.607,173.699,223.125,173.699,224.11z"/>
			<path style="fill:#202740;" d="M165.234,206.114c-0.379-0.455-0.819-0.994-1.475-1.591c1.84-0.969,3.681-1.93,5.529-2.899
				c1.886,1.743,3.292,4.077,3.917,6.151c-0.234,0.119-0.394,0.21-1.574,0.823v0.007c-1.316,0.692-2.639,1.384-3.955,2.076
				c-0.263-0.846-0.672-1.762-0.859-2.103l-0.008-0.007c0.58-0.924-0.314-2.429-1.612-2.429L165.234,206.114z"/>
			<path style="fill:#8C898B;" d="M116.773,211.891l54.195-28.465v4.747c-56.033,29.428-53.237,28.028-53.237,27.897
				c0.02-0.858-0.428-1.363-0.958-1.515C116.773,213.597,116.773,213.32,116.773,211.891z"/>
			<path style="fill:#F3E948;" d="M170.968,183.426l-29.356-22.065V107.85c9.788,5.134,19.576,10.275,29.356,15.416
				C170.968,130.691,170.968,176.317,170.968,183.426z"/>
			<path style="fill:#E6A45D;" d="M170.968,119.377v3.888c-9.78-5.141-19.568-10.282-29.356-15.416v-3.889L170.968,119.377z"/>
			<path style="fill:#A39EA1;" d="M170.968,183.426l-54.195,28.465l0.905-45.451l18.063-9.493
				C144.048,163.193,137.598,158.345,170.968,183.426z"/>
			<path style="fill:#4D4A45;" d="M170.071,231.714c-0.51,0.27-1.05,0.526-1.551,0.803c-0.509,0.278-0.978,0.578-1.285,0.644
				c-0.592,0.127-1.292-0.312-0.768-0.616l3.019-1.584h0.015C169.501,231.294,169.755,231.55,170.071,231.714z"/>
			<polygon style="fill:#878184;" points="169.044,217.855 169.044,223.225 166.93,222.117 166.93,216.741 			"/>
			<path style="fill:#4D4A45;" d="M168.847,236.391v1.557c-2.06-1.083-13.96-7.343-17.758-9.334c0-0.548,0-0.966,0-1.55
				C153.231,228.191,167.586,235.736,168.847,236.391z"/>
			<path style="fill:#E9D6A7;" d="M167.569,319.295l-17.865,9.382v-23.829c0-0.664-0.51-1.453-1.126-1.778l-0.327-0.173
				c-0.289-0.152-0.555-0.173-0.753-0.09c13.947-7.332,13.056-6.86,17.819-9.361c0.413-0.212,0.901,0.124,1.126,0.242
				c0.339,0.176,0.733,0.563,0.958,1.059C167.65,295.312,167.569,293.354,167.569,319.295z"/>
			<path style="fill:#E9D6A7;" d="M166.702,207.006c0.576,0.879,0.192,1.781-0.395,2.048c-0.602,0.286-1.551,0.084-2.084-0.747
				c-0.543-0.829-0.242-1.701,0.342-2.02c0.008,0,0.008-0.007,0.015-0.007C165.137,205.984,166.121,206.119,166.702,207.006z"/>
			<path style="fill:#B68F59;" d="M165.128,209.061c0.373,0.138,0.829,0.159,1.179-0.007c-0.327,0.18-0.639,0.346-0.966,0.526
				c-1.048,0.556-2.419-0.459-2.419-1.619c-0.015-0.501,0.234-0.905,0.624-1.121c0.335-0.187,0.677-0.367,1.019-0.553
				c-0.342,0.187-0.563,0.567-0.616,0.934C163.844,207.968,164.409,208.797,165.128,209.061z"/>
			<path style="fill:#A39EA1;" d="M162.2,223.245v9.652c-1.03-0.541-10.79-5.664-11.111-5.833v-7.736h1.65
				c1.206,0.636-0.152-0.078,7.453,3.916H162.2z"/>
			<path style="fill:#A39EA1;" d="M162.2,216.589v6.656h-2.008v-1.1c-7.101-3.725-5.774-3.03-7.453-3.909v1.093h-1.65V203.63
				c4.828,2.543,4.888,2.536,5.704,3.134C159.625,208.846,162.2,212.914,162.2,216.589z M160.192,221.329v-1.1
				c-6.578-3.461-4.897-2.578-7.453-3.916v1.1C154.761,218.475,153.167,217.637,160.192,221.329z M160.192,219.488v-1.1
				c-5.885-3.094-4.205-2.211-7.453-3.916v1.1C155.474,217.008,153.79,216.123,160.192,219.488z"/>
			<path style="fill:#4D4A45;" d="M160.192,222.145v1.1c-7.538-3.958-6.202-3.256-7.453-3.916v-1.093
				C154.459,219.137,152.921,218.331,160.192,222.145z"/>
			<path style="fill:#4D4A45;" d="M160.192,220.229v1.1c-6.92-3.637-5.417-2.847-7.453-3.916v-1.1
				C155.292,217.649,153.62,216.771,160.192,220.229z"/>
			<path style="fill:#4D4A45;" d="M160.192,218.388v1.1c-6.32-3.322-4.688-2.465-7.453-3.916v-1.1
				C156.019,216.194,154.307,215.294,160.192,218.388z"/>
			<path style="fill:#CCC9CB;" d="M156.047,293.1c0.761,1.208-0.281,4.172-2.517,5.376c-0.582,0.298-1.321,0.477-1.879,0.138
				c-0.141-0.064-0.406-0.283-0.563-0.526c-0.266-0.429-0.281-0.948-0.213-1.439C151.254,293.699,154.741,291.081,156.047,293.1z"/>
			<path style="fill:#A39EA1;" d="M155.4,292.505l-0.008,0.014c-0.91-0.414-2.057,0.23-2.768,0.886
				c-0.928,0.858-1.589,2-1.749,3.245c-0.109,0.786,0.015,1.498,0.738,1.944c0.015,0.007,0.023,0.014,0.038,0.021l-0.008,0.014
				c-0.046-0.021-2.171-1.137-2.259-1.183c-0.677-0.36-0.844-1.246-0.776-2.007c0.068-0.782,0.38-1.432,0.776-2.048
				c0.388-0.609,0.852-1.183,1.551-1.626c0.061-0.035,0.122-0.076,0.19-0.111c0.669-0.374,1.498-0.609,2.107-0.284
				C153.955,291.751,154.678,292.124,155.4,292.505z"/>
			<path style="fill:#616380;" d="M147.499,302.807c-0.228,0.097-0.373,0.332-0.373,0.685v0.637l-2.183-1.142l-2.16,1.135v7.113
				h-1.171c0-5.631,0-9.383,0-15.99l8.845-4.643l0.669,1.052c-0.068,0.035-0.129,0.076-0.19,0.111
				c-0.7,0.443-1.164,1.017-1.551,1.626c-0.395,0.616-0.707,1.266-0.776,2.048c-0.068,0.761,0.099,1.647,0.776,2.007
				c0.082,0.043,2.213,1.162,2.259,1.183l0.008-0.014c0.558,0.338,1.296,0.16,1.879-0.138l0.555,0.872
				C151.887,300.496,149.697,301.652,147.499,302.807z"/>
			<path style="fill:#474441;" d="M152.282,245.691c2.997,2.062,2.479,4.899-0.844,6.635c-4.768,2.339-11.241,1.702-14.45-0.505
				c-3.019-2.076-2.449-4.919,0.852-6.642C142.046,242.992,148.829,243.31,152.282,245.691z"/>
			<path style="fill:#52372C;" d="M150.487,270.689c2.958,2.041,2.464,4.843-0.829,6.566c-4.419,2.249-11.005,1.758-14.29-0.498
				c-2.974-2.048-2.434-4.857,0.844-6.566C140.365,268.018,147.073,268.337,150.487,270.689z"/>
			<path style="fill:#EFE3CD;" d="M148.039,303.727l-0.837,0.443l-0.076-0.041v-0.637c0-0.674,0.526-0.911,1.126-0.595l0.327,0.173
				c0.616,0.325,1.126,1.114,1.126,1.778v23.829l-0.829-0.436c0-8.825,0-15.669,0-23.829c0-0.173-0.129-0.381-0.297-0.471
				c-0.366-0.193-0.428-0.244-0.525-0.194L148.039,303.727z"/>
			<polygon style="fill:#B68F59;" points="148.875,311.594 148.875,319.98 147.955,320.471 147.955,312.079 			"/>
			<path style="fill:#CCC9CB;" d="M148.875,304.475v7.12c-2.068,1.088-1.598,0.842-2.707,1.418V305.9L148.875,304.475z"/>
			<path style="fill:#A39EA1;" d="M148.054,303.748c0.053-0.028,0.122-0.021,0.198,0.021l0.327,0.173
				c0.167,0.09,0.297,0.298,0.297,0.471v0.062l-2.707,1.425l-3.384-1.778l2.16-1.135c2.536,1.327,2.155,1.126,2.259,1.183
				l0.837-0.443L148.054,303.748z"/>
			<polygon style="fill:#EFE3CD;" points="147.955,312.079 147.955,320.471 147.126,320.036 147.126,312.514 			"/>
			<polygon style="fill:#878184;" points="146.168,305.9 146.168,313.013 142.783,311.234 142.783,304.122 			"/>
			<path style="fill:#DCCC5B;" d="M141.612,337.942v16.606c-3.146,1.654,4.758-2.498-40.643,21.345v-16.599L141.612,337.942z"/>
			<polygon style="fill:#DCCC5B;" points="141.612,321.336 141.612,337.942 100.969,359.294 100.969,342.688 			"/>
			<path style="fill:#DCCC5B;" d="M141.612,321.336l-40.643,21.352v-16.606l40.643-21.352
				C141.612,310.572,141.612,315.383,141.612,321.336z"/>
			<path style="fill:#DCCC5B;" d="M141.612,304.731l-40.643,21.352V311.85l40.643-21.352
				C141.612,291.72,141.612,301.086,141.612,304.731z"/>
			<polygon style="fill:#FADCA2;" points="141.612,290.498 100.969,311.85 73.872,297.618 114.522,276.266 			"/>
			<polygon style="fill:#C9B9C2;" points="139.361,355.731 139.361,360.477 98.711,381.829 98.711,374.71 100.969,375.893 			"/>
			<polygon style="fill:#8C898B;" points="135.741,118.996 135.741,156.947 117.678,166.44 117.678,128.482 			"/>
			<polygon style="fill:#A39EA1;" points="135.741,118.996 117.678,128.482 106.232,122.47 124.295,112.984 			"/>
			<path style="fill:#474441;" d="M135.094,260.2c0.19,1.287-0.297,2.678-1.126,3.771c-0.837,1.1-2.031,1.91-3.278,2.56
				c-4.578,2.408-11.956,3.169-18.215,1.322l2.046-1.072v-2.373l-2.259-1.183v-9.244c5.004-1.536,10.883-1.425,15.758,0.145
				c1.825,0.588,3.567,1.398,4.974,2.657C134.045,257.716,134.904,258.906,135.094,260.2z"/>
			<path style="fill:#A6512C;" d="M117.511,215.129c0.183,0.284,0.228,0.609,0.221,0.941c0,2.657-3.45,5.387-4.624,3.487
				c-0.236-0.374-0.243-0.837-0.19-1.273C113.254,215.646,116.38,213.349,117.511,215.129z"/>
			<path style="fill:#A39EA1;" d="M117.678,128.482v37.958l-0.905-0.477c0-6.516,0-10.115,0-18.114l-11.286-5.93
				c0-10.918,0-8.147,0-19.062l0.738-0.387C106.301,122.47,106.108,122.404,117.678,128.482z"/>
			<path style="fill:#A39EA1;" d="M117.678,166.44c-1.222,61.362-0.905,60.005-0.905-0.477L117.678,166.44z"/>
			<path style="fill:#B7674B;" d="M116.773,214.555c-1.384-0.408-3.574,1.522-3.856,3.729c-0.053,0.436-0.046,0.899,0.19,1.273
				c0.137,0.221,0.312,0.381,0.502,0.477l-0.008,0.007c-0.441-0.228-0.882-0.464-1.323-0.692c-0.561-0.292-0.709-1.004-0.692-1.591
				c0-1.119,0.935-2.804,2.259-3.556c0.586-0.332,1.316-0.533,1.856-0.249C116.862,214.582,116.773,214.471,116.773,214.555z"/>
			<path style="fill:#DCCC5B;" d="M116.773,214.513c-0.357-0.187-0.715-0.367-1.072-0.56c-0.54-0.284-1.27-0.083-1.856,0.249
				l-0.008-0.007c-0.152-0.076-0.297-0.152-0.449-0.235c-0.396-0.208-0.935-0.021-1.346,0.235c-0.684,0.429-1.293,1.384-1.361,2.152
				c-0.046,0.45,0.053,0.969,0.449,1.176c0.152,0.076,0.297,0.152,0.449,0.235h0.008c-0.015,0.512,0.091,1.045,0.418,1.384
				c-47.788,25.108,1.952-1.025-35.874,18.84v-64.9c13.553-7.12,27.098-14.232,40.643-21.352
				C116.773,164.003,116.773,202.286,116.773,214.513z"/>
			<path style="fill:#E6A45D;" d="M116.773,147.849v3.882c-13.545,7.12-27.09,14.232-40.643,21.352v-3.888L116.773,147.849z"/>
			<path style="fill:#FDDF9E;" d="M116.773,147.849l-40.643,21.345l-29.356-15.416l40.65-21.352
				C109.586,144.073,102.552,140.377,116.773,147.849z"/>
			<path style="fill:#E6A45D;" d="M114.522,269.153v7.113l-40.65,21.352v-7.12L114.522,269.153z M112.712,275.318v-3.321
				l-37.03,19.449v3.321L112.712,275.318z"/>
			<path style="fill:#DCCC5B;" d="M114.522,264.406v2.373c-3.814,2-5.008,2.627-40.65,21.345v-2.366
				C82.081,281.442,110.198,266.672,114.522,264.406z"/>
			<polygon style="fill:#D6D192;" points="114.522,264.406 112.263,265.59 112.263,263.223 			"/>
			<path style="fill:#6D6721;" d="M114.522,269.153l-40.65,21.345l-27.098-14.232l2.259-1.183
				c11.416,5.999,18.443,9.687,24.839,13.042l38.392-20.162L114.522,269.153z"/>
			<path style="fill:#B7674B;" d="M113.845,214.202c-1.296,0.737-2.259,2.408-2.259,3.556h-0.008
				c-0.152-0.083-0.297-0.159-0.449-0.235c-0.396-0.208-0.494-0.727-0.449-1.176c0.068-0.768,0.677-1.723,1.361-2.152
				c0.411-0.256,0.951-0.443,1.346-0.235c0.152,0.083,0.297,0.159,0.449,0.235L113.845,214.202z"/>
			<polygon style="fill:#202740;" points="112.712,271.997 112.712,275.318 75.682,294.767 75.682,291.446 			"/>
			<path style="fill:#CCC9CB;" d="M112.263,265.59l-31.615,16.606c-2.494,1.315-6.518,1.322-9.035,0V260.85
				c2.494,1.308,6.525,1.315,9.035,0l31.615-16.606C112.263,250.735,112.263,259.09,112.263,265.59z M111.662,263.528
				c0.015-0.408-0.167-0.671-0.403-0.796v-0.007c-1.747-0.923-1.393-0.74-1.59-0.816c0.821,0.028,1.962-1.135,1.993-2.318
				c0.015-0.401-0.167-0.671-0.403-0.796v-0.007c-0.472-0.249-0.951-0.498-1.43-0.747c-0.335-0.18-0.799-0.028-1.148,0.194
				c-0.578,0.367-1.103,1.176-1.156,1.827c-0.038,0.38,0.046,0.823,0.38,1.003c1.485,0.772,1.491,0.828,1.764,0.844
				c-0.312-0.062-0.692,0.076-0.989,0.263c-0.578,0.36-1.103,1.176-1.156,1.827c-0.038,0.38,0.046,0.823,0.38,1.003
				c0.479,0.249,0.958,0.498,1.437,0.754C110.141,266.206,111.624,264.877,111.662,263.528z M111.488,249.551v-2.47l-5.24,2.754
				v2.47L111.488,249.551z M105.487,266.78v-16.606l-22.58,11.859v16.606L105.487,266.78z M75.332,275.954c0-2.373,0-4.746,0-7.12
				c-0.783-0.048-1.574-0.18-2.32-0.401c0,2.373,0,4.746,0,7.12C73.75,275.768,74.541,275.899,75.332,275.954z"/>
			<path style="fill:#CCC9CB;" d="M112.263,244.245L80.648,260.85c-2.51,1.315-6.54,1.308-9.035,0
				c12.047-6.324,24.086-12.655,36.133-18.979L112.263,244.245z"/>
			<path style="fill:#E7E6E7;" d="M111.259,262.732c0.236,0.125,0.418,0.387,0.403,0.796c-0.038,1.349-1.521,2.678-2.32,2.228
				c-0.269-0.157-0.46-0.467-0.38-0.989C109.153,263.307,110.608,262.362,111.259,262.732z"/>
			<path style="fill:#E7E6E7;" d="M111.259,258.795c0.236,0.125,0.418,0.394,0.403,0.796c-0.03,1.183-1.171,2.345-1.993,2.318
				c-0.566-0.034-0.79-0.541-0.707-1.079C109.153,259.37,110.608,258.424,111.259,258.795z"/>
			<polygon style="fill:#202740;" points="111.488,247.081 111.488,249.551 106.247,252.305 106.247,249.835 			"/>
			<path style="fill:#A39EA1;" d="M111.259,262.725v0.007c-0.061-0.035-0.122-0.055-0.183-0.069
				c-0.662-0.159-1.939,0.761-2.114,2.103c-0.079,0.517,0.109,0.831,0.38,0.989c-0.479-0.256-0.958-0.505-1.437-0.754
				c-0.335-0.18-0.418-0.623-0.38-1.003c0.053-0.65,0.578-1.467,1.156-1.827c0.327-0.206,0.8-0.382,1.148-0.201
				C110.309,262.227,110.788,262.476,111.259,262.725z"/>
			<path style="fill:#A39EA1;" d="M111.259,258.788v0.007c-0.061-0.035-0.122-0.055-0.183-0.069
				c-0.662-0.159-1.939,0.761-2.114,2.103c-0.076,0.496,0.09,0.811,0.373,0.989c-0.479-0.256-0.951-0.505-1.43-0.754
				c-0.335-0.18-0.418-0.623-0.38-1.003c0.053-0.65,0.578-1.46,1.156-1.827c0.35-0.221,0.814-0.374,1.148-0.194
				C110.309,258.29,110.788,258.539,111.259,258.788z"/>
			<path style="fill:#CCC9CB;" d="M107.746,241.871c-12.047,6.324-24.086,12.655-36.133,18.979l-20.321-10.676l24.025-12.62
				l0.814,0.429l12.108-6.359C90.283,232.701,86.815,230.879,107.746,241.871z"/>
			<polygon style="fill:#202740;" points="105.487,250.174 105.487,266.78 82.907,278.639 82.907,262.033 			"/>
			<path style="fill:#F2E2E3;" d="M105.487,141.919c-18.142-9.535-18.101-9.482-18.101-9.555l18.101-9.5
				C105.487,134.111,105.487,130.664,105.487,141.919z"/>
			<path style="fill:#F3E948;" d="M100.969,375.893c-3.556-1.863,4.619,2.43-54.195-28.465v-64.043
				c6.557,3.444,47.595,24.998,54.195,28.465C100.969,331.265,100.969,356.273,100.969,375.893z"/>
			<polygon style="fill:#E5D2DB;" points="46.774,354.548 46.774,347.428 98.711,374.71 98.711,381.829 			"/>
			<polygon style="fill:#DCCC5B;" points="89.683,230.87 89.683,232.385 88.238,231.624 			"/>
			<path style="fill:#F2E2E3;" d="M46.774,153.778c0,10.849,0,61.303,0,68.789l24.025,12.62l-24.025,12.613
				c0,3.563,0,18.942,0,26.092c0.776,0.408,1.529,0.803,2.259,1.19l-2.259,1.183c0,17.388,0,60.964,0,78.282l-9.02,4.746
				c-0.076,0-0.008,0.547-0.008-200.852C97.441,127.09,106.946,122.172,46.774,153.778z"/>
			<path style="fill:#D6D192;" d="M80.648,282.195l-6.776,3.563l-24.839-13.049l2.259-1.183l20.321,10.669
				C74.13,283.517,78.154,283.51,80.648,282.195z"/>
			<path style="fill:#F3E948;" d="M76.131,173.082v64.9c-2.97-1.566,6.363,3.348-29.356-15.415V157.66
				C56.562,162.801,66.35,167.941,76.131,173.082z"/>
			<path style="fill:#E6A45D;" d="M76.131,169.194v3.888c-9.78-5.141-19.568-10.282-29.356-15.423v-3.882L76.131,169.194z"/>
			<path style="fill:#5F5C58;" d="M75.332,268.835c0,2.373,0,4.746,0,7.12c-0.791-0.055-1.582-0.187-2.32-0.401
				c0-2.373,0-4.746,0-7.12C73.758,268.655,74.549,268.786,75.332,268.835z"/>
			<polygon style="fill:#DCCC5B;" points="75.317,237.554 51.292,250.174 51.292,271.526 49.033,272.709 49.033,248.991 
				73.058,236.371 			"/>
			<polygon style="fill:#F3E948;" points="73.872,290.498 73.872,297.618 46.774,283.385 46.774,276.266 			"/>
			<path style="fill:#F3E948;" d="M73.872,285.759v2.366c-8.256-4.332-18.808-9.87-27.098-14.232c0-6.297,0-22.796,0-26.092
				l2.259,1.19v23.718L73.872,285.759z"/>
			<polygon style="fill:#D6D192;" points="73.058,236.371 49.033,248.991 46.774,247.801 70.799,235.188 			"/>
			<polygon style="fill:#A39EA1;" points="71.613,260.85 71.613,282.195 51.292,271.526 51.292,250.174 			"/>
			<polygon style="fill:#F5F1F2;" points="37.747,158.442 37.747,359.287 30.97,355.731 30.97,154.885 			"/>
		</g>
	</g>
	<polygon style="fill:#DE5050;" points="170.736,285.065 166.69,287.19 166.69,286.045 170.736,283.919 	"/>
	<polygon style="fill:#DE5050;" points="221.528,257.689 217.482,259.815 217.482,258.669 221.528,256.544 	"/>
</g>
<g id="IDQ8VL_1_" style="opacity:0.45;">
	<g>
		<path style="fill:#827344;" d="M469.035,346.245L234.81,469.597v-7.12l193.521-101.629c0,0-21.625-1.587-31.658-1.301
			c-2.145,0.061-4.191-0.438-6.208-1.018c-1.389-0.4-2.552-1.305-4.022-1.546c-0.075-0.012-58.315-29.465-59.053-30.9
			c-0.525-1.02-1.545-2.345-2.745-1.466c-0.281,0.206-32.623-0.919-34.876-0.984c0.514,0.467,1.058,0.963,1.787,1.626
			c-5.871,3.257-10.488,5.275-15.57,8.295c-1.281,0.761-2.713,1.377-4.447,1.25c-2.21-0.162-4.523,0.292-6.647-0.128
			c-2.365-0.467-4.692-0.216-7.015-0.449c-1.632-0.163-3.055,0.378-4.229,1.097c-2.24,1.371-4.625,2.478-6.948,3.698
			c-0.232,0.122-0.398,0.35-0.648,0.577c1.17,0.704,2.288,1.464,3.491,2.085c2.846,1.47,5.759,2.83,8.594,4.316
			c4.461,2.339,10.627,5.989,12.97,6.933c0.912,0.367,0.301,0.589,0.046,0.728c-1.181,0.646-2.393,1.246-3.607,1.839
			c-4.33,2.118-8.5,4.491-12.794,6.671c-6.488,3.293-4.649,2.478-23.071,12.249c-0.221,0.117-0.474,0.307-0.693,0.288
			c-1.882-0.163-3.819,0.433-5.662-0.377c-0.378-0.166-0.89-0.123-1.337-0.107c-9.665,0.355-19.295-0.769-28.96-0.546
			c-2.512,0.058-5.032-0.368-7.553-0.453c-2.499-0.084-5.012,0.1-7.502-0.059c-1.74-0.111-3.073,0.601-4.441,1.278
			c-1.899,0.94-3.664,2.113-5.595,2.989c-1.622,0.736-3.241,1.558-4.699,2.443c-2.827,1.715-6.017,2.849-8.706,4.743
			c-1.428,0.029-2.857,0.092-4.285,0.068c-0.502-0.008-1.005-0.351-1.499-0.334c-9.665,0.342-19.298-0.845-28.959-0.503
			c-2.373,0.084-4.606-0.751-7.002-0.567c-2.392,0.184-4.815,0.059-7.224,0.022c-0.404-0.006-0.996-0.144-1.173-0.405
			c-0.84-1.24-2.133-1.107-3.418-1.097c-1.371,0.012-2.741,0.003-4.169,0.003c0-2.559-0.094-7.097-0.094-7.097l2.259,1.183
			c0,0,0-63.403-0.008-63.605c-0.018-0.46,0.139-0.604,0.668-0.831c4.663-2.006,16.582-8.571,20.946-10.78
			c0.234-0.118,0.398-0.35,0.676-0.603c-1.75-1.056-3.428-2.186-5.227-3.123c-2.234-1.164-4.618-2.093-6.836-3.278
			c-0.865-0.462-1.319-0.426-2.145,0.044c-5.252,2.99-4.642,2.306-19.378,1.602c-0.989-0.047-1.859-0.001-2.736,0.769
			c-0.888,0.779-2.228,1.139-3.386,1.653c-0.226,0.101-0.558,0.156-0.783,0.084c-1.433-0.459-2.825-0.222-4.278-0.028
			c-1.451,0.194-4.641,0.043-4.641,0.043s-0.129-6.011-0.108-7.191c0.002-0.133,0.171-0.268,0.272-0.396
			c0.641-0.805,0.622-0.773-0.237-1.231c-3.208-1.712-6.536-3.233-9.618-5.152c-1.274-0.793-2.817-1.171-4.059-2.116
			c-0.476-0.362-1.562-0.059-2.464-0.059c0,26.119-0.015,52.56-0.015,78.548c0,0-17.55-0.692-20.032-0.692
			c0-70.702-0.152-140.138-0.152-200.915c0,0,0,0,1.224-0.632l8.119-4.224c1.678,3.83,3.275,7.593,4.593,11.451
			c3.968,11.614,3.034,9.948,6.198,18.664c0.221,0.608,0.033,1.339,0.033,2.013c0,13.236,0,26.471,0,39.707
			c0,0.59,0.009,2.038-0.026,2.626c-0.035,0.591,18.558,9.743,18.558,9.743v-68.789c0,0,9.905-4.895,14.421-7.478
			c3.893-2.226,26.221-13.867,26.221-13.867l0.001,6.575l0.897,1.902l0.007-27.844l18.063-9.486l-11.446-6.013l17.317-9.022
			l22.332,59.832l6.932,3.572l0.092-47.988l60.972-32.021h67.74l3.671,69.385c0,0,13.373,7.706,16.614,9.526
			c0.207,0.116,0.596,0.37,0.596,0.37s-0.072,1.441,1.038,2.872c1.219,1.572,2.691,1.759,3.29,1.223
			c1.171-1.047-0.027-3.193-0.027-3.193s1.607-0.999,2.357-1.416l0.947,0.293c0.443,2.338,1.253,5.451,1.253,5.451l0.006,32.524
			l-4.029-6.229c0,0-0.268,0.743-0.125,0.986c1.099,1.864,2.149,3.756,3.355,5.562c0.29,0.435,0.799,2.498,0.799,2.498
			s0,4.01,0,4.899c-2.557-3.948-9.576-15.096-9.576-15.096s-0.582-0.344-0.709-0.261c-0.12,0.078-0.246,0.307-0.202,0.408
			c0.682,1.551,3.641,5.828,9.332,14.341c0.045,0.067-0.839-1.094-1.801-2.179c-0.823-0.928-1.742-1.799-1.742-1.799
			s-1.941-1.663-2.743-2.135c-0.868-0.51-2.644-1.457-2.644-1.457s-2.905-4.577-3.244-5.112c-0.338-0.534-0.775,0.41-0.634,0.628
			c0.141,0.218,2.684,4.147,2.573,3.975c-0.112-0.172-2.737-0.792-4.254-0.536c0,0-1.431-2.435-1.808-2.264
			c-0.377,0.171,0.64,1.372,0.767,2.446c-0.273,0.074-1.171,0.397-1.313,0.458c-0.749,0.321-1.472,1.041-1.472,1.041l-1.272-1.939
			c-0.755-0.474-0.753,0.202-0.732,0.485c0.009,0.127,1.502,1.506,1.382,1.913c0,0-1.275,0.208-1.822,0.586
			c-0.182,0.126-0.958,0.411-1.253,0.844l-1.513-2.38c-0.115-0.082-0.491,0.498-0.073,1.311c0.325,0.634,0.898,1.823,0.545,2.245
			c-0.994,1.187-0.406,3.918,0.122,5.253c1.279,3.236,4.529,11.352,4.529,11.352s-1.521,0.855-1.325,1.185
			c0.196,0.329,0.551,0.075,0.745-0.022c1.737-0.872,3.492-1.725,5.163-2.695c0.663-0.385,1.036-0.205,1.348,0.231
			c0.895,1.256,2.548,3.856,2.548,3.856s0.006,0.596-0.19,0.648c-7.233,1.949-4.719,3.785-4.352,4.119
			c-0.919,0.207-1.292,0.222-2.082-0.668c-0.353-0.397-0.998-0.62-1.557-0.809c-0.305-0.103-1.043,0.085-1.043,0.085l0.293,1.703
			l-14.802,8.749l2.852,11.917c0,0-1.638,0.626-2.213,1.325c-0.182,0.221-0.233,1.389,0.304,2.557
			c0.667,1.392,2.14,2.659,3.458,2.379c0.947-0.28,1.054-1.554,0.991-2.107c-0.049-0.422-0.479-0.955-0.314-1.217
			c0.293-0.466,0.88-0.803,1.398-1.123c0.419-0.258,0.166-0.107,0.741-0.355c0,0,5.11,10.563,5.413,11.457
			c0.278,0.821,0.198,5.3-2.533,1.56c-0.078-0.063-0.743,0.228-0.758,0.386c-0.072,0.72,3.086,10.029,4.419,13.999
			c1.004,2.99,2.264,5.917,3.086,8.945c0.849,3.13,2.125,6.128,3.052,9.231c0.9,3.015,2.157,5.941,3.055,8.956
			c1.834,6.155,2.516,6.72,2.469,6.911c-0.565,2.283,5.102,4.716,5.102,4.716l-0.611-64.049l4.518-2.373
			c0,0,0.009,0.708,0.426,1.155c0.417,0.448,4.25,2.278,4.25,2.278s-0.073-17.283-0.158-23.895c-0.028-2.19,0.492-2.958,2.251-4.447
			c1.648,5.13,3.609,7.808,3.659,11.525c0.075,5.647,0.075,11.297-0.005,16.944c-0.018,1.267,1.15,2.545,1.72,2.831
			s42.189,22.139,42.189,22.139s0.05,4.96,0.05-125.128c1.862,1.104,3.81,1.384,5.68,1.035c1.734-0.324,3.447-0.773,5.044-1.752
			c2.703-1.656,47.795-25.172,47.795-25.172s20.321,56.857,20.321,56.355c0.008-14.247,0-45.762,0-45.762l6.776-3.556
			C469.141,285.483,468.976,237.361,469.035,346.245z M330.042,286.02c0,0-0.003,24.009,0.01,35.135
			c0.001,0.476,0.094,1.172,0.802,1.85c1.481,1.419,52.549,27.735,52.549,27.735c0-72.498,0.007-66.399,0.007-66.399
			s1.912,1.113,4.145,1.187c0,0,0-0.531-0.854-0.959c-13.103-6.564-9.805-4.921-17.366-8.878c-1.858-0.973-3.936-1.632-5.69-2.73
			c-3.843-2.406-3.845-2.022-21.883-11.761c-1.101-0.595-1.591-0.38-2.284,0.957c-0.148,0.287-0.09,6.162-0.047,8.103
			c0.158,7.243,0.063,14.491,0.063,21.737c0,0.337,0.069,0.691-0.024,1.005c-0.063,0.212-0.328,0.47-0.554,0.521
			c-0.227,0.051-0.546-0.085-0.773-0.214c-1.735-0.983-4.653-2.522-5.825-4.002c-0.343-0.433-1.042-1.238,0.104-1.979
			L330.042,286.02z M84.381,259.062c-2.594-1.716-5.203-3.226-8.554-3.212c-3.654,0.016-6.225,0.004-13.318,0.004
			c0,7.222,0.088,14.551,0.088,21.609c0,0-3.28-0.357-4.84-0.357c-0.545,1.519,0.157,2.369,1.513,3.041
			c10.339,5.123,12.806,6.642,14.29,7.465c0.211-1.69,0.252-1.764,1.933-2.757c0.432-0.255,0.899-0.462,1.362-0.668
			c0.229-0.102,0.513-0.116,0.721-0.24c0.231-0.138,0.405-0.355,0.779-0.698c-2.027-0.223-3.781,0.258-5.287-0.866
			c0.205,0.1-0.911-0.385-1.056-1.366c0,0,0.04-12.471,0.046-18.707c0-0.465,0.064-0.931,0.095-1.351
			C76.733,262.696,80.516,261.064,84.381,259.062z M333.554,286.491c0-9.469-0.027-21.742,0-22.55c0.027-0.808,0-1.907,0.868-3.054
			c0.384-0.508,1.383-1.226,1.383-1.226l-2.982-1.529l0.889-0.967l-3.678-1.887c0.095,0.943,1.261,2.017,1.261,2.017
			s-1.171,0.597-1.871,2.02c-0.465,0.945-0.522,2.361-0.359,4.388c0.042,0.527-0.004,12.668,0,18.648
			c0,0.752,0.159,1.548,0.545,2.077C330.023,284.995,332.741,286.055,333.554,286.491z"/>
		<path style="fill:#827344;" d="M87.386,132.364l18.101-9.5c0.217,1.102,7.44,22.409,7.401,22.697
			c-0.251-0.046-0.741-0.149-0.741-0.149L87.386,132.364z"/>
		<polygon style="fill:#827344;" points="346.249,179.383 346.249,165.052 370.12,177.732 370.12,181.503 351.717,171.627 
			351.593,179.857 		"/>
		<path style="fill:#827344;" d="M329.037,238.798c0,0-0.914-0.586-1.215-0.635c-1.091-0.176-1.281,0.06-0.915,0.986
			c0.108,0.273,0.136,0.572,0.201,0.859c-0.345,0.055-0.72,0.215-1.028,0.142c-0.741-0.176-1.481-0.408-2.156-0.73
			c-0.27-0.129-0.439-0.545,0.391-0.623c1.62-0.153,0.398-2.561,0.217-2.822c-0.373-0.536-0.81-1.037-1.149-1.589
			c-0.099-0.16,0.047-0.445,0.081-0.673c0.065,0.02,0.669,0.912,0.669,0.912s0.881-0.159,1.088-0.331
			c2.976-1.53,3.124-3.526,3.183-6.017c0.023-0.978,0.263-5.132-0.189-6.188c-3.446,1.686-8.794,4.576-8.908,5.499
			c-1.164-1.708-2.259-3.317-3.312-4.863c-0.311-0.457-0.158-1.08,0.328-1.346c6.966-3.818,9.143-5.008,9.343-4.691
			c0.398,0.63,0.962,0.37,0.962,0.37c0.837,1.245,1.693,0.519,2.804,0.239c0,3.456,0.101,10.973,0.101,10.973
			c-0.675,1.14-0.478,2.91-0.495,5.276C329.018,236.184,329.037,238.798,329.037,238.798z"/>
		<path style="fill:#827344;" d="M329.43,143.55c-2.402-1.162-3.819-6.67-3.943-8.069c0,0-0.188,0.386-0.509,0.283
			c-0.254-0.081-0.367-0.409-0.284-0.48c0.728-0.618,1.03-0.892,0.433-2.891c-0.654-1.012-0.192-0.828,0.359-1.187
			c1.522-0.991,1.514-0.997,2.329,0.51c0.152,0.281,0.48,0.548,0.479,0.822c-0.002,1.789,1.207,5.152,1.207,5.152
			S329.43,141.519,329.43,143.55z"/>
	</g>
</g>
</svg>
