<?xml version="1.0" encoding="utf-8"?>
<!-- Generator: Adobe Illustrator 27.5.0, SVG Export Plug-In . SVG Version: 6.00 Build 0)  -->
<svg version="1.1" id="Ñëîé_1" xmlns="http://www.w3.org/2000/svg" xmlns:xlink="http://www.w3.org/1999/xlink" x="0px" y="0px"
	 viewBox="0 0 4000 4000" style="enable-background:new 0 0 4000 4000;" xml:space="preserve">
<rect style="fill-rule:evenodd;clip-rule:evenodd;fill:#FFFFFF;" width="4000" height="4000"/>
<path style="fill-rule:evenodd;clip-rule:evenodd;fill:#F7F3E4;" d="M2111.038,406.891
	c690.548,0,1471.083,395.854,1483.295,1580.055c7.499,743.245-784.606,1451.943-1546.073,1467.776
	c-776.893,15.834-1523.575-676.07-1544.572-1413.557C477.978,1130.943,1144.314,406.891,2111.038,406.891L2111.038,406.891z"/>
<g>
	<path style="fill-rule:evenodd;clip-rule:evenodd;fill:#FCE395;" d="M2232.476,2452.958
		c579.158,0,1233.787,148.249,1244.03,591.736c6.289,278.348-658.044,543.758-1296.681,549.687
		c-651.575,5.93-1277.812-253.19-1295.423-529.382C862.839,2724.117,1421.691,2452.958,2232.476,2452.958L2232.476,2452.958z"/>
	<path style="fill-rule:evenodd;clip-rule:evenodd;fill:#FCE395;" d="M2218.46,2604.8c425.159,0,905.844,108.716,913.211,434.323
		c4.852,204.313-483.021,399.103-951.666,403.416c-478.349,4.492-938.188-185.625-950.947-388.501
		C1213.245,2803.723,1623.309,2604.8,2218.46,2604.8L2218.46,2604.8z"/>
	<path style="fill-rule:evenodd;clip-rule:evenodd;fill:#F4C27A;" d="M2214.326,2650.623c378.438,0,806.292,97.035,812.941,386.704
		c4.313,182.031-430.01,355.437-847.263,359.39c-425.878,3.774-835.224-165.499-846.544-346.093
		C1319.265,2827.802,1684.406,2650.623,2214.326,2650.623L2214.326,2650.623z"/>
	<path style="fill-rule:evenodd;clip-rule:evenodd;fill:#F4C27A;" d="M1054.574,3071.648
		c-53.369-12.399-77.808-20.485-134.592-37.916c61.456-21.024,89.309-22.642,131.716-33.064
		c41.689,10.781,80.504,12.578,140.522,33.962c-58.042,17.071-83.019,24.977-137.287,36.837l-0.18-0.18
		C1054.754,3071.469,1054.754,3071.648,1054.574,3071.648L1054.574,3071.648z"/>
	<path style="fill-rule:evenodd;clip-rule:evenodd;fill:#F4C27A;" d="M3300.225,3071.648
		c-53.549-12.399-77.808-20.485-134.592-37.916c61.276-21.024,89.309-22.642,131.537-33.064
		c41.689,10.781,80.683,12.578,140.521,33.962c-58.042,17.071-82.84,24.977-137.287,36.837v-0.18
		C3300.225,3071.469,3300.225,3071.648,3300.225,3071.648L3300.225,3071.648z"/>
	<path style="fill-rule:evenodd;clip-rule:evenodd;fill:#F4C27A;" d="M2152.691,2534c11.86-21.743,19.766-31.626,36.837-54.807
		c21.564,24.079,23.361,35.4,33.963,52.111c-10.242,16.891-11.68,32.525-32.704,57.143c-17.61-23.001-25.697-32.884-37.916-54.268
		c0-0.18,0-0.18,0.179-0.18C2152.691,2534,2152.691,2534,2152.691,2534L2152.691,2534z"/>
	<path style="fill-rule:evenodd;clip-rule:evenodd;fill:#F4C27A;" d="M2152.691,3510.284c11.86-21.743,19.766-31.626,36.837-54.807
		c21.564,24.259,23.361,35.4,33.963,52.111c-10.242,16.892-11.68,32.705-32.704,57.143c-17.61-23.001-25.697-32.705-37.916-54.268
		c0,0,0,0,0.179,0C2152.691,3510.464,2152.691,3510.284,2152.691,3510.284L2152.691,3510.284z"/>
</g>
<g>
	<path style="fill-rule:evenodd;clip-rule:evenodd;fill:#8E623F;" d="M1131.714,2425.408c-4.604,10.805,0.245,118.61,0.798,184.423
		c1.903,1.351,54.455,2.394,87.361,0.798c1.044-40.273,0.43-158.76,0.246-189.641
		C1220.119,2420.988,1157.007,2418.839,1131.714,2425.408L1131.714,2425.408z"/>
	<path style="fill-rule:evenodd;clip-rule:evenodd;fill:#8E623F;" d="M3166.872,2425.408c-4.604,10.805,0.307,118.61,0.798,184.423
		c1.903,1.351,54.455,2.394,87.423,0.798c0.982-40.273,0.368-158.76,0.184-189.641
		C3255.277,2420.988,3192.166,2418.839,3166.872,2425.408L3166.872,2425.408z"/>
	<path style="fill-rule:evenodd;clip-rule:evenodd;fill:#E69845;" d="M1094.448,2353.333c3.193,14.857-9.638,118.733,11.91,133.713
		c1091.496,6.937,1410.183,2.456,2184.526-2.885c-2.701-13.813-15.164-109.831-22.224-136.598
		c-472.354-5.648-988.602,4.727-1469.98,3.315C1795.857,2350.878,1114.708,2348.79,1094.448,2353.333L1094.448,2353.333z"/>
	<path style="fill-rule:evenodd;clip-rule:evenodd;fill:#FACE87;" d="M1045.826,1857.774
		c55.499-45.738,423.485-248.639,464.986-248.026c540.069,7.797,1021.324-3.315,1448.063,8.718
		c54.701,14.366,289.281,185.712,333.668,215.426C3353.136,1874.534,1044.352,1859.002,1045.826,1857.774L1045.826,1857.774z"/>
	<path style="fill-rule:evenodd;clip-rule:evenodd;fill:#F2AE66;" d="M1045.826,1857.774c3.254,61.638-9.946,491.692,12.279,553.821
		c1127.901,28.793,1457.21,10.13,2257.399-12.094c-2.824-57.156-15.655-454.856-22.961-565.608
		c-488.131-23.513-1021.631,19.646-1519.033,13.813C1770.563,1847.644,1066.699,1838.865,1045.826,1857.774L1045.826,1857.774z"/>
	<path style="fill-rule:evenodd;clip-rule:evenodd;fill:#DE9342;" d="M1079.653,1902.099c1.596,53.288-4.666,425.081,5.832,479.045
		c718.046-2.456,690.296,18.602,1069.333,4.911c-1.289-49.482-7.367-393.464-10.866-489.358
		C2082.252,1890.373,1084.994,1893.381,1079.653,1902.099L1079.653,1902.099z"/>
	<path style="fill-rule:evenodd;clip-rule:evenodd;fill:#DE9342;" d="M2188.707,1902.099c1.535,53.288-4.727,425.081,5.832,479.045
		c717.984-2.456,689.867,2.763,1068.965-10.989c-1.351-49.482-7.06-377.563-10.56-473.458
		C3191.244,1890.373,2193.986,1893.381,2188.707,1902.099L2188.707,1902.099z"/>
	<path style="fill-rule:evenodd;clip-rule:evenodd;fill:#8E623F;" d="M2257.712,2146.564c23.083,39.168,67.716-8.533,37.142-30.267
		C2270.788,2099.169,2244.267,2123.726,2257.712,2146.564L2257.712,2146.564z"/>
	<path style="fill-rule:evenodd;clip-rule:evenodd;fill:#8E623F;" d="M2044.68,2146.564c23.022,39.168,67.716-8.533,37.081-30.267
		C2057.695,2099.169,2031.235,2123.726,2044.68,2146.564L2044.68,2146.564z"/>
</g>
<path style="fill-rule:evenodd;clip-rule:evenodd;fill:#699C75;" d="M2454.956,684.232c-4.503,39.988,11.296,202.1-137.538,418.094
	c-85.996,124.775-97.782,366.038-32.757,464.952c42.484,64.613,94.256,120.478,150.481,152.205h189.568
	c46.987-29.36,93.51-83.526,137.254-169.935c105.424-208.275-37.877-419.741-157.351-599.299
	c-26.375-39.679-31.651-75.009-33.143-269.234C2545.585,673.58,2509.148,684.232,2454.956,684.232L2454.956,684.232z"/>
<g>
	<path style="fill-rule:evenodd;clip-rule:evenodd;fill:#53875F;" d="M2168.891,1251.589c-2.65,20.2,6.69,102.156-81.493,211.311
		c-50.949,63.095-57.923,185.039-19.402,235.036c25.166,32.654,55.839,60.908,89.162,76.939h112.32
		c27.842-14.847,55.401-42.226,81.313-85.893c62.478-105.27-22.438-212.161-93.227-302.944
		c-15.619-20.045-18.759-37.903-19.634-136.071C2222.594,1246.211,2201.005,1251.589,2168.891,1251.589L2168.891,1251.589z"/>
	<path style="fill-rule:evenodd;clip-rule:evenodd;fill:#41704C;" d="M2232.964,1244.924c-1.312-0.72-15.594-4.091-30.338-4.014
		c-16.572,0.077-33.735,3.963-33.735,10.679C2175.324,1267.594,2258.619,1259.54,2232.964,1244.924L2232.964,1244.924z"/>
</g>
<g>
	<path style="fill-rule:evenodd;clip-rule:evenodd;fill:#EBC890;" d="M1710.359,503.322c6.113-8.102,58.682-29.155,113.49-56.154
		c63.137-31.123,120.97-60.754,137.837-68.918c0.145-0.062,22.068-9.884,18.939-4.517c-1.886,3.253-77.414,37.236-147.451,72.172
		C1774.781,475.017,1750.247,488.61,1710.359,503.322L1710.359,503.322z"/>
	<path style="fill-rule:evenodd;clip-rule:evenodd;fill:#EBC890;" d="M2249.376,504.296c-6.113-8.122-58.682-29.154-113.49-56.154
		c-63.137-31.123-120.949-60.754-137.836-68.918c-0.145-0.062-22.068-9.884-18.939-4.517c1.885,3.253,77.414,37.215,147.451,72.151
		C2184.954,475.991,2209.488,489.584,2249.376,504.296L2249.376,504.296z"/>
	<path style="fill-rule:evenodd;clip-rule:evenodd;fill:#9A7D65;" d="M1977.205,371.764c-8.185,2.445-13.013,13.241-8.889,19.043
		C1983.608,412.294,2009.115,371.764,1977.205,371.764L1977.205,371.764z"/>
	<path style="fill-rule:evenodd;clip-rule:evenodd;fill:#FFD99C;" d="M1699.563,478.809c16.701-6.03,340.903,4.04,558.889,4.434
		c-2.859,70.907,4.144,537.754-11.645,541.981c-2.425,0.663-544.529,1.409-551.098-0.974
		c-12.909-54.994-9.573-454.061,4.248-538.872L1699.563,478.809z"/>
	<path style="fill-rule:evenodd;clip-rule:evenodd;fill:#EBC890;" d="M1705.779,1050.835c15.562-2.777,11.687-35.475-7.377-28.077
		c-3.896,1.533-9.697,23.995,1.658,27.746c-4.248,25.342-15.582,84.625-9.843,84.625c30.916,0,21.964,7.273,21.301-51.347
		C1711.353,1068.821,1708.825,1059.04,1705.779,1050.835L1705.779,1050.835z"/>
	<path style="fill-rule:evenodd;clip-rule:evenodd;fill:#EBC890;" d="M1759.219,1051.249c-15.562-2.777-9.117-41.152,7.377-28.057
		c4.703,3.73,10.505,26.192-1.658,27.725c4.248,25.342,15.582,84.667,9.822,84.625c-15.044-0.104-25.735,1.865-24.182-1.969
		c2.653-6.589,0.87-16.142,2.88-49.378C1754.37,1069.276,1756.173,1059.455,1759.219,1051.249L1759.219,1051.249z"/>
	<path style="fill-rule:evenodd;clip-rule:evenodd;fill:#EBC890;" d="M1825.796,1050.835c15.562-2.777,11.687-35.475-7.377-28.077
		c-3.895,1.533-9.697,23.995,1.637,27.746c-4.227,25.342-15.562,84.625-9.822,84.625c30.916,0,21.964,7.273,21.301-51.347
		C1831.37,1068.821,1828.842,1059.04,1825.796,1050.835L1825.796,1050.835z"/>
	<path style="fill-rule:evenodd;clip-rule:evenodd;fill:#EBC890;" d="M1879.235,1051.249c-15.562-2.777-9.117-41.152,7.377-28.057
		c4.703,3.73,10.506,26.192-1.658,27.725c4.248,25.342,15.582,84.667,9.822,84.625c-15.043-0.104-25.735,1.865-24.181-1.969
		c2.652-6.589,0.849-16.142,2.88-49.378C1874.387,1069.276,1876.19,1059.455,1879.235,1051.249L1879.235,1051.249z"/>
	<path style="fill-rule:evenodd;clip-rule:evenodd;fill:#EBC890;" d="M1945.792,1050.835c15.562-2.777,11.708-35.475-7.356-28.077
		c-3.895,1.533-9.697,23.995,1.637,27.746c-4.227,25.342-15.562,84.625-9.822,84.625c30.916,0,21.964,7.273,21.301-51.347
		C1951.386,1068.821,1948.858,1059.04,1945.792,1050.835L1945.792,1050.835z"/>
	<path style="fill-rule:evenodd;clip-rule:evenodd;fill:#EBC890;" d="M1999.252,1051.249c-15.562-2.777-9.117-41.152,7.377-28.057
		c4.704,3.73,10.505,26.192-1.658,27.725c4.248,25.342,15.582,84.667,9.822,84.625c-15.043-0.104-25.735,1.865-24.202-1.969
		c2.673-6.589,0.87-16.142,2.901-49.378C1994.403,1069.276,1996.206,1059.455,1999.252,1051.249L1999.252,1051.249z"/>
	<path style="fill-rule:evenodd;clip-rule:evenodd;fill:#EBC890;" d="M2065.808,1050.835c15.562-2.777,11.707-35.475-7.356-28.077
		c-3.896,1.533-9.697,23.995,1.637,27.746c-4.227,25.342-15.562,84.625-9.822,84.625c30.916,0,21.964,7.273,21.301-51.347
		C2071.403,1068.821,2068.875,1059.04,2065.808,1050.835L2065.808,1050.835z"/>
	<path style="fill-rule:evenodd;clip-rule:evenodd;fill:#EBC890;" d="M2119.268,1051.249c-15.562-2.777-9.117-41.152,7.377-28.057
		c4.704,3.73,10.506,26.192-1.658,27.725c4.248,25.342,15.562,84.667,9.822,84.625c-15.043-0.104-25.756,1.865-24.202-1.969
		c2.673-6.589,0.87-16.142,2.901-49.378C2114.42,1069.276,2116.223,1059.455,2119.268,1051.249L2119.268,1051.249z"/>
	<path style="fill-rule:evenodd;clip-rule:evenodd;fill:#EBC890;" d="M2185.825,1050.835c15.562-2.777,11.687-35.475-7.356-28.077
		c-3.895,1.533-9.697,23.995,1.637,27.746c-4.227,25.342-15.562,84.625-9.822,84.625c30.916,0,21.964,7.273,21.301-51.347
		C2191.419,1068.821,2188.892,1059.04,2185.825,1050.835L2185.825,1050.835z"/>
	<path style="fill-rule:evenodd;clip-rule:evenodd;fill:#EBC890;" d="M2239.285,1051.249c-15.562-2.777-9.117-41.152,7.377-28.057
		c4.704,3.73,10.506,26.192-1.657,27.725c4.227,25.342,15.562,84.667,9.822,84.625c-15.043-0.104-25.756,1.865-24.202-1.969
		c2.673-6.589,0.87-16.142,2.901-49.378C2234.436,1069.276,2236.239,1059.455,2239.285,1051.249L2239.285,1051.249z"/>
	<path style="fill-rule:evenodd;clip-rule:evenodd;fill:#EBC890;" d="M2257.416,872.053c-1.243,86.013-3.958,152.237-9.864,153.833
		c-2.424,0.642-544.529,1.388-551.098-0.995c-4.455-18.98-6.983-78.947-7.791-152.839H2257.416z"/>
	<path style="fill-rule:evenodd;clip-rule:evenodd;fill:#EBC890;" d="M1700.143,479.555c16.701-6.05,340.903,4.02,558.889,4.435
		c-0.622,15.479-0.788,49.855-0.808,94.177h-565.105c1.948-40.883,4.434-73.767,7.418-92.043L1700.143,479.555z"/>
	<path style="fill-rule:evenodd;clip-rule:evenodd;fill:#F2AE66;" d="M1968.419,795.385c41.484,5.698,87.567-23.829,74.637-98.156
		c-13.469-77.538-90.095-75.818-126.523-35.806C1878.987,702.659,1883.048,783.616,1968.419,795.385L1968.419,795.385z"/>
</g>
<g>
	<path style="fill-rule:evenodd;clip-rule:evenodd;fill:#EBC890;" d="M1077.488,867.456c5.163-6.844,49.568-24.626,95.863-47.433
		c53.331-26.289,102.182-51.318,116.429-58.214c0.122-0.053,18.64-8.349,15.997-3.816c-1.593,2.748-65.391,31.452-124.55,60.962
		C1131.905,843.547,1111.181,855.029,1077.488,867.456L1077.488,867.456z"/>
	<path style="fill-rule:evenodd;clip-rule:evenodd;fill:#EBC890;" d="M1532.789,868.279c-5.163-6.861-49.568-24.626-95.863-47.433
		c-53.331-26.289-102.164-51.318-116.429-58.214c-0.123-0.052-18.641-8.349-15.998-3.815c1.593,2.748,65.391,31.435,124.55,60.945
		C1478.373,844.37,1499.096,855.852,1532.789,868.279L1532.789,868.279z"/>
	<path style="fill-rule:evenodd;clip-rule:evenodd;fill:#9A7D65;" d="M1302.89,756.331c-6.914,2.065-10.992,11.184-7.509,16.085
		C1308.298,790.566,1329.844,756.331,1302.89,756.331L1302.89,756.331z"/>
	<path style="fill-rule:evenodd;clip-rule:evenodd;fill:#FFD99C;" d="M1068.369,846.75c14.107-5.093,287.956,3.413,472.086,3.745
		c-2.415,59.895,3.501,454.233-9.837,457.804c-2.048,0.56-459.956,1.19-465.505-0.823c-10.904-46.452-8.086-383.539,3.588-455.178
		L1068.369,846.75z"/>
	<path style="fill-rule:evenodd;clip-rule:evenodd;fill:#EBC890;" d="M1073.62,1329.933c13.145-2.345,9.872-29.965-6.231-23.717
		c-3.29,1.295-8.191,20.268,1.4,23.437c-3.588,21.406-13.162,71.481-8.314,71.481c26.115,0,18.553,6.143,17.993-43.372
		C1078.328,1345.125,1076.193,1336.864,1073.62,1329.933L1073.62,1329.933z"/>
	<path style="fill-rule:evenodd;clip-rule:evenodd;fill:#EBC890;" d="M1118.76,1330.283c-13.145-2.345-7.701-34.761,6.231-23.699
		c3.973,3.15,8.874,22.123-1.4,23.419c3.588,21.406,13.162,71.517,8.296,71.481c-12.707-0.088-21.739,1.575-20.426-1.663
		c2.24-5.566,0.735-13.635,2.433-41.709C1114.664,1345.511,1116.187,1337.214,1118.76,1330.283L1118.76,1330.283z"/>
	<path style="fill-rule:evenodd;clip-rule:evenodd;fill:#EBC890;" d="M1174.996,1329.933c13.145-2.345,9.872-29.965-6.231-23.717
		c-3.29,1.295-8.191,20.268,1.383,23.437c-3.571,21.406-13.145,71.481-8.297,71.481c26.114,0,18.553,6.143,17.993-43.372
		C1179.705,1345.125,1177.569,1336.864,1174.996,1329.933L1174.996,1329.933z"/>
	<path style="fill-rule:evenodd;clip-rule:evenodd;fill:#EBC890;" d="M1220.136,1330.283c-13.145-2.345-7.701-34.761,6.231-23.699
		c3.973,3.15,8.874,22.123-1.4,23.419c3.588,21.406,13.162,71.517,8.296,71.481c-12.707-0.088-21.739,1.575-20.426-1.663
		c2.24-5.566,0.717-13.635,2.433-41.709C1216.041,1345.511,1217.563,1337.214,1220.136,1330.283L1220.136,1330.283z"/>
	<path style="fill-rule:evenodd;clip-rule:evenodd;fill:#EBC890;" d="M1276.355,1329.933c13.145-2.345,9.889-29.965-6.214-23.717
		c-3.29,1.295-8.191,20.268,1.383,23.437c-3.571,21.406-13.145,71.481-8.296,71.481c26.114,0,18.553,6.143,17.993-43.372
		C1281.081,1345.125,1278.946,1336.864,1276.355,1329.933L1276.355,1329.933z"/>
	<path style="fill-rule:evenodd;clip-rule:evenodd;fill:#EBC890;" d="M1321.513,1330.283c-13.145-2.345-7.702-34.761,6.231-23.699
		c3.973,3.15,8.874,22.123-1.4,23.419c3.588,21.406,13.162,71.517,8.296,71.481c-12.707-0.088-21.738,1.575-20.443-1.663
		c2.258-5.566,0.735-13.635,2.45-41.709C1317.417,1345.511,1318.94,1337.214,1321.513,1330.283L1321.513,1330.283z"/>
	<path style="fill-rule:evenodd;clip-rule:evenodd;fill:#EBC890;" d="M1377.731,1329.933c13.145-2.345,9.889-29.965-6.214-23.717
		c-3.29,1.295-8.191,20.268,1.383,23.437c-3.57,21.406-13.145,71.481-8.296,71.481c26.114,0,18.553,6.143,17.993-43.372
		C1382.457,1345.125,1380.322,1336.864,1377.731,1329.933L1377.731,1329.933z"/>
	<path style="fill-rule:evenodd;clip-rule:evenodd;fill:#EBC890;" d="M1422.889,1330.283c-13.145-2.345-7.701-34.761,6.231-23.699
		c3.973,3.15,8.874,22.123-1.401,23.419c3.588,21.406,13.145,71.517,8.296,71.481c-12.707-0.088-21.756,1.575-20.443-1.663
		c2.258-5.566,0.735-13.635,2.45-41.709C1418.793,1345.511,1420.316,1337.214,1422.889,1330.283L1422.889,1330.283z"/>
	<path style="fill-rule:evenodd;clip-rule:evenodd;fill:#EBC890;" d="M1479.108,1329.933c13.145-2.345,9.872-29.965-6.213-23.717
		c-3.291,1.295-8.191,20.268,1.383,23.437c-3.571,21.406-13.145,71.481-8.296,71.481c26.114,0,18.553,6.143,17.993-43.372
		C1483.834,1345.125,1481.698,1336.864,1479.108,1329.933L1479.108,1329.933z"/>
	<path style="fill-rule:evenodd;clip-rule:evenodd;fill:#EBC890;" d="M1524.265,1330.283c-13.145-2.345-7.701-34.761,6.231-23.699
		c3.973,3.15,8.874,22.123-1.4,23.419c3.571,21.406,13.145,71.517,8.296,71.481c-12.707-0.088-21.756,1.575-20.443-1.663
		c2.258-5.566,0.735-13.635,2.45-41.709C1520.17,1345.511,1521.692,1337.214,1524.265,1330.283L1524.265,1330.283z"/>
	<path style="fill-rule:evenodd;clip-rule:evenodd;fill:#DBB070;" d="M1539.58,1233.214c-1.05,42.422-3.343,75.084-8.331,75.871
		c-2.048,0.317-459.957,0.685-465.505-0.49c-3.763-9.361-5.898-38.937-6.581-75.38H1539.58z"/>
	<path style="fill-rule:evenodd;clip-rule:evenodd;fill:#DBB070;" d="M1068.859,846.011c14.107-0.818,287.956,0.543,472.086,0.599
		c-0.525,2.091-0.665,6.735-0.682,12.722h-477.337c1.645-5.523,3.745-9.965,6.266-12.433L1068.859,846.011z"/>
	<path style="fill-rule:evenodd;clip-rule:evenodd;fill:#F2AE66;" d="M1295.468,1114.158c35.041,4.813,73.967-20.128,63.045-82.911
		c-11.377-65.496-76.102-64.043-106.872-30.245C1219.926,1035.833,1223.357,1104.217,1295.468,1114.158L1295.468,1114.158z"/>
	<path style="fill-rule:evenodd;clip-rule:evenodd;fill:#F2AE66;" d="M1306.219,960.473c5.181,3.261,10.936-13.638,9.321-56.178
		c-1.682-44.378-11.252-43.394-15.801-20.493C1295.05,907.401,1295.557,953.736,1306.219,960.473L1306.219,960.473z"/>
	<path style="fill-rule:evenodd;clip-rule:evenodd;fill:#F2AE66;" d="M1364.741,996.1c0.499,4.718,13.547,0.117,38.669-21.267
		c26.209-22.306,21.02-27.66,4.898-19.447C1391.692,963.849,1363.728,986.379,1364.741,996.1L1364.741,996.1z"/>
	<path style="fill-rule:evenodd;clip-rule:evenodd;fill:#F2AE66;" d="M1175.364,1153.301c0.499,4.718,13.547,0.117,38.669-21.267
		c26.209-22.306,21.02-27.66,4.897-19.447C1202.315,1121.05,1174.352,1143.58,1175.364,1153.301L1175.364,1153.301z"/>
	<path style="fill-rule:evenodd;clip-rule:evenodd;fill:#F2AE66;" d="M1191.362,923.682c-4.719,0.49-0.145,13.547,21.187,38.713
		c22.252,26.255,27.616,21.077,19.437,4.938C1223.557,950.699,1201.085,922.689,1191.362,923.682L1191.362,923.682z"/>
	<path style="fill-rule:evenodd;clip-rule:evenodd;fill:#F2AE66;" d="M1353.294,1111.835c-4.719,0.49-0.145,13.547,21.187,38.713
		c22.252,26.255,27.617,21.077,19.437,4.938C1385.489,1138.853,1363.017,1110.843,1353.294,1111.835L1353.294,1111.835z"/>
	<path style="fill-rule:evenodd;clip-rule:evenodd;fill:#F2AE66;" d="M1296.321,1224.16c5.181,3.261,10.936-13.639,9.321-56.178
		c-1.682-44.378-11.252-43.394-15.801-20.493C1285.151,1171.089,1285.659,1217.424,1296.321,1224.16L1296.321,1224.16z"/>
	<path style="fill-rule:evenodd;clip-rule:evenodd;fill:#F2AE66;" d="M1483.266,1054.744c3.237-5.196-13.69-10.872-56.222-9.055
		c-44.37,1.892-43.34,11.457-20.418,15.898C1430.248,1066.164,1476.58,1065.437,1483.266,1054.744L1483.266,1054.744z"/>
	<path style="fill-rule:evenodd;clip-rule:evenodd;fill:#F2AE66;" d="M1203.46,1046.362c3.237-5.196-13.69-10.872-56.222-9.055
		c-44.37,1.892-43.34,11.457-20.418,15.898C1150.442,1057.782,1196.774,1057.056,1203.46,1046.362L1203.46,1046.362z"/>
</g>
<g>
	<path style="fill-rule:evenodd;clip-rule:evenodd;fill:#EB913D;" d="M1962.06,3209.14
		c-155.398,157.351,9.765,348.46,285.408,352.087c18.413,0.279,40.175,11.16,61.936,25.946
		c79.233,53.566,106.295,36.548,117.734,18.971c10.881-17.018,3.906-48.265-51.055-92.346
		c-51.892-42.128-113.549-55.798-237.7-86.208C1955.643,3382.951,2038.225,3301.486,1962.06,3209.14L1962.06,3209.14z"/>
	<path style="fill-rule:evenodd;clip-rule:evenodd;fill:#EB913D;" d="M2481.82,3433.728c23.993-39.059-49.939-78.955-117.734-121.64
		c-67.237-41.848-139.496-53.566-148.144-36.827c-5.859,10.881,17.855,22.599,86.208,90.393
		C2325.585,3388.81,2474.288,3446.003,2481.82,3433.728L2481.82,3433.728z"/>
	<path style="fill-rule:evenodd;clip-rule:evenodd;fill:#F59A44;" d="M2706.129,3111.772
		c82.023,29.294,148.702,96.531,135.032,112.154c-11.997,13.67-15.624,38.78-152.329-25.388
		c-1.116-0.558-125.825-50.776-128.057-48.823c-2.232,14.229-15.624,26.225-25.109,34.874
		c53.008,32.363,230.725,88.44,281.502,136.706c42.406,40.175,25.947,68.074-59.146,36.827
		c-150.097-54.961-282.339-85.929-326.698-113.549c-88.719,70.026-152.329,51.055-189.156,49.102
		c14.229,16.182,39.338,40.733,78.955,76.722c0.558,0.558,146.749,43.244,201.153,85.372c18.692,14.507,20.645,33.479,11.439,46.033
		c-24.831,34.316-277.038-73.654-364.083-82.582c-84.255-8.649-302.984-144.796-200.036-302.984
		c100.995-154.84,455.313-194.457,622.15-79.791C2670.14,3090.29,2706.129,3111.772,2706.129,3111.772L2706.129,3111.772z"/>
	<path style="fill-rule:evenodd;clip-rule:evenodd;fill:#FAA352;" d="M2304.103,2806.556c7.254,2.232,39.617,34.595,42.686,51.892
		c32.921-33.758,54.403-41.57,85.929-49.102c33.2-7.812,48.823-8.649,82.302,0.279c20.924-31.526,40.175-58.867,62.494-75.328
		c0.558-0.558,61.378,168.79,72.538,202.269c36.548,109.085-108.527,198.642-227.936,196.967
		C2208.13,3130.186,2299.081,2805.161,2304.103,2806.556L2304.103,2806.556z"/>
	<path style="fill-rule:evenodd;clip-rule:evenodd;fill:#FBD0DE;" d="M2580.862,2984.552c9.207,10.881,45.196-3.348,30.968-24.552
		C2598.997,2940.472,2567.47,2968.929,2580.862,2984.552L2580.862,2984.552z"/>
	<path style="fill-rule:evenodd;clip-rule:evenodd;fill:#A97356;" d="M2474.009,2966.697c-12.833,5.58-26.504,14.229-24.551,22.598
		c2.511,10.323,19.809,9.207,29.852,18.693c4.743,4.464,7.533,9.486,9.486,13.671c0.837,2.231-18.135,4.743-17.576,6.138
		c5.301,10.323,42.964-3.348,39.059-12.833c-0.279-1.395-16.461,6.417-17.298,4.464c-1.674-4.464-3.348-10.044-2.232-15.624
		c2.232-11.16,19.808-23.435,15.624-31.805C2501.629,2961.954,2484.052,2961.675,2474.009,2966.697L2474.009,2966.697z"/>
	<path style="fill-rule:evenodd;clip-rule:evenodd;fill:#BD7D42;" d="M2640.566,2946.052c34.037-3.069,60.541,0.837,92.067,13.949
		c8.649,3.627,10.602,5.022,9.207,5.022c-3.348,0.558-25.109-5.301-25.946-5.58c-11.997-3.627-22.598-5.022-25.667-5.58
		c-25.109-3.348-51.614-0.837-50.219-6.417C2640.287,2946.609,2639.729,2946.052,2640.566,2946.052L2640.566,2946.052z
		 M2627.732,2956.932c34.037,0,60.262,6.417,90.393,22.319c8.37,4.464,10.044,6.138,8.649,6.138c-3.348,0-24.551-7.812-25.388-8.091
		c-11.438-5.022-22.04-7.254-24.83-8.09c-24.83-5.58-51.613-5.301-49.381-10.881
		C2627.454,2957.49,2626.896,2956.932,2627.732,2956.932L2627.732,2956.932z M2628.012,2933.776
		c33.2-8.928,59.983-9.486,93.183-1.674c9.207,1.953,11.439,3.069,10.044,3.627c-3.348,0.837-25.667-1.395-26.504-1.395
		c-12.555-1.674-23.156-1.395-26.225-1.395c-25.388,1.116-51.334,8.091-50.777,2.232
		C2628.012,2934.055,2627.454,2933.776,2628.012,2933.776L2628.012,2933.776z"/>
	<path style="fill-rule:evenodd;clip-rule:evenodd;fill:#BD7D42;" d="M2323.633,3040.351
		c-29.015,12.275-49.102,26.783-68.911,51.055c-5.58,6.695-6.417,8.648-5.022,8.369c2.79-1.116,17.855-15.344,18.414-15.902
		c8.091-8.37,16.182-13.949,18.413-15.623c18.972-13.671,41.849-22.878,37.943-26.783
		C2323.911,3040.63,2324.19,3040.071,2323.633,3040.351L2323.633,3040.351z M2338.698,3043.698
		c-27.62,14.787-46.313,31.247-63.889,57.193c-4.743,7.254-5.58,9.206-4.185,8.648c2.79-1.395,16.46-16.739,17.018-17.297
		c7.254-9.207,14.786-15.624,16.739-17.297c17.855-15.344,39.617-26.783,35.432-30.41
		C2339.256,3043.977,2339.256,3043.419,2338.698,3043.698L2338.698,3043.698z M2328.096,3025.006
		c-30.41,7.254-52.45,18.135-76.164,38.78c-6.417,5.58-7.812,7.533-6.417,7.254c3.069-0.558,20.366-11.997,20.924-12.554
		c9.207-6.696,18.134-10.881,20.646-12.276c21.203-10.323,44.917-15.623,42.128-20.087
		C2328.654,3025.285,2328.934,3024.727,2328.096,3025.006L2328.096,3025.006z"/>
	<path style="fill-rule:evenodd;clip-rule:evenodd;fill:#E09D5E;" d="M2314.426,2903.924c-5.58-15.624-7.533-35.99-1.395-51.613
		c0,0,4.185,3.348,10.044,13.391c8.927,15.065,12.554,15.902,20.924,26.783c1.395,1.674-9.207-0.558-13.949-5.58
		c-3.348-3.906,0.279,23.993-7.812,0.837c-1.674-3.906-8.648,16.74-8.648,16.74L2314.426,2903.924z"/>
	<path style="fill-rule:evenodd;clip-rule:evenodd;fill:#E09D5E;" d="M2584.21,2825.248c-0.558-16.46-6.138-35.99-17.297-48.544
		c0,0-2.79,4.743-4.743,16.182c-2.79,17.018-5.859,19.25-10.044,32.363c-0.558,2.232,8.649-3.906,11.159-10.043
		c1.674-4.743,8.37,22.319,7.812-2.232c0-4.185,13.95,12.833,13.95,12.833L2584.21,2825.248z"/>
	<path style="fill-rule:evenodd;clip-rule:evenodd;fill:#543423;" d="M2399.797,3016.078c-5.859,3.906-10.323-0.837-11.718-2.79
		c-5.859-8.37-0.279-17.297,4.464-17.855C2400.913,2994.038,2412.631,3007.709,2399.797,3016.078L2399.797,3016.078z"/>
	<path style="fill-rule:evenodd;clip-rule:evenodd;fill:#543423;" d="M2569.423,2954.979c-5.58,3.627-10.322-1.116-11.438-3.069
		c-6.138-8.37-0.279-17.297,4.464-17.855C2570.54,2932.939,2582.536,2946.33,2569.423,2954.979L2569.423,2954.979z"/>
	<path style="fill-rule:evenodd;clip-rule:evenodd;fill:#FAA352;" d="M2395.054,3528.584c-2.232-3.348,12.555,30.968,4.464,29.015
		c-8.09-1.953-30.131-30.968-31.805-30.689c1.395,9.207,12.833,23.993,8.091,25.109c-3.627,0.837-29.852-20.924-29.852-18.971
		c0.279,16.739,32.921,35.99,26.783,39.338c-0.279,0-34.037-21.203-36.548-18.972c-3.069,2.79,12.275,11.718,12.275,21.482
		c0.279,5.58-15.344-3.069-16.46-0.279c-1.953,5.301,22.04,22.04,29.294,28.457c5.022,4.464-38.221-10.88-35.99-7.254
		c3.348,6.417,53.566,31.526,66.4,32.363c7.812,0.558,20.366-3.348,29.294-13.67
		C2457.269,3572.107,2401.471,3536.955,2395.054,3528.584L2395.054,3528.584z"/>
	<path style="fill-rule:evenodd;clip-rule:evenodd;fill:#FBD0DE;" d="M2413.188,3037.56c4.464,13.671-26.225,36.827-37.106,13.95
		C2366.039,3030.028,2406.772,3018.031,2413.188,3037.56L2413.188,3037.56z"/>
</g>
<g>
	<path style="fill-rule:evenodd;clip-rule:evenodd;fill:#885F2D;" d="M1624.448,2847.504c8.127,74.594,9.993,159.978,15.722,258.448
		c63.951-57.058,76.209-214.878,77.408-248.196C1718.376,2834.96,1694.128,2855.193,1624.448,2847.504L1624.448,2847.504z"/>
	<path style="fill-rule:evenodd;clip-rule:evenodd;fill:#885F2D;" d="M1091.253,2885.813
		c19.985,123.693,6.395,228.232-15.721,362.312c-63.951-79.854-76.209-301.207-77.275-347.879
		C997.458,2868.278,1021.573,2896.604,1091.253,2885.813L1091.253,2885.813z"/>
	<path style="fill-rule:evenodd;clip-rule:evenodd;fill:#885F2D;" d="M714.207,2835.364c-7.994,74.729-9.992,160.113-15.721,258.582
		c-63.951-57.058-76.075-214.878-77.275-248.196C620.411,2822.955,644.659,2843.188,714.207,2835.364L714.207,2835.364z"/>
	<path style="fill-rule:evenodd;clip-rule:evenodd;fill:#E0A499;" d="M769.365,2353.271
		c142.825-82.822,451.523-169.286,626.057-136.508c2.265,0.405,316.026,149.727,340.941,318.743
		c-117.377,59.621-533.194,147.838-712.258,149.322c-5.196-43.974-83.27-205.166-141.359-231.74
		C881.413,2452.414,765.634,2355.429,769.365,2353.271L769.365,2353.271z"/>
	<path style="fill-rule:evenodd;clip-rule:evenodd;fill:#DB9A86;" d="M1275.646,1612.46
		c35.44,74.189,134.031,548.459,119.243,607.001c-183.727,15.782-381.843-7.689-710.66,212.045
		c-107.385,71.761-292.044-539.152-289.247-610.508C404.442,1575.77,1191.444,1436.16,1275.646,1612.46L1275.646,1612.46z"/>
	<path style="fill-rule:evenodd;clip-rule:evenodd;fill:#CE907A;" d="M399.138,1792.991
		c-60.221,114.791,5.862,905.511,226.095,1051.326l425.676,102.785l668.558-102.785c0.133-0.405,0.267-0.675,0.267-1.079
		c1.465-9.712,96.859-209.753,71.012-354.084c-121.507,83.631-579.693,168.207-741.436,176.84
		c-90.997-305.389-422.612-436.366-477.503-461.456C547.159,2085.836,494.399,1950.947,399.138,1792.991L399.138,1792.991z"/>
	<path style="fill-rule:evenodd;clip-rule:evenodd;fill:#CE907A;" d="M1299.628,2063.529c8.926,75.808,7.328,130.033,21.983,188.171
		c10.125,39.927,273.658,82.957,414.751,283.807C1758.213,2299.18,1296.164,2033.853,1299.628,2063.529L1299.628,2063.529z"/>
	<path style="fill-rule:evenodd;clip-rule:evenodd;fill:#EAA18F;" d="M1299.628,2063.394c33.841-11.061,52.76-12.949,64.351-13.624
		c158.546-9.172,493.358,421.933,421.146,459.837c-17.853,9.307-28.112,25.899-48.763,25.899
		c0-72.705-77.141-192.622-179.73-297.701C1479.891,2159.165,1347.192,2084.437,1299.628,2063.394L1299.628,2063.394z"/>
	<path style="fill-rule:evenodd;clip-rule:evenodd;fill:#EAA18F;" d="M569.65,2208.409c33.841-11.061,43.967-21.717,55.558-22.392
		c158.546-9.173,493.625,437.985,421.413,475.889c-17.853,9.307-48.364,9.307-69.014,9.307c0-72.84-76.209-177.784-178.664-282.862
		C722.2,2309.576,617.214,2229.452,569.65,2208.409L569.65,2208.409z"/>
</g>
<g>
	<path style="fill-rule:evenodd;clip-rule:evenodd;fill:#809689;" d="M1709.85,1651.556c-2.823,22.204,3.763,38.575,16.183,49.866
		h151.102c9.032-10.538,11.479-26.721,11.102-51.935c-12.043-13.925-36.317-20.135-51.371-21.64
		C1817.673,1625.964,1719.823,1622.766,1709.85,1651.556L1709.85,1651.556z"/>
	<path style="fill-rule:evenodd;clip-rule:evenodd;fill:#9AB3B1;" d="M1706.087,1625.777
		c-23.898,52.876,124.006,58.521,165.968,36.317c49.113-25.779-7.339-55.511-37.446-57.957
		C1815.415,1602.819,1716.248,1603.572,1706.087,1625.777L1706.087,1625.777z"/>
	<path style="fill-rule:evenodd;clip-rule:evenodd;fill:#809689;" d="M1734.501,1629.916
		c-16.371,36.505,85.43,40.269,114.409,25.027c33.871-17.876-5.081-38.199-25.968-39.892
		C1809.77,1614.11,1741.463,1614.486,1734.501,1629.916L1734.501,1629.916z"/>
	<path style="fill-rule:evenodd;clip-rule:evenodd;fill:#F08478;" d="M1764.232,1348.222c2.634,23.71,3.763,312.554,3.763,312.554
		c0.376,0,45.538,7.903,70-3.575c-5.457-18.441-13.925-302.016-19.005-317.258c-3.199-9.597-20.511-11.855-30.107-11.102
		C1774.393,1330.158,1763.855,1343.518,1764.232,1348.222L1764.232,1348.222z"/>
	<path style="fill-rule:evenodd;clip-rule:evenodd;fill:#FCE085;" d="M1788.694,1329.217c-22.016,3.01-25.78,14.489-24.274,20.134
		c2.823,10.538,57.016,11.855,55.135-6.398C1818.99,1337.685,1805.253,1326.959,1788.694,1329.217L1788.694,1329.217z"/>
	<path style="fill-rule:evenodd;clip-rule:evenodd;fill:#EEC562;" d="M1781.732,1250.185c5.081-15.054,12.796-33.683,15.054-33.307
		c2.446,0.564-0.376,22.016,7.527,40.833c10.538,25.591,5.269,34.059-7.527,56.075
		C1772.888,1302.873,1774.017,1272.765,1781.732,1250.185L1781.732,1250.185z"/>
	<path style="fill-rule:evenodd;clip-rule:evenodd;fill:#51301D;" d="M1789.635,1297.604c3.199,5.645-1.129,43.468,1.693,43.468
		c7.151,0,5.081,1.317,6.021-14.301c0.188-2.823,2.07-26.72,0.188-27.473C1794.716,1298.168,1790.199,1298.733,1789.635,1297.604
		L1789.635,1297.604z"/>
</g>
<g>
	<path style="fill-rule:evenodd;clip-rule:evenodd;fill:#DBB070;" d="M3099.202,2734.635c154.408,5.065,312.843,2.143,328.361,1.753
		c11.363,21.882,55.582,97.009,75.386,132.072c0.065,22.272,0.26,41.167,0,48.699c-64.478,10.779-501.73,11.688-499.262,3.961
		c0,0-5.064-24.999,0-49.803C3031.868,2816.124,3099.073,2734.635,3099.202,2734.635L3099.202,2734.635z"/>
	<path style="fill-rule:evenodd;clip-rule:evenodd;fill:#EBC890;" d="M3099.202,2734.635c154.408,3.701,312.843,1.558,328.361,1.234
		c16.298,23.116,76.1,114.41,75.386,132.591c-64.478,7.922-501.73,8.571-499.262,2.857
		C3006.414,2865.213,3099.007,2734.635,3099.202,2734.635L3099.202,2734.635z"/>
	<path style="fill-rule:evenodd;clip-rule:evenodd;fill:#8E623F;" d="M3227.833,1406.645
		c-5.065,354.918-3.052,1055.535-2.013,1398.181h56.101c0.779-292.129-0.909-1173.841-1.364-1398.181H3227.833z"/>
	<path style="fill-rule:evenodd;clip-rule:evenodd;fill:#E4B2AB;" d="M3046.672,983.483c87.398,22.661,148.24-7.662,395.046-1.104
		c20.583,132.267,87.853,1113,85.97,1113c-41.881,0-551.403,30.258-544.065-12.662
		C2991.415,2037.459,3040.439,1115.685,3046.672,983.483L3046.672,983.483z"/>
	<path style="fill-rule:evenodd;clip-rule:evenodd;fill:#FCD8D3;" d="M3260.169,988.677
		c-13.246-3.182-83.762,115.449-117.332,160.577c14.415,11.038,101.619,134.149,119.41,115.319
		c50.712-53.634,73.503-91.035,103.177-131.098C3310.816,1069.258,3260.169,988.677,3260.169,988.677L3260.169,988.677z"/>
	<path style="fill-rule:evenodd;clip-rule:evenodd;fill:#C7928B;" d="M3256.532,1265.353
		c-13.181-3.182-83.698,115.449-117.267,160.512c14.35,11.104,101.554,134.215,119.345,115.385
		c50.777-53.634,73.503-91.035,103.242-131.163C3307.179,1345.868,3256.532,1265.353,3256.532,1265.353L3256.532,1265.353z"/>
	<path style="fill-rule:evenodd;clip-rule:evenodd;fill:#FCD8D3;" d="M3248.611,1541.963
		c13.181-3.117,83.698,115.449,117.267,160.577c-14.35,11.103-101.554,134.149-119.345,115.319
		c-50.712-53.634-73.503-91.035-103.177-131.098C3197.964,1622.544,3248.611,1541.963,3248.611,1541.963L3248.611,1541.963z"/>
	<path style="fill-rule:evenodd;clip-rule:evenodd;fill:#C7928B;" d="M3252.182,1818.639
		c13.246-3.182,83.762,115.449,117.267,160.577c-14.35,11.104-101.554,134.15-119.345,115.32
		c-50.712-53.634-73.503-91.035-103.177-131.098C3201.535,1899.219,3252.182,1818.639,3252.182,1818.639L3252.182,1818.639z"/>
	<path style="fill-rule:evenodd;clip-rule:evenodd;fill:#C7928B;" d="M3180.432,1281.261l-2.337-2.662
		c-32.986-37.011-65.906-74.412-99.801-110.579l-26.168,34.089c10.454,12.078,31.687,34.674,52.66,58.439
		c7.597,8.571,15.194,17.337,22.402,25.518c-6.883,8.831-14.156,18.116-21.427,27.336c-20.973,26.557-42.206,52.076-52.595,65.581
		l26.168,30.518c21.817-26.232,79.866-98.827,102.073-127.007l-1.039-1.169L3180.432,1281.261z"/>
	<path style="fill-rule:evenodd;clip-rule:evenodd;fill:#C7928B;" d="M3308.153,1276.261l2.338-2.598
		c32.92-37.076,65.906-74.477,99.736-110.644l26.168,34.09c-10.454,12.077-31.622,34.673-52.595,58.438
		c-7.662,8.636-15.259,17.337-22.467,25.519c6.948,8.831,14.155,18.116,21.427,27.336c21.038,26.557,42.206,52.075,52.66,65.581
		l-26.168,30.518c-21.817-26.232-79.931-98.826-102.073-127.007l1.039-1.169L3308.153,1276.261z"/>
	<path style="fill-rule:evenodd;clip-rule:evenodd;fill:#C7928B;" d="M3324.516,1818.704l2.662-2.987
		c37.855-42.531,75.646-85.386,114.475-126.942l30.063,39.089c-12.013,13.896-36.297,39.868-60.387,67.075
		c-8.766,9.87-17.467,19.934-25.778,29.349c7.922,10.13,16.298,20.779,24.609,31.297c24.09,30.518,48.439,59.802,60.387,75.256
		l-29.999,35.063c-25.064-30.129-91.684-113.436-117.137-145.772l1.169-1.364L3324.516,1818.704z"/>
	<path style="fill-rule:evenodd;clip-rule:evenodd;fill:#C7928B;" d="M3188.808,1822.145l-2.662-2.987
		c-37.79-42.53-75.646-85.385-114.475-126.942l-29.999,39.089c11.947,13.895,36.297,39.868,60.386,67.075
		c8.701,9.87,17.467,19.934,25.713,29.349c-7.922,10.129-16.233,20.778-24.609,31.297c-24.09,30.518-48.374,59.802-60.387,75.256
		l29.999,35.063c25.064-30.129,91.749-113.436,117.203-145.772l-1.169-1.364V1822.145z"/>
</g>
</svg>
