<?xml version="1.0" encoding="utf-8"?>
<!-- Generator: Adobe Illustrator 27.5.0, SVG Export Plug-In . SVG Version: 6.00 Build 0)  -->
<svg version="1.1" xmlns="http://www.w3.org/2000/svg" xmlns:xlink="http://www.w3.org/1999/xlink" x="0px" y="0px"
	 viewBox="0 0 500 500" style="enable-background:new 0 0 500 500;" xml:space="preserve">
<g id="BACKGROUND">
	<rect style="fill:#FFFFFF;" width="500" height="500"/>
	<g>
		<defs>
			<rect id="SVGID_1_" width="500" height="500"/>
		</defs>
		<clipPath id="SVGID_00000165223219933105398480000014395195568961556375_">
			<use xlink:href="#SVGID_1_"  style="overflow:visible;"/>
		</clipPath>
	</g>
</g>
<g id="OBJECTS">
	<g>
		<g>
			<g>
				<path style="fill:#7E7E7E;" d="M146.706,102.182h-2.456c-0.325,0-0.588-0.263-0.588-0.588V86.538
					c0-0.324,0.263-0.588,0.588-0.588h2.456V102.182z"/>
				<path style="fill:#454646;" d="M146.709,85.95v16.231h-2.456c-0.274,0-0.493-0.18-0.555-0.422
					c0.07,0.157,0.219,0.266,0.399,0.266h1.024c0.33,0,0.598-0.268,0.598-0.598V86.705c0-0.33-0.268-0.598-0.598-0.598h-1.024
					c-0.18,0-0.329,0.109-0.399,0.266c0.063-0.243,0.282-0.423,0.555-0.423H146.709z"/>
				<path style="fill:#BFBEBF;" d="M143.81,101.594V86.538c0-0.324,0.263-0.588,0.587-0.588h-0.147
					c-0.325,0-0.588,0.263-0.588,0.588v15.056c0,0.324,0.263,0.588,0.588,0.588h0.147
					C144.073,102.182,143.81,101.919,143.81,101.594z"/>
			</g>
			<g>
				<path style="fill:#7E7E7E;" d="M146.706,146.866h-2.456c-0.325,0-0.588-0.263-0.588-0.588v-29.495
					c0-0.324,0.263-0.587,0.588-0.587h2.456V146.866z"/>
				<path style="fill:#454646;" d="M146.709,116.197v30.67h-2.456c-0.274,0-0.493-0.18-0.555-0.422
					c0.07,0.156,0.219,0.266,0.399,0.266h1.024c0.33,0,0.598-0.268,0.598-0.598v-29.161c0-0.33-0.268-0.598-0.598-0.598h-1.024
					c-0.18,0-0.329,0.11-0.399,0.266c0.063-0.242,0.282-0.422,0.555-0.422H146.709z"/>
				<path style="fill:#BFBEBF;" d="M143.81,146.279v-29.495c0-0.324,0.263-0.587,0.587-0.587h-0.147
					c-0.325,0-0.588,0.263-0.588,0.587v29.495c0,0.324,0.263,0.588,0.588,0.588h0.147
					C144.073,146.866,143.81,146.603,143.81,146.279z"/>
			</g>
			<g>
				<path style="fill:#7E7E7E;" d="M146.706,185.586h-2.456c-0.325,0-0.588-0.263-0.588-0.587v-29.495
					c0-0.324,0.263-0.588,0.588-0.588h2.456V185.586z"/>
				<path style="fill:#454646;" d="M146.709,154.917v30.67h-2.456c-0.274,0-0.493-0.18-0.555-0.422
					c0.07,0.156,0.219,0.266,0.399,0.266h1.024c0.33,0,0.598-0.268,0.598-0.598v-29.161c0-0.33-0.268-0.598-0.598-0.598h-1.024
					c-0.18,0-0.329,0.109-0.399,0.266c0.063-0.242,0.282-0.423,0.555-0.423H146.709z"/>
				<path style="fill:#BFBEBF;" d="M143.81,184.999v-29.495c0-0.324,0.263-0.588,0.587-0.588h-0.147
					c-0.325,0-0.588,0.263-0.588,0.588v29.495c0,0.324,0.263,0.587,0.588,0.587h0.147
					C144.073,185.586,143.81,185.323,143.81,184.999z"/>
			</g>
			<g>
				<path style="fill:#7E7E7E;" d="M353.891,127.734h1.859c0.324,0,0.588,0.263,0.588,0.587v46.476c0,0.324-0.263,0.588-0.588,0.588
					h-1.859V127.734z"/>
				<path style="fill:#454646;" d="M353.888,175.385v-47.651h1.859c0.274,0,0.493,0.18,0.555,0.423
					c-0.07-0.156-0.219-0.266-0.399-0.266h-0.427c-0.33,0-0.598,0.268-0.598,0.598v46.142c0,0.33,0.268,0.598,0.598,0.598h0.427
					c0.18,0,0.329-0.109,0.399-0.266c-0.063,0.243-0.282,0.422-0.555,0.422H353.888z"/>
				<path style="fill:#BFBEBF;" d="M356.19,128.322v46.476c0,0.325-0.263,0.588-0.587,0.588h0.147c0.324,0,0.587-0.263,0.587-0.588
					v-46.476c0-0.324-0.263-0.587-0.587-0.587h-0.147C355.927,127.734,356.19,127.997,356.19,128.322z"/>
			</g>
		</g>
		<g>
			<g>
				<path style="fill:#454646;" d="M179.151,451.739c-18.523,0-33.592-15.07-33.592-33.593V61.854
					c0-18.523,15.069-33.593,33.592-33.593h142.309c18.523,0,33.592,15.07,33.592,33.593v356.292
					c0,18.523-15.069,33.593-33.592,33.593H179.151z"/>
				<path style="fill:#7E7E7E;" d="M321.264,450.278H179.348c-18.017,0-32.623-14.606-32.623-32.623V62.345
					c0-18.017,14.606-32.623,32.623-32.623h141.917c18.017,0,32.623,14.606,32.623,32.623v355.31
					C353.888,435.672,339.282,450.278,321.264,450.278z"/>
				<path style="fill:#BFBEBF;" d="M147.507,417.655V62.345c0-18.017,14.606-32.623,32.623-32.623h-0.782
					c-18.017,0-32.623,14.606-32.623,32.623v355.31c0,18.017,14.606,32.623,32.623,32.623h0.782
					C162.113,450.278,147.507,435.672,147.507,417.655z"/>
				<path style="fill:#BFBEBF;" d="M353.105,417.655V62.345c0-18.017-14.606-32.623-32.623-32.623h0.782
					c18.017,0,32.623,14.606,32.623,32.623v355.31c0,18.017-14.606,32.623-32.623,32.623h-0.782
					C338.499,450.278,353.105,435.672,353.105,417.655z"/>
				<path style="fill:#ECE8EF;" d="M321.264,447.775H179.348c-18.017,0-32.623-14.606-32.623-32.623v2.503
					c0,18.017,14.606,32.623,32.623,32.623h141.917c18.017,0,32.623-14.606,32.623-32.623v-2.503
					C353.888,433.169,339.282,447.775,321.264,447.775z"/>
				<path style="fill:#ECE8EF;" d="M179.348,32.225h141.917c18.017,0,32.623,14.606,32.623,32.623v-2.503
					c0-18.017-14.606-32.623-32.623-32.623H179.348c-18.017,0-32.623,14.606-32.623,32.623v2.503
					C146.724,46.831,161.331,32.225,179.348,32.225z"/>
			</g>
			<g>
				<g>
					<rect x="145.559" y="407.462" style="fill:#707171;" width="5.043" height="2.868"/>
					<rect x="145.559" y="407.462" style="fill:#3A3A3A;" width="1.16" height="2.868"/>
				</g>
				<g>
					<rect x="350.011" y="407.462" style="fill:#707171;" width="5.043" height="2.868"/>
					<rect x="353.893" y="407.462" style="fill:#3A3A3A;" width="1.161" height="2.868"/>
				</g>
				<g>
					<rect x="145.559" y="69.067" style="fill:#707171;" width="5.043" height="2.868"/>
					<rect x="145.559" y="69.067" style="fill:#3A3A3A;" width="1.16" height="2.868"/>
				</g>
				<g>
					<rect x="350.011" y="69.067" style="fill:#707171;" width="5.043" height="2.868"/>
					<rect x="353.893" y="69.067" style="fill:#3A3A3A;" width="1.161" height="2.868"/>
				</g>
			</g>
		</g>
		<g>
			<path style="fill:#525252;" d="M179.348,446.384c-15.841,0-28.729-12.888-28.729-28.729V62.345
				c0-15.841,12.888-28.729,28.729-28.729h141.917c15.841,0,28.729,12.888,28.729,28.729v355.31
				c0,15.841-12.888,28.729-28.729,28.729H179.348z"/>
			<path style="fill:#4D4E4E;" d="M349.991,149.994v267.661c0,15.838-12.888,28.726-28.726,28.726h-141.92
				c-15.838,0-28.726-12.888-28.726-28.726v-94.962L349.991,149.994z"/>
			<g>
				<path style="fill:#FFFFFF;" d="M284.574,433.159h-68.535c-0.86,0-1.558-0.697-1.558-1.558l0,0c0-0.86,0.697-1.558,1.558-1.558
					h68.535c0.86,0,1.558,0.697,1.558,1.558l0,0C286.131,432.461,285.434,433.159,284.574,433.159z"/>
				<g>
					
						<ellipse transform="matrix(0.9251 -0.3798 0.3798 0.9251 -138.4562 103.605)" style="fill:#3B3B3A;" cx="193.356" cy="402.715" rx="12.516" ry="12.517"/>
					
						<ellipse transform="matrix(0.1602 -0.9871 0.9871 0.1602 -139.476 641.4965)" style="fill:#3B3B3A;" cx="307.257" cy="402.715" rx="12.517" ry="12.517"/>
				</g>
				<g>
					<g>
						<rect x="302.468" y="54.878" style="fill:#FFFFFF;" width="1.961" height="2.561"/>
						<rect x="305.41" y="53.407" style="fill:#FFFFFF;" width="1.962" height="3.993"/>
						<rect x="308.352" y="51.827" style="fill:#FFFFFF;" width="1.961" height="5.557"/>
					</g>
					<g>
						<path style="fill:#FFFFFF;" d="M322.796,54.014c-0.153,0-0.306-0.058-0.423-0.175c-2.174-2.174-5.712-2.173-7.887,0
							c-0.234,0.234-0.612,0.234-0.845,0c-0.233-0.233-0.233-0.612,0-0.846c2.641-2.641,6.938-2.641,9.578,0
							c0.234,0.234,0.234,0.612,0,0.846C323.102,53.956,322.949,54.014,322.796,54.014z"/>
						<path style="fill:#FFFFFF;" d="M321.632,55.386c-0.153,0-0.306-0.058-0.423-0.175c-0.742-0.743-1.729-1.151-2.779-1.151
							c-1.05,0-2.037,0.409-2.779,1.151c-0.233,0.234-0.612,0.234-0.845,0c-0.234-0.234-0.234-0.612,0-0.845
							c0.968-0.969,2.255-1.502,3.625-1.502c1.369,0,2.657,0.533,3.625,1.502c0.234,0.233,0.234,0.612,0,0.845
							C321.938,55.328,321.785,55.386,321.632,55.386z"/>
						<path style="fill:#FFFFFF;" d="M320.343,56.675c-0.153,0-0.306-0.058-0.423-0.175c-0.795-0.797-2.184-0.797-2.98,0
							c-0.233,0.234-0.612,0.234-0.846,0c-0.234-0.233-0.234-0.612,0-0.845c0.624-0.624,1.453-0.968,2.336-0.968
							c0.883,0,1.712,0.343,2.336,0.968c0.233,0.233,0.233,0.612,0,0.845C320.649,56.617,320.496,56.675,320.343,56.675z"/>
						<path style="fill:#FFFFFF;" d="M319.283,57.401c0,0.471-0.382,0.853-0.853,0.853c-0.471,0-0.853-0.382-0.853-0.853
							c0-0.471,0.382-0.853,0.853-0.853C318.901,56.548,319.283,56.93,319.283,57.401z"/>
					</g>
					<path style="fill:#FFFFFF;" d="M334.338,53.268h-0.548v-0.407c0-0.184-0.151-0.335-0.335-0.335h-6.782
						c-0.184,0-0.335,0.151-0.335,0.335v3.544c0,0.184,0.151,0.335,0.335,0.335h6.782c0.184,0,0.335-0.151,0.335-0.335v-0.628h0.548
						c0.144,0,0.261-0.117,0.261-0.261v-1.987C334.599,53.385,334.482,53.268,334.338,53.268z M333.134,56.084h-2.081l1.004-2.901
						h1.077V56.084z"/>
				</g>
				<path style="fill:#FFFFFF;" d="M250.122,67.018c-3.317,0.099-5.914,2.907-5.914,6.226v9.762c0,0.906,0.734,1.64,1.64,1.64h8.917
					c0.906,0,1.64-0.734,1.64-1.64v-9.892C256.405,69.689,253.568,66.915,250.122,67.018z M255.493,76.59H245.12v-3.477
					c0-2.863,2.323-5.187,5.187-5.187c1.432,0,2.729,0.581,3.668,1.518c0.937,0.939,1.518,2.237,1.518,3.668V76.59z"/>
				<text transform="matrix(1 0 0 1 203.9541 124.9511)" style="fill:#FFFFFF; font-family:'Roboto-Light'; font-size:38.2013px;">09:00</text>
				<text transform="matrix(1 0 0 1 202.2247 140.5649)" style="fill:#FFFFFF; font-family:'Roboto-Light'; font-size:11.0947px;">Monday 01 January</text>
			</g>
		</g>
		<g>
			<path style="fill:#1D1E1E;" d="M321.263,33.616H179.349c-15.841,0-28.73,12.889-28.73,28.73v355.308
				c0,15.841,12.889,28.73,28.73,28.73h141.915c15.841,0,28.73-12.889,28.73-28.73V62.346
				C349.994,46.505,337.104,33.616,321.263,33.616z M341.488,418.128c0,10.447-8.469,18.916-18.916,18.916h-144.53
				c-10.447,0-18.916-8.469-18.916-18.916V61.871c0-10.447,8.469-18.916,18.916-18.916h18.583c1.054,0,1.909,0.855,1.909,1.909l0,0
				c0,7.054,5.719,12.773,12.773,12.773h78c7.054,0,12.772-5.718,12.772-12.772v0c0-1.054,0.855-1.909,1.909-1.909h18.584
				c10.447,0,18.916,8.469,18.916,18.916V418.128z"/>
			<g>
				<path style="fill:#363837;" d="M156.671,415.463V252.229v-24.458V64.537c0-18.101,8.716-22.011,8.716-22.011
					c-6.743,1.549-12.68,10.221-12.68,23.259v161.986v24.458v161.986c0,13.038,5.937,21.71,12.68,23.259
					C165.387,437.474,156.671,433.564,156.671,415.463z"/>
				<path style="fill:#363837;" d="M343.941,64.537v163.234v24.458v163.234c0,18.101-8.716,22.012-8.716,22.012
					c6.743-1.549,12.68-10.221,12.68-23.259V252.229v-24.458V65.784c0-13.038-5.937-21.709-12.68-23.259
					C335.225,42.526,343.941,46.436,343.941,64.537z"/>
			</g>
			<path style="fill:#2C2E2C;" d="M327.139,441.529c4.919,0,9.563-1.026,13.693-2.866c-5.132,4.794-12.004,7.723-19.564,7.723
				H179.343c-7.548,0-14.432-2.929-19.564-7.723c4.131,1.84,8.787,2.866,13.693,2.866H327.139z"/>
			<path style="fill:#2C2E2C;" d="M173.472,38.471c-4.907,0-9.563,1.026-13.693,2.866c5.132-4.794,12.016-7.723,19.564-7.723
				h141.925c7.56,0,14.432,2.929,19.564,7.723c-4.13-1.84-8.774-2.866-13.693-2.866H173.472z"/>
		</g>
		<g>
			
				<ellipse transform="matrix(0.0709 -0.9975 0.9975 0.0709 209.8101 315.8454)" style="fill:#151515;" cx="274.449" cy="45.298" rx="4.673" ry="4.673"/>
			<path d="M277.054,41.419c0.501,0.744,0.794,1.64,0.794,2.605c0,2.581-2.092,4.673-4.673,4.673c-0.965,0-1.861-0.293-2.605-0.794
				c0.839,1.247,2.263,2.068,3.879,2.068c2.581,0,4.673-2.092,4.673-4.673C279.122,43.682,278.301,42.258,277.054,41.419z"/>
		</g>
		<g>
			<g>
				<path style="fill:#151515;" d="M265.493,46.855h-30.373c-0.86,0-1.558-0.697-1.558-1.558l0,0c0-0.86,0.697-1.558,1.558-1.558
					h30.373c0.86,0,1.558,0.697,1.558,1.558l0,0C267.051,46.158,266.353,46.855,265.493,46.855z"/>
				<path d="M235.119,45.854c-0.307,0-0.556-0.249-0.556-0.556c0-0.307,0.249-0.556,0.556-0.556h30.373
					c0.307,0,0.557,0.249,0.557,0.556c0,0.307-0.25,0.556-0.557,0.556H235.119z"/>
			</g>
			<g>
				
					<ellipse transform="matrix(0.0985 -0.9951 0.9951 0.0985 202.3285 313.9478)" style="fill:#212A3B;" cx="274.449" cy="45.298" rx="3.115" ry="3.115"/>
				<path style="fill:#273145;" d="M276.047,43.199c0.318,0.438,0.511,0.971,0.511,1.553c0,1.466-1.188,2.654-2.654,2.654
					c-0.582,0-1.116-0.193-1.554-0.511c0.482,0.664,1.26,1.1,2.143,1.1c1.466,0,2.654-1.188,2.654-2.654
					C277.147,44.459,276.711,43.682,276.047,43.199z"/>
				<path style="fill:#19202E;" d="M276.125,45.298c0,0.925-0.75,1.675-1.675,1.675c-0.925,0-1.675-0.75-1.675-1.675
					c0-0.925,0.75-1.675,1.675-1.675C275.375,43.622,276.125,44.372,276.125,45.298z"/>
				<g>
					<path style="fill:#637CAD;" d="M274.466,42.885c-0.159-0.361-0.651-0.494-1.099-0.298c-0.449,0.197-0.683,0.649-0.525,1.01
						c0.159,0.361,0.651,0.495,1.099,0.298C274.389,43.699,274.624,43.246,274.466,42.885z"/>
					<path style="fill:#637CAD;" d="M272.329,43.663c-0.202-0.011-0.374,0.144-0.385,0.346c-0.011,0.202,0.144,0.374,0.346,0.385
						c0.202,0.011,0.374-0.144,0.385-0.346C272.686,43.846,272.531,43.673,272.329,43.663z"/>
				</g>
			</g>
		</g>
	</g>
</g>
<g id="DESIGNED_BY_FREEPIK">
	<g>
		<g>
			<path style="fill:#1D1E1E;" d="M180.308,480.236v-0.161c-0.218,0.249-0.433,0.452-0.643,0.608
				c-0.213,0.156-0.441,0.275-0.689,0.357c-0.247,0.082-0.518,0.122-0.811,0.122c-0.388,0-0.746-0.082-1.077-0.246
				c-0.33-0.164-0.616-0.399-0.857-0.704c-0.241-0.305-0.425-0.662-0.55-1.074c-0.124-0.412-0.186-0.856-0.186-1.335
				c0-1.014,0.247-1.804,0.742-2.37c0.495-0.564,1.145-0.848,1.953-0.848c0.467,0,0.86,0.08,1.181,0.239
				c0.321,0.161,0.634,0.408,0.938,0.739v-2.392c0-0.333,0.065-0.584,0.199-0.754c0.132-0.171,0.321-0.255,0.566-0.255
				c0.245,0,0.435,0.078,0.567,0.234c0.133,0.156,0.198,0.386,0.198,0.691v7.147c0,0.309-0.071,0.54-0.214,0.694
				c-0.143,0.153-0.326,0.231-0.552,0.231c-0.222,0-0.405-0.08-0.55-0.24C180.38,480.761,180.308,480.532,180.308,480.236z
				 M177.119,477.855c0,0.439,0.068,0.813,0.205,1.122c0.137,0.309,0.324,0.541,0.562,0.696c0.237,0.157,0.497,0.236,0.777,0.236
				c0.285,0,0.545-0.075,0.78-0.224c0.236-0.147,0.424-0.376,0.564-0.682c0.141-0.308,0.211-0.691,0.211-1.149
				c0-0.432-0.07-0.803-0.211-1.114c-0.141-0.31-0.33-0.547-0.57-0.712c-0.239-0.164-0.502-0.245-0.786-0.245
				c-0.296,0-0.562,0.084-0.796,0.252c-0.232,0.168-0.414,0.409-0.543,0.724C177.184,477.075,177.119,477.44,177.119,477.855z"/>
			<path style="fill:#1D1E1E;" d="M187.453,478.266h-3.169c0.004,0.367,0.077,0.692,0.223,0.973
				c0.144,0.281,0.337,0.493,0.575,0.636c0.24,0.143,0.504,0.213,0.793,0.213c0.193,0,0.371-0.022,0.531-0.067
				c0.16-0.046,0.315-0.116,0.467-0.214c0.15-0.097,0.288-0.201,0.415-0.311c0.126-0.111,0.29-0.263,0.492-0.452
				c0.083-0.071,0.202-0.106,0.356-0.106c0.166,0,0.301,0.046,0.403,0.137c0.103,0.092,0.155,0.22,0.155,0.386
				c0,0.146-0.059,0.317-0.172,0.514c-0.116,0.195-0.289,0.384-0.52,0.563c-0.232,0.181-0.523,0.329-0.873,0.448
				c-0.351,0.119-0.754,0.179-1.209,0.179c-1.04,0-1.85-0.298-2.428-0.891c-0.577-0.594-0.865-1.399-0.865-2.416
				c0-0.479,0.07-0.924,0.213-1.332c0.143-0.41,0.351-0.762,0.623-1.055c0.273-0.293,0.609-0.517,1.01-0.674
				c0.398-0.156,0.842-0.233,1.329-0.233c0.634,0,1.177,0.132,1.629,0.4c0.454,0.267,0.794,0.612,1.019,1.035
				c0.225,0.424,0.338,0.855,0.338,1.294c0,0.408-0.116,0.672-0.35,0.793C188.207,478.204,187.877,478.266,187.453,478.266z
				 M184.284,477.346h2.938c-0.039-0.555-0.189-0.97-0.448-1.244c-0.259-0.275-0.601-0.413-1.024-0.413
				c-0.403,0-0.734,0.14-0.994,0.418C184.496,476.386,184.34,476.799,184.284,477.346z"/>
			<path style="fill:#1D1E1E;" d="M194.838,479.042c0,0.447-0.108,0.831-0.326,1.149c-0.217,0.318-0.539,0.561-0.965,0.725
				c-0.426,0.164-0.943,0.246-1.553,0.246c-0.581,0-1.08-0.09-1.496-0.268c-0.414-0.178-0.722-0.401-0.919-0.667
				c-0.198-0.269-0.298-0.535-0.298-0.806c0-0.178,0.063-0.33,0.191-0.456c0.126-0.127,0.286-0.19,0.48-0.19
				c0.17,0,0.3,0.042,0.391,0.125c0.092,0.083,0.18,0.2,0.262,0.35c0.166,0.29,0.365,0.504,0.598,0.647
				c0.23,0.143,0.546,0.214,0.946,0.214c0.324,0,0.591-0.072,0.798-0.217c0.208-0.146,0.311-0.31,0.311-0.496
				c0-0.285-0.107-0.492-0.323-0.623c-0.216-0.13-0.57-0.256-1.065-0.374c-0.558-0.139-1.013-0.284-1.362-0.436
				c-0.351-0.151-0.631-0.353-0.84-0.602c-0.21-0.25-0.315-0.557-0.315-0.921c0-0.324,0.096-0.631,0.291-0.92
				c0.193-0.288,0.48-0.52,0.858-0.691c0.377-0.173,0.834-0.259,1.368-0.259c0.419,0,0.796,0.043,1.13,0.131
				c0.336,0.087,0.615,0.204,0.838,0.351c0.224,0.146,0.393,0.309,0.51,0.486c0.117,0.178,0.176,0.352,0.176,0.522
				c0,0.186-0.063,0.339-0.188,0.457c-0.124,0.118-0.301,0.179-0.531,0.179c-0.166,0-0.307-0.048-0.424-0.144
				c-0.117-0.095-0.25-0.236-0.4-0.427c-0.123-0.158-0.267-0.285-0.434-0.38c-0.166-0.096-0.392-0.143-0.677-0.143
				c-0.294,0-0.536,0.061-0.729,0.188c-0.194,0.124-0.291,0.279-0.291,0.465c0,0.171,0.07,0.311,0.213,0.419
				c0.143,0.109,0.334,0.199,0.576,0.271c0.242,0.07,0.573,0.157,0.998,0.261c0.502,0.123,0.912,0.27,1.23,0.439
				c0.318,0.17,0.561,0.371,0.725,0.603C194.756,478.482,194.838,478.745,194.838,479.042z"/>
			<path style="fill:#1D1E1E;" d="M196.494,473.819c-0.227,0-0.419-0.069-0.579-0.208c-0.16-0.139-0.241-0.334-0.241-0.588
				c0-0.23,0.083-0.418,0.247-0.567c0.164-0.148,0.356-0.223,0.573-0.223c0.209,0,0.395,0.067,0.557,0.202
				c0.163,0.135,0.244,0.33,0.244,0.588c0,0.249-0.079,0.444-0.238,0.585C196.898,473.748,196.711,473.819,196.494,473.819z
				 M197.295,475.493v4.683c0,0.325-0.076,0.571-0.231,0.737c-0.155,0.166-0.351,0.249-0.587,0.249c-0.238,0-0.432-0.085-0.58-0.256
				c-0.148-0.17-0.223-0.413-0.223-0.73v-4.636c0-0.32,0.074-0.562,0.223-0.725c0.148-0.162,0.342-0.243,0.58-0.243
				c0.236,0,0.432,0.081,0.587,0.243C197.219,474.978,197.295,475.204,197.295,475.493z"/>
			<path style="fill:#1D1E1E;" d="M204.394,475.76v4.707c0,0.539-0.059,1.002-0.173,1.39c-0.114,0.388-0.298,0.708-0.552,0.962
				c-0.254,0.253-0.585,0.441-0.994,0.564c-0.41,0.123-0.919,0.184-1.529,0.184c-0.558,0-1.057-0.078-1.496-0.233
				c-0.439-0.157-0.776-0.358-1.015-0.606c-0.237-0.247-0.356-0.501-0.356-0.763c0-0.197,0.067-0.359,0.203-0.483
				c0.134-0.125,0.297-0.188,0.486-0.188c0.236,0,0.445,0.105,0.623,0.315c0.086,0.107,0.177,0.216,0.27,0.324
				c0.094,0.109,0.197,0.202,0.309,0.279c0.113,0.076,0.248,0.134,0.406,0.172c0.159,0.036,0.342,0.056,0.547,0.056
				c0.42,0,0.745-0.058,0.977-0.175c0.232-0.116,0.395-0.28,0.487-0.49c0.093-0.209,0.148-0.434,0.163-0.673
				c0.016-0.24,0.027-0.625,0.035-1.155c-0.25,0.349-0.537,0.614-0.863,0.796c-0.326,0.183-0.716,0.273-1.166,0.273
				c-0.543,0-1.017-0.139-1.423-0.416c-0.405-0.277-0.717-0.665-0.935-1.163c-0.218-0.499-0.326-1.074-0.326-1.728
				c0-0.486,0.066-0.927,0.199-1.317c0.133-0.393,0.321-0.723,0.566-0.992c0.246-0.27,0.528-0.472,0.849-0.608
				c0.321-0.137,0.673-0.204,1.057-0.204c0.459,0,0.856,0.088,1.193,0.264c0.336,0.177,0.649,0.452,0.939,0.828v-0.22
				c0-0.281,0.068-0.498,0.207-0.653c0.139-0.154,0.316-0.231,0.535-0.231c0.313,0,0.52,0.103,0.623,0.306
				C204.343,475.082,204.394,475.376,204.394,475.76z M199.699,477.814c0,0.657,0.143,1.154,0.43,1.49
				c0.287,0.337,0.658,0.505,1.113,0.505c0.269,0,0.523-0.072,0.762-0.217c0.24-0.145,0.436-0.362,0.586-0.653
				c0.15-0.291,0.226-0.644,0.226-1.06c0-0.66-0.145-1.175-0.436-1.543c-0.291-0.368-0.674-0.552-1.148-0.552
				c-0.464,0-0.834,0.176-1.113,0.528C199.838,476.664,199.699,477.165,199.699,477.814z"/>
			<path style="fill:#1D1E1E;" d="M206.97,475.469v0.196c0.284-0.376,0.597-0.652,0.935-0.828c0.339-0.176,0.727-0.265,1.167-0.265
				c0.427,0,0.81,0.094,1.146,0.279c0.336,0.186,0.588,0.449,0.754,0.789c0.107,0.198,0.176,0.412,0.207,0.642
				c0.032,0.229,0.049,0.522,0.049,0.879v3.015c0,0.325-0.074,0.571-0.223,0.737c-0.148,0.166-0.342,0.249-0.579,0.249
				c-0.241,0-0.438-0.085-0.588-0.256c-0.15-0.17-0.226-0.413-0.226-0.73v-2.7c0-0.534-0.074-0.943-0.223-1.226
				c-0.148-0.283-0.443-0.425-0.888-0.425c-0.288,0-0.552,0.086-0.789,0.258c-0.237,0.173-0.411,0.409-0.522,0.71
				c-0.079,0.241-0.119,0.692-0.119,1.353v2.03c0,0.329-0.076,0.576-0.229,0.74c-0.152,0.164-0.349,0.246-0.59,0.246
				c-0.234,0-0.426-0.085-0.576-0.256c-0.15-0.17-0.226-0.413-0.226-0.73v-4.683c0-0.31,0.067-0.54,0.202-0.692
				c0.135-0.152,0.318-0.229,0.551-0.229c0.144,0,0.271,0.033,0.387,0.102c0.115,0.067,0.207,0.168,0.276,0.302
				C206.935,475.11,206.97,475.275,206.97,475.469z"/>
			<path style="fill:#1D1E1E;" d="M216.829,478.266h-3.17c0.005,0.367,0.078,0.692,0.224,0.973c0.144,0.281,0.336,0.493,0.575,0.636
				c0.239,0.143,0.503,0.213,0.792,0.213c0.194,0,0.371-0.022,0.531-0.067c0.16-0.046,0.315-0.116,0.467-0.214
				c0.149-0.097,0.288-0.201,0.416-0.311c0.125-0.111,0.289-0.263,0.492-0.452c0.082-0.071,0.201-0.106,0.355-0.106
				c0.166,0,0.301,0.046,0.404,0.137c0.103,0.092,0.154,0.22,0.154,0.386c0,0.146-0.058,0.317-0.173,0.514
				c-0.114,0.195-0.288,0.384-0.52,0.563c-0.231,0.181-0.522,0.329-0.872,0.448c-0.351,0.119-0.754,0.179-1.209,0.179
				c-1.04,0-1.85-0.298-2.428-0.891c-0.577-0.594-0.866-1.399-0.866-2.416c0-0.479,0.071-0.924,0.214-1.332
				c0.143-0.41,0.351-0.762,0.623-1.055c0.273-0.293,0.609-0.517,1.01-0.674c0.398-0.156,0.843-0.233,1.33-0.233
				c0.633,0,1.175,0.132,1.629,0.4c0.453,0.267,0.792,0.612,1.018,1.035c0.226,0.424,0.339,0.855,0.339,1.294
				c0,0.408-0.116,0.672-0.351,0.793C217.582,478.204,217.253,478.266,216.829,478.266z M213.659,477.346h2.938
				c-0.039-0.555-0.189-0.97-0.448-1.244c-0.259-0.275-0.601-0.413-1.024-0.413c-0.403,0-0.734,0.14-0.994,0.418
				C213.871,476.386,213.715,476.799,213.659,477.346z"/>
			<path style="fill:#1D1E1E;" d="M223.435,480.236v-0.161c-0.219,0.249-0.433,0.452-0.644,0.608
				c-0.211,0.156-0.441,0.275-0.689,0.357c-0.247,0.082-0.517,0.122-0.809,0.122c-0.389,0-0.748-0.082-1.078-0.246
				c-0.33-0.164-0.616-0.399-0.857-0.704c-0.242-0.305-0.425-0.662-0.549-1.074c-0.125-0.412-0.188-0.856-0.188-1.335
				c0-1.014,0.247-1.804,0.742-2.37c0.494-0.564,1.146-0.848,1.953-0.848c0.467,0,0.861,0.08,1.182,0.239
				c0.32,0.161,0.633,0.408,0.937,0.739v-2.392c0-0.333,0.067-0.584,0.199-0.754c0.132-0.171,0.321-0.255,0.566-0.255
				s0.434,0.078,0.566,0.234c0.133,0.156,0.199,0.386,0.199,0.691v7.147c0,0.309-0.07,0.54-0.213,0.694
				c-0.143,0.153-0.326,0.231-0.553,0.231c-0.221,0-0.404-0.08-0.549-0.24C223.508,480.761,223.435,480.532,223.435,480.236z
				 M220.248,477.855c0,0.439,0.067,0.813,0.204,1.122c0.137,0.309,0.323,0.541,0.562,0.696c0.237,0.157,0.496,0.236,0.777,0.236
				c0.285,0,0.545-0.075,0.78-0.224c0.235-0.147,0.424-0.376,0.564-0.682c0.141-0.308,0.211-0.691,0.211-1.149
				c0-0.432-0.07-0.803-0.211-1.114c-0.14-0.31-0.33-0.547-0.569-0.712c-0.239-0.164-0.501-0.245-0.786-0.245
				c-0.297,0-0.563,0.084-0.796,0.252c-0.233,0.168-0.414,0.409-0.543,0.724C220.311,477.075,220.248,477.44,220.248,477.855z"/>
			<path style="fill:#1D1E1E;" d="M230.059,473.089v2.475c0.305-0.316,0.615-0.559,0.932-0.727c0.317-0.168,0.709-0.252,1.176-0.252
				c0.539,0,1.01,0.127,1.416,0.382c0.405,0.256,0.721,0.626,0.943,1.11c0.225,0.484,0.336,1.059,0.336,1.725
				c0,0.49-0.063,0.939-0.186,1.35c-0.125,0.409-0.306,0.765-0.544,1.065c-0.237,0.301-0.525,0.534-0.863,0.698
				c-0.338,0.164-0.711,0.246-1.119,0.246c-0.25,0-0.484-0.029-0.703-0.09c-0.221-0.059-0.407-0.137-0.561-0.234
				c-0.154-0.096-0.286-0.196-0.395-0.3c-0.109-0.102-0.254-0.257-0.432-0.463v0.161c0,0.304-0.072,0.535-0.219,0.691
				c-0.146,0.156-0.332,0.234-0.559,0.234c-0.229,0-0.412-0.078-0.549-0.234c-0.137-0.156-0.205-0.388-0.205-0.691v-7.077
				c0-0.328,0.066-0.577,0.199-0.744c0.133-0.168,0.318-0.252,0.555-0.252c0.25,0,0.441,0.079,0.576,0.239
				C229.992,472.564,230.059,472.791,230.059,473.089z M230.137,477.903c0,0.645,0.146,1.14,0.441,1.486
				c0.295,0.347,0.682,0.52,1.16,0.52c0.408,0,0.76-0.177,1.055-0.532c0.295-0.354,0.441-0.861,0.441-1.522
				c0-0.428-0.061-0.796-0.184-1.104c-0.123-0.309-0.297-0.547-0.521-0.715c-0.227-0.168-0.49-0.252-0.791-0.252
				c-0.309,0-0.584,0.084-0.824,0.252c-0.242,0.168-0.432,0.411-0.57,0.729C230.205,477.084,230.137,477.464,230.137,477.903z"/>
			<path style="fill:#1D1E1E;" d="M236.963,481.363l0.148-0.362l-1.995-5.022c-0.122-0.288-0.185-0.499-0.185-0.63
				c0-0.139,0.036-0.267,0.107-0.385c0.071-0.119,0.169-0.214,0.293-0.285c0.125-0.072,0.256-0.107,0.39-0.107
				c0.233,0,0.409,0.074,0.528,0.223c0.119,0.148,0.224,0.361,0.314,0.638l1.371,3.989l1.301-3.71
				c0.103-0.3,0.195-0.536,0.279-0.706c0.082-0.171,0.17-0.285,0.264-0.344c0.093-0.06,0.225-0.09,0.395-0.09
				c0.123,0,0.24,0.032,0.354,0.099c0.113,0.065,0.199,0.153,0.261,0.264c0.061,0.111,0.093,0.228,0.093,0.351
				c-0.017,0.074-0.041,0.182-0.078,0.32c-0.035,0.139-0.078,0.279-0.13,0.421l-2.113,5.533c-0.183,0.486-0.36,0.868-0.534,1.146
				c-0.175,0.276-0.404,0.49-0.691,0.638c-0.287,0.149-0.674,0.223-1.161,0.223c-0.475,0-0.831-0.051-1.067-0.153
				c-0.238-0.104-0.357-0.292-0.357-0.564c0-0.186,0.057-0.33,0.17-0.431c0.112-0.101,0.279-0.151,0.501-0.151
				c0.087,0,0.173,0.012,0.255,0.036c0.104,0.023,0.192,0.035,0.268,0.035c0.186,0,0.332-0.027,0.439-0.083
				c0.106-0.055,0.203-0.151,0.288-0.288C236.754,481.83,236.852,481.629,236.963,481.363z"/>
		</g>
		<g>
			<path style="fill:#1D1E1E;" d="M260.44,474.713h0.387v-0.486c0-0.51,0.063-0.911,0.191-1.211c0.127-0.3,0.348-0.517,0.654-0.653
				c0.307-0.136,0.727-0.204,1.26-0.204c0.95,0,1.421,0.229,1.421,0.696c0,0.149-0.05,0.278-0.15,0.385
				c-0.097,0.105-0.214,0.16-0.349,0.16c-0.063,0-0.174-0.012-0.33-0.037c-0.147-0.022-0.281-0.035-0.389-0.035
				c-0.293,0-0.478,0.088-0.566,0.26c-0.078,0.172-0.121,0.418-0.121,0.74v0.386h0.395c0.62,0,0.926,0.186,0.926,0.56
				c0,0.262-0.078,0.432-0.244,0.503c-0.164,0.071-0.391,0.107-0.682,0.107h-0.395v4.295c0,0.319-0.076,0.563-0.23,0.73
				c-0.151,0.171-0.347,0.254-0.59,0.254c-0.23,0-0.419-0.083-0.574-0.254c-0.152-0.167-0.227-0.41-0.227-0.73v-4.295h-0.447
				c-0.242,0-0.426-0.052-0.558-0.163c-0.131-0.108-0.196-0.25-0.196-0.424C259.625,474.905,259.897,474.713,260.44,474.713"/>
			<path style="fill:#1D1E1E;" d="M265.745,478.821v1.355c0,0.327-0.083,0.574-0.233,0.737c-0.154,0.166-0.35,0.246-0.586,0.246
				c-0.238,0-0.43-0.081-0.58-0.25c-0.147-0.165-0.225-0.41-0.225-0.733v-4.515c0-0.729,0.262-1.093,0.788-1.093
				c0.27,0,0.464,0.084,0.583,0.255c0.119,0.171,0.185,0.421,0.199,0.755c0.191-0.334,0.39-0.584,0.592-0.755
				c0.208-0.171,0.477-0.255,0.818-0.255c0.344,0,0.67,0.084,0.991,0.255c0.322,0.171,0.481,0.398,0.481,0.679
				c0,0.196-0.068,0.362-0.203,0.488c-0.138,0.13-0.284,0.194-0.441,0.194c-0.063,0-0.207-0.039-0.433-0.112
				c-0.229-0.071-0.431-0.108-0.603-0.108c-0.236,0-0.432,0.064-0.582,0.186c-0.15,0.128-0.27,0.311-0.353,0.554
				c-0.081,0.247-0.137,0.541-0.171,0.878C265.76,477.922,265.745,478.335,265.745,478.821"/>
			<path style="fill:#1D1E1E;" d="M273.195,478.264h-3.171c0.005,0.367,0.077,0.694,0.222,0.975
				c0.147,0.278,0.338,0.491,0.578,0.635c0.24,0.142,0.502,0.213,0.793,0.213c0.193,0,0.37-0.021,0.53-0.07
				c0.159-0.043,0.315-0.115,0.466-0.213c0.151-0.095,0.287-0.198,0.415-0.313c0.126-0.109,0.292-0.26,0.494-0.449
				c0.084-0.07,0.202-0.108,0.355-0.108c0.168,0,0.301,0.047,0.406,0.139c0.103,0.092,0.152,0.219,0.152,0.386
				c0,0.147-0.056,0.317-0.168,0.512c-0.117,0.198-0.289,0.386-0.522,0.566c-0.234,0.179-0.525,0.33-0.874,0.446
				c-0.35,0.119-0.753,0.179-1.207,0.179c-1.044,0-1.853-0.295-2.429-0.889c-0.578-0.595-0.87-1.401-0.87-2.417
				c0-0.479,0.073-0.925,0.218-1.335c0.14-0.411,0.348-0.76,0.623-1.055c0.273-0.294,0.608-0.518,1.008-0.674
				c0.398-0.155,0.842-0.233,1.33-0.233c0.633,0,1.176,0.134,1.629,0.403c0.453,0.265,0.797,0.61,1.019,1.034
				c0.226,0.426,0.339,0.855,0.339,1.296c0,0.405-0.117,0.669-0.352,0.791C273.947,478.203,273.619,478.264,273.195,478.264
				 M270.024,477.342h2.938c-0.039-0.553-0.186-0.969-0.446-1.241c-0.261-0.276-0.6-0.412-1.025-0.412
				c-0.403,0-0.735,0.137-0.995,0.418C270.237,476.385,270.078,476.797,270.024,477.342"/>
			<path style="fill:#1D1E1E;" d="M279.938,478.264h-3.17c0.003,0.367,0.078,0.694,0.221,0.975c0.145,0.278,0.337,0.491,0.576,0.635
				c0.238,0.142,0.503,0.213,0.795,0.213c0.191,0,0.369-0.021,0.527-0.07c0.162-0.043,0.316-0.115,0.469-0.213
				c0.151-0.095,0.287-0.198,0.415-0.313c0.124-0.109,0.29-0.26,0.493-0.449c0.084-0.07,0.203-0.108,0.354-0.108
				c0.168,0,0.302,0.047,0.407,0.139c0.103,0.092,0.149,0.219,0.149,0.386c0,0.147-0.054,0.317-0.171,0.512
				c-0.11,0.198-0.284,0.386-0.518,0.566c-0.232,0.179-0.525,0.33-0.872,0.446c-0.349,0.119-0.756,0.179-1.209,0.179
				c-1.043,0-1.85-0.295-2.43-0.889c-0.577-0.595-0.868-1.401-0.868-2.417c0-0.479,0.073-0.925,0.218-1.335
				c0.142-0.411,0.35-0.76,0.623-1.055c0.272-0.294,0.607-0.518,1.008-0.674c0.398-0.155,0.845-0.233,1.331-0.233
				c0.63,0,1.174,0.134,1.634,0.403c0.449,0.265,0.791,0.61,1.013,1.034c0.225,0.426,0.341,0.855,0.341,1.296
				c0,0.405-0.12,0.669-0.352,0.791C280.688,478.203,280.359,478.264,279.938,478.264 M276.768,477.342h2.938
				c-0.039-0.553-0.19-0.969-0.447-1.241c-0.263-0.276-0.601-0.412-1.026-0.412c-0.403,0-0.734,0.137-0.995,0.418
				C276.978,476.385,276.819,476.797,276.768,477.342"/>
			<path style="fill:#1D1E1E;" d="M283.487,475.482v0.193c0.304-0.375,0.622-0.65,0.953-0.827c0.323-0.178,0.698-0.267,1.114-0.267
				c0.496,0,0.959,0.13,1.379,0.386c0.42,0.259,0.749,0.635,0.993,1.129c0.243,0.497,0.366,1.081,0.366,1.759
				c0,0.497-0.07,0.957-0.21,1.375c-0.14,0.418-0.336,0.767-0.581,1.05c-0.246,0.282-0.534,0.502-0.868,0.654
				c-0.339,0.15-0.694,0.227-1.079,0.227c-0.462,0-0.853-0.093-1.166-0.279c-0.315-0.183-0.614-0.458-0.901-0.816v2.434
				c0,0.709-0.26,1.068-0.777,1.068c-0.307,0-0.505-0.092-0.607-0.274c-0.095-0.186-0.146-0.452-0.146-0.807v-6.996
				c0-0.31,0.066-0.537,0.199-0.692c0.135-0.149,0.32-0.228,0.554-0.228c0.23,0,0.416,0.078,0.56,0.233
				C283.416,474.962,283.487,475.185,283.487,475.482 M286.665,477.836c0-0.428-0.066-0.796-0.196-1.102
				c-0.131-0.308-0.313-0.542-0.541-0.705c-0.23-0.164-0.49-0.248-0.771-0.248c-0.445,0-0.823,0.178-1.13,0.527
				c-0.308,0.354-0.462,0.872-0.462,1.559c0,0.642,0.152,1.146,0.459,1.504c0.305,0.358,0.68,0.536,1.133,0.536
				c0.268,0,0.52-0.078,0.749-0.232c0.231-0.158,0.415-0.392,0.552-0.704C286.596,478.657,286.665,478.278,286.665,477.836"/>
			<path style="fill:#1D1E1E;" d="M289.925,473.815c-0.227,0-0.418-0.071-0.577-0.209c-0.162-0.139-0.242-0.333-0.242-0.585
				c0-0.23,0.082-0.419,0.248-0.569c0.164-0.147,0.354-0.222,0.571-0.222c0.212,0,0.397,0.066,0.559,0.199
				c0.162,0.137,0.244,0.334,0.244,0.592c0,0.249-0.079,0.444-0.236,0.584C290.332,473.743,290.145,473.815,289.925,473.815
				 M290.728,475.489v4.688c0,0.322-0.077,0.567-0.231,0.732c-0.156,0.169-0.35,0.25-0.588,0.25s-0.428-0.083-0.58-0.254
				c-0.146-0.173-0.223-0.415-0.223-0.729v-4.643c0-0.318,0.076-0.559,0.223-0.721c0.152-0.166,0.342-0.245,0.58-0.245
				s0.432,0.079,0.588,0.245C290.65,474.977,290.728,475.203,290.728,475.489"/>
			<path style="fill:#1D1E1E;" d="M295.952,480.421l-1.428-2.353l-0.88,0.83v1.291c0,0.311-0.083,0.551-0.248,0.718
				c-0.16,0.171-0.354,0.254-0.566,0.254c-0.249,0-0.447-0.081-0.588-0.25c-0.142-0.165-0.215-0.41-0.215-0.733v-6.915
				c0-0.358,0.072-0.632,0.207-0.82c0.139-0.19,0.341-0.283,0.596-0.283c0.25,0,0.445,0.086,0.594,0.257
				c0.147,0.169,0.221,0.422,0.221,0.752v3.933l1.822-1.914c0.227-0.234,0.396-0.4,0.518-0.486c0.117-0.087,0.262-0.13,0.43-0.13
				c0.205,0,0.371,0.064,0.51,0.193c0.133,0.128,0.201,0.291,0.201,0.482c0,0.237-0.221,0.556-0.66,0.951l-0.859,0.789l1.661,2.614
				c0.121,0.196,0.212,0.34,0.265,0.441c0.053,0.1,0.082,0.199,0.082,0.289c0,0.258-0.072,0.459-0.213,0.609
				c-0.141,0.147-0.328,0.221-0.555,0.221c-0.197,0-0.352-0.051-0.458-0.159C296.281,480.893,296.133,480.698,295.952,480.421"/>
			<path style="fill:#1D1E1E;" d="M299.475,481.16c-0.245,0-0.455-0.078-0.634-0.237c-0.178-0.156-0.268-0.379-0.268-0.666
				c0-0.241,0.087-0.449,0.257-0.622c0.172-0.174,0.38-0.262,0.63-0.262c0.248,0,0.46,0.088,0.639,0.258
				c0.175,0.172,0.264,0.383,0.264,0.626c0,0.283-0.089,0.505-0.264,0.662C299.919,481.082,299.711,481.16,299.475,481.16"/>
			<path style="fill:#1D1E1E;" d="M307.536,479.154c0,0.2-0.061,0.417-0.183,0.647c-0.119,0.231-0.305,0.448-0.553,0.656
				c-0.247,0.207-0.558,0.376-0.935,0.502c-0.376,0.126-0.8,0.191-1.269,0.191c-1.004,0-1.787-0.293-2.35-0.876
				c-0.558-0.584-0.841-1.368-0.841-2.35c0-0.667,0.128-1.254,0.388-1.765c0.254-0.51,0.627-0.905,1.113-1.184
				c0.486-0.28,1.072-0.419,1.746-0.419c0.421,0,0.805,0.062,1.157,0.185c0.351,0.122,0.646,0.282,0.891,0.474
				c0.241,0.197,0.429,0.402,0.556,0.62c0.13,0.22,0.193,0.426,0.193,0.617c0,0.192-0.071,0.358-0.215,0.492
				c-0.146,0.135-0.322,0.203-0.524,0.203c-0.137,0-0.249-0.036-0.338-0.104c-0.09-0.07-0.19-0.181-0.3-0.339
				c-0.197-0.299-0.403-0.525-0.622-0.674c-0.214-0.152-0.487-0.227-0.821-0.227c-0.476,0-0.864,0.187-1.158,0.561
				c-0.292,0.373-0.439,0.888-0.439,1.534c0,0.305,0.039,0.587,0.114,0.842c0.073,0.255,0.183,0.473,0.325,0.653
				c0.145,0.179,0.314,0.315,0.517,0.408c0.202,0.096,0.425,0.142,0.665,0.142c0.326,0,0.604-0.075,0.835-0.226
				c0.235-0.15,0.438-0.38,0.616-0.69c0.1-0.182,0.205-0.323,0.318-0.427c0.114-0.102,0.256-0.155,0.422-0.155
				c0.198,0,0.363,0.076,0.492,0.227C307.469,478.823,307.536,478.985,307.536,479.154"/>
			<path style="fill:#1D1E1E;" d="M314.529,477.866c0,0.481-0.076,0.928-0.222,1.337c-0.154,0.408-0.37,0.758-0.655,1.049
				c-0.285,0.293-0.627,0.517-1.021,0.676c-0.399,0.154-0.844,0.234-1.337,0.234c-0.49,0-0.934-0.08-1.326-0.239
				c-0.389-0.156-0.73-0.385-1.016-0.677c-0.288-0.298-0.506-0.646-0.657-1.048c-0.144-0.402-0.22-0.847-0.22-1.332
				c0-0.491,0.078-0.941,0.225-1.349c0.151-0.409,0.368-0.758,0.649-1.046c0.282-0.288,0.62-0.511,1.019-0.669
				c0.402-0.155,0.844-0.233,1.326-0.233c0.49,0,0.937,0.078,1.337,0.238c0.398,0.157,0.739,0.385,1.027,0.675
				c0.286,0.297,0.501,0.644,0.649,1.045C314.455,476.935,314.529,477.378,314.529,477.866 M312.902,477.866
				c0-0.661-0.146-1.176-0.436-1.543c-0.289-0.372-0.682-0.555-1.172-0.555c-0.317,0-0.597,0.082-0.839,0.246
				c-0.241,0.163-0.426,0.406-0.556,0.727c-0.131,0.321-0.197,0.695-0.197,1.124c0,0.425,0.064,0.792,0.193,1.108
				c0.13,0.319,0.313,0.561,0.553,0.728c0.242,0.167,0.523,0.253,0.846,0.253c0.49,0,0.883-0.185,1.172-0.557
				C312.756,479.029,312.902,478.517,312.902,477.866"/>
			<path style="fill:#1D1E1E;" d="M320.713,477.985v2.154c0,0.342-0.076,0.594-0.231,0.767c-0.156,0.171-0.356,0.256-0.61,0.256
				c-0.246,0-0.447-0.085-0.596-0.256c-0.154-0.173-0.232-0.425-0.232-0.767v-2.582c0-0.408-0.012-0.727-0.039-0.953
				c-0.029-0.221-0.105-0.409-0.227-0.552c-0.123-0.146-0.318-0.22-0.582-0.22c-0.531,0-0.879,0.182-1.048,0.551
				c-0.167,0.36-0.253,0.883-0.253,1.566v2.19c0,0.336-0.077,0.591-0.227,0.765c-0.156,0.171-0.354,0.258-0.603,0.258
				c-0.246,0-0.447-0.087-0.604-0.258c-0.158-0.174-0.235-0.429-0.235-0.765v-4.637c0-0.307,0.069-0.538,0.21-0.695
				c0.143-0.16,0.328-0.238,0.556-0.238c0.223,0,0.407,0.077,0.558,0.222c0.147,0.149,0.221,0.355,0.221,0.615v0.153
				c0.283-0.334,0.584-0.582,0.903-0.737c0.323-0.162,0.677-0.241,1.07-0.241c0.407,0,0.757,0.082,1.049,0.243
				c0.294,0.163,0.533,0.41,0.726,0.735c0.273-0.33,0.567-0.576,0.881-0.737c0.313-0.161,0.658-0.241,1.039-0.241
				c0.441,0,0.825,0.089,1.147,0.262c0.318,0.174,0.557,0.425,0.717,0.747c0.138,0.295,0.206,0.756,0.206,1.386v3.164
				c0,0.342-0.076,0.594-0.229,0.767c-0.154,0.171-0.359,0.256-0.612,0.256c-0.247,0-0.446-0.087-0.603-0.258
				c-0.156-0.174-0.235-0.429-0.235-0.765v-2.727c0-0.349-0.015-0.626-0.044-0.836c-0.029-0.21-0.109-0.388-0.238-0.529
				c-0.133-0.142-0.332-0.215-0.596-0.215c-0.214,0-0.416,0.066-0.609,0.192c-0.191,0.124-0.342,0.298-0.45,0.508
				C320.773,476.808,320.713,477.291,320.713,477.985"/>
		</g>
		<g>
			<path style="fill:#1D1E1E;" d="M245.271,477.474c-0.001-0.003-0.001-0.006-0.001-0.011
				C245.27,477.468,245.27,477.471,245.271,477.474z"/>
			<path style="fill:#1D1E1E;" d="M245.354,477.992c0.002,0,0.002,0,0.002,0c-0.031-0.147-0.055-0.294-0.074-0.438
				C245.301,477.699,245.324,477.847,245.354,477.992z"/>
			<path style="fill:#1D1E1E;" d="M245.891,479.496c-0.004-0.006-0.008-0.014-0.012-0.021
				C245.883,479.482,245.887,479.49,245.891,479.496z"/>
			<path style="fill:#1D1E1E;" d="M245.839,479.396c-0.015-0.027-0.027-0.056-0.041-0.083
				C245.811,479.342,245.824,479.368,245.839,479.396z"/>
			<path style="fill:#1D1E1E;" d="M245.504,478.571c0.08,0.25,0.176,0.492,0.286,0.724c-0.112-0.236-0.206-0.478-0.283-0.724
				C245.506,478.571,245.505,478.571,245.504,478.571z"/>
			<path style="fill:#1D1E1E;" d="M251.545,471.264c0.313,0,0.545,0.025,0.81,0.069l0.075-0.477c0,0-0.732-0.226-1.693-0.147
				l-0.076-0.26c0.299-0.063,0.523-0.328,0.523-0.646c0-0.364-0.297-0.659-0.66-0.659c-0.365,0-0.66,0.295-0.66,0.659
				c0,0.317,0.225,0.583,0.522,0.646l0.083,0.29c-1.021,0.14-1.834,0.539-1.834,0.539l0.145,0.44
				c0.617-0.206,1.153-0.331,1.64-0.384C250.895,471.286,251.254,471.264,251.545,471.264z"/>
			<path style="fill:#1D1E1E;" d="M245.878,473.675l0.004-0.005c0.024-0.031,0.047-0.06,0.071-0.089l-0.196-0.141l-0.306-0.223
				c-0.017,0.023-0.496,0.465-0.875,1.279c-0.016-0.025-0.035-0.051-0.057-0.074c-0.113-0.124-0.271-0.188-0.474-0.184
				c-0.003,0-0.006,0-0.009,0c-0.125,0-0.211-0.042-0.268-0.093c0.057-0.07,0.09-0.159,0.09-0.258c0-0.23-0.188-0.418-0.418-0.418
				s-0.418,0.188-0.418,0.418c0,0.231,0.188,0.418,0.418,0.418c0.036,0,0.07-0.006,0.104-0.013c0.104,0.114,0.267,0.214,0.506,0.209
				c0.123-0.001,0.213,0.03,0.273,0.097c0.068,0.076,0.092,0.186,0.1,0.268c-0.001,0.001-0.001,0.003-0.002,0.003
				c-0.273,0.743-0.195,1.669-0.195,1.669l0.661,0.026c0.014-0.337,0.062-0.927,0.232-1.395
				C245.449,474.266,245.861,473.699,245.878,473.675z"/>
			<path style="fill:#1D1E1E;" d="M257.295,471.816c-0.23,0-0.418,0.186-0.418,0.418c0,0.035,0.006,0.07,0.015,0.103
				c-0.114,0.104-0.214,0.268-0.211,0.507c0.002,0.123-0.03,0.213-0.097,0.272c-0.053,0.048-0.119,0.072-0.185,0.088
				c-0.491-0.689-1.097-1.109-1.097-1.109l-0.475,0.509c0.357,0.326,0.725,0.734,1.08,1.244c0.246,0.352,0.499,0.806,0.71,1.259
				l0.64-0.304c0,0-0.292-0.723-0.703-1.37c0.071-0.024,0.143-0.063,0.207-0.12c0.125-0.112,0.187-0.272,0.183-0.474
				c-0.001-0.13,0.042-0.218,0.093-0.275c0.072,0.054,0.16,0.089,0.258,0.089c0.232,0,0.418-0.188,0.418-0.418
				C257.713,472.003,257.527,471.816,257.295,471.816z"/>
			<path style="fill:#1D1E1E;" d="M255.635,477.567c-0.881,0.429-2.331,0.996-4.238,1.262c-0.75,0.104-1.475,0.143-2.143,0.143
				c-0.869,0-1.639-0.065-2.228-0.14c-0.673-0.084-1.198-0.188-1.52-0.261c0.077,0.245,0.171,0.487,0.283,0.724
				c0.002,0.007,0.005,0.013,0.008,0.018c0.014,0.027,0.026,0.056,0.041,0.083c0.014,0.028,0.026,0.055,0.04,0.08
				c0.004,0.007,0.008,0.015,0.012,0.021c0.189,0.357,0.416,0.685,0.675,0.968c0.899,0.984,1.817,1.141,1.825,1.142l0.015,0.002
				l0.014,0.005c0.009,0.003,0.821,0.266,2.058,0.266c1.215,0,2.408-0.246,3.545-0.729c0.843-0.431,1.64-1.085,2.034-1.669
				c0.306-0.452,0.526-0.934,0.656-1.434c0.069-0.267,0.124-0.692,0.093-1.141C256.557,477.071,256.164,477.31,255.635,477.567z"/>
			<path style="fill:#1D1E1E;" d="M246.16,473.884c-0.025,0.037-0.407,0.578-0.709,1.408c-0.227,0.622-0.216,1.527-0.216,1.537
				v0.002c0,0.213,0.012,0.423,0.035,0.632c0,0.005,0,0.008,0.001,0.011c0.003,0.027,0.008,0.053,0.01,0.08
				c0.02,0.145,0.043,0.291,0.074,0.438c0.438,0.111,3.049,0.72,5.968,0.314c1.829-0.254,3.218-0.795,4.062-1.204
				c0.701-0.34,1.151-0.647,1.325-0.773c-0.173-0.643-0.651-1.65-1.089-2.279c-1.254-1.791-2.605-2.25-3.299-2.364
				c-0.265-0.044-0.477-0.068-0.777-0.068c-0.279,0-0.626,0.022-1.089,0.071c-0.465,0.048-0.982,0.17-1.583,0.372
				c-0.842,0.282-1.604,0.725-2.204,1.28l-0.02,0.018C246.56,473.44,246.374,473.612,246.16,473.884z M253.829,473.467
				c0.601,0,1.09,0.488,1.09,1.09c0,0.602-0.489,1.09-1.09,1.09s-1.089-0.488-1.089-1.09
				C252.74,473.955,253.229,473.467,253.829,473.467z M248.678,473.424c0.973,0,1.762,0.788,1.762,1.761
				c0,0.973-0.789,1.759-1.762,1.759c-0.971,0-1.76-0.786-1.76-1.759C246.918,474.212,247.707,473.424,248.678,473.424z"/>
		</g>
	</g>
</g>
</svg>
